<svg width="25" height="41" viewBox="0 0 25 41" fill="none" xmlns="http://www.w3.org/2000/svg">
<path d="M11.0446 33.6847H8.26163V34.5537H12.1226V35.3457H3.44363V34.5537H7.28264V33.6847H4.48863V29.9007H10.9786V30.6817H5.46763V31.3967H10.8576V32.1447H5.46763V32.8927H11.0446V33.6847ZM11.0996 37.4797C11.0996 38.0077 10.8173 38.4183 10.2526 38.7117C9.68797 39.0123 8.86297 39.1627 7.77763 39.1627C6.69963 39.1627 5.8783 39.0123 5.31363 38.7117C4.74897 38.411 4.46663 38.0003 4.46663 37.4797C4.46663 36.959 4.74897 36.5483 5.31363 36.2477C5.8783 35.947 6.69963 35.7967 7.77763 35.7967C8.86297 35.7967 9.68797 35.9433 10.2526 36.2367C10.8173 36.53 11.0996 36.9443 11.0996 37.4797ZM7.77763 36.5887C7.0663 36.5887 6.50163 36.6693 6.08364 36.8307C5.67297 36.9847 5.46763 37.201 5.46763 37.4797C5.46763 37.7583 5.67297 37.9783 6.08364 38.1397C6.50163 38.2937 7.0663 38.3707 7.77763 38.3707C8.50363 38.3707 9.07197 38.2937 9.48263 38.1397C9.90064 37.9783 10.1096 37.7583 10.1096 37.4797C10.1096 37.201 9.90064 36.9847 9.48263 36.8307C9.07197 36.6693 8.50363 36.5887 7.77763 36.5887ZM19.2312 38.6237H18.3072V35.3017H16.8552V34.5097H18.3072V32.8927H17.0752V32.1007H18.3072V29.7027H19.2312V38.6237ZM21.0792 39.0967H20.1442V29.4827H21.0792V39.0967ZM16.9982 30.6377C16.9835 32.0603 16.6865 33.2997 16.1072 34.3557C15.5279 35.4043 14.6442 36.3247 13.4562 37.1167L12.7962 36.4017C13.7642 35.837 14.5232 35.122 15.0732 34.2567C15.6232 33.384 15.9422 32.4453 16.0302 31.4407H13.2142V30.6377H16.9982Z" fill="#5FCE80"/>
<path fill-rule="evenodd" clip-rule="evenodd" d="M7.28021 21.9485H4.54321C4.278 21.9485 4.02364 21.8431 3.83611 21.6556C3.64857 21.4681 3.54321 21.2137 3.54321 20.9485V14.4225C3.54321 14.1573 3.64857 13.9029 3.83611 13.7154C4.02364 13.5278 4.278 13.4225 4.54321 13.4225H7.28021C7.54543 13.4225 7.79978 13.5278 7.98732 13.7154C8.17486 13.9029 8.28021 14.1573 8.28021 14.4225V20.9485C8.28021 21.2137 8.17486 21.4681 7.98732 21.6556C7.79978 21.8431 7.54543 21.9485 7.28021 21.9485ZM13.9122 21.9485H11.1752C10.91 21.9485 10.6556 21.8431 10.4681 21.6556C10.2806 21.4681 10.1752 21.2137 10.1752 20.9485V9.68549C10.1752 9.42027 10.2806 9.16592 10.4681 8.97838C10.6556 8.79084 10.91 8.68549 11.1752 8.68549H13.9122C14.1774 8.68549 14.4318 8.79084 14.6193 8.97838C14.8069 9.16592 14.9122 9.42027 14.9122 9.68549V20.9485C14.9122 21.2137 14.8069 21.4681 14.6193 21.6556C14.4318 21.8431 14.1774 21.9485 13.9122 21.9485ZM20.5432 21.9485H17.8062C17.541 21.9485 17.2866 21.8431 17.0991 21.6556C16.9116 21.4681 16.8062 21.2137 16.8062 20.9485V4.94849C16.8062 4.68327 16.9116 4.42892 17.0991 4.24138C17.2866 4.05384 17.541 3.94849 17.8062 3.94849H20.5432C20.8084 3.94849 21.0628 4.05384 21.2503 4.24138C21.4379 4.42892 21.5432 4.68327 21.5432 4.94849V20.9485C21.5432 21.2137 21.4379 21.4681 21.2503 21.6556C21.0628 21.8431 20.8084 21.9485 20.5432 21.9485Z" fill="#5FCE80"/>
</svg>
