<svg width="190" height="54" viewBox="0 0 190 54" fill="none" xmlns="http://www.w3.org/2000/svg">
<path d="M5.03359 16.128H2.92159V21.12H13.4336V19.44H5.03359V16.128ZM12.6976 13.168C13.0336 11.376 13.0336 9.984 13.0336 8.736V7.456H2.88959V9.136H10.9536C10.9536 10.288 10.9056 11.536 10.5856 13.168H1.24159V14.848H14.5856V13.168H12.6976ZM25.6403 11.648H19.5763V9.024H25.6403V11.648ZM27.7043 7.36H17.4963V13.312H27.7043V7.36ZM29.3043 14.88H15.9603V16.56H21.5283V21.376H23.6403V16.56H29.3043V14.88ZM36.3751 9.792H39.4151V8.048H31.1591V9.792H34.2311V10.608C34.2311 13.12 33.0311 15.824 30.5671 16.928L31.7671 18.608C33.4951 17.824 34.6791 16.208 35.3351 14.288C35.9911 16.064 37.1591 17.504 38.8711 18.24L40.0231 16.576C37.5591 15.552 36.3751 13.008 36.3751 10.608V9.792ZM40.7751 6.64V21.376H42.8871V6.64H40.7751ZM55.0298 9.04H47.0618V12.56H57.3658V11.136H49.1418V10.368H57.1098V6.896H47.0298V8.32H55.0298V9.04ZM49.0138 19.024H57.1578V15.52H46.9018V16.944H55.0618V17.696H46.9178V21.248H57.5578V19.824H49.0138V19.024ZM45.3978 13.264V14.784H58.7418V13.264H45.3978ZM65.1496 14.704C67.6776 14.4 69.4536 13.392 70.3976 12.064C71.3416 13.392 73.1176 14.4 75.6136 14.704L76.3656 13.04C73.3416 12.704 71.7416 11.248 71.4856 10H75.8536V8.32H71.4376V6.672H69.3256V8.32H64.9416V10H69.2936C69.0536 11.28 67.4856 12.704 64.4136 13.04L65.1496 14.704ZM77.0696 15.456H63.7576V17.168H69.3256V21.408H71.4376V17.168H77.0696V15.456ZM79.1323 8.144V9.856H83.9483C83.5643 13.12 81.7403 15.456 78.3163 17.216L79.5003 18.832C84.3963 16.352 86.0763 12.56 86.0763 8.144H79.1323ZM92.0603 12.256H89.9963V6.624H87.8843V21.344H89.9963V14H92.0603V12.256ZM97.5471 16.896C96.2511 16.896 95.3071 15.968 95.3071 14.688C95.3071 13.392 96.2511 12.464 97.5471 12.464C98.8591 12.464 99.8031 13.392 99.8031 14.688C99.8031 15.968 98.8591 16.896 97.5471 16.896ZM97.5471 11.376C95.5311 11.376 94.0751 12.752 94.0751 14.688C94.0751 16.64 95.5311 17.984 97.5471 17.984C99.5951 17.984 101.051 16.64 101.051 14.688C101.051 12.752 99.5951 11.376 97.5471 11.376ZM98.1871 7.008H96.8751V9.136H93.2591V10.192H101.723V9.136H98.1871V7.008ZM106.747 12.736H104.395V6.848H103.083V21.184H104.395V13.84H106.747V12.736ZM118.186 9.696C118.186 11.424 118.186 13.44 117.642 16.192L118.954 16.336C119.498 13.44 119.498 11.472 119.498 9.696V8.272H109.434V9.344H118.186V9.696ZM114.426 18.096V12.96H113.114V18.096H108.074V19.168H121.05V18.096H114.426ZM8.92159 40.456V41.736H11.5296V42.168H13.6416V33.64H11.5296V40.456H8.92159ZM5.92959 35.24C6.98559 35.24 7.64159 35.512 7.64159 36.072C7.64159 36.616 6.98559 36.888 5.92959 36.888C4.87359 36.888 4.20159 36.616 4.20159 36.072C4.20159 35.512 4.87359 35.24 5.92959 35.24ZM5.92959 38.248C8.12159 38.248 9.60959 37.4 9.60959 36.072C9.60959 34.712 8.12159 33.864 5.92959 33.864C3.72159 33.864 2.24959 34.712 2.24959 36.072C2.24959 37.4 3.72159 38.248 5.92959 38.248ZM4.80959 42.184H6.92159V40.152C8.21759 40.088 9.51359 39.976 10.7936 39.8L10.6656 38.504C7.57759 38.824 4.07359 38.824 1.25759 38.824L1.46559 40.264C2.50559 40.264 3.64159 40.264 4.80959 40.248V42.184ZM5.44959 46.824V46.072H13.6416V42.616H3.35359V44.04H11.5616V44.744H3.36959V48.264H13.9776V46.824H5.44959ZM25.5923 46.52H19.6403V45.192H25.5923V46.52ZM25.5923 43.56H19.6403V42.024H17.5443V48.216H27.7043V42.024H25.5923V43.56ZM27.4163 39.384C27.7363 37.736 27.7363 36.568 27.7363 35.416V34.232H17.6083V35.912H25.6563C25.6563 36.888 25.6083 37.992 25.3203 39.384H15.9603V41.08H29.3043V39.384H27.4163ZM38.9671 38.216C36.9991 38.6 35.1271 38.728 33.3831 38.76V34.28H31.2711V40.52H32.5191C34.5831 40.52 36.8071 40.376 39.2071 39.896L38.9671 38.216ZM34.6791 45.592H42.2791V41.512H32.5511V43.176H40.1671V44.04H32.5671V48.2H42.7111V46.552H34.6791V45.592ZM42.2791 36.392V33.624H40.1671V40.904H42.2791V38.104H44.2311V36.392H42.2791ZM52.0148 36.664H57.0228V34.952H49.9028V44.904H51.1988C54.3348 44.904 56.2068 44.84 58.2068 44.456L58.0148 42.712C56.2388 43.048 54.5908 43.128 52.0148 43.144V36.664ZM59.1188 33.64V48.424H61.2308V33.64H59.1188ZM66.2536 36.984H69.7896V35.304H64.1736V45.096H65.1816C67.3416 45.096 68.7976 45.032 70.4456 44.712L70.2696 42.984C68.9736 43.24 67.7896 43.336 66.2536 43.368V36.984ZM71.3416 39.016H68.7816V40.728H71.3416V47.72H73.3096V33.912H71.3416V39.016ZM74.3976 33.624V48.36H76.3976V33.624H74.3976ZM88.5563 33.624V48.408H90.6683V33.624H88.5563ZM82.7483 34.664C80.5243 34.664 78.8763 36.68 78.8763 39.912C78.8763 43.16 80.5243 45.192 82.7483 45.192C84.9723 45.192 86.6203 43.16 86.6203 39.912C86.6203 36.68 84.9723 34.664 82.7483 34.664ZM82.7483 36.568C83.8363 36.568 84.5883 37.736 84.5883 39.912C84.5883 42.104 83.8363 43.272 82.7483 43.272C81.6603 43.272 80.9083 42.104 80.9083 39.912C80.9083 37.736 81.6603 36.568 82.7483 36.568ZM103.387 36.344H95.0031V39.416H104.939V38.472H96.2991V37.24H104.683V34.248H94.9711V35.176H103.387V36.344ZM96.2191 45.72H104.731V42.664H94.8911V43.608H103.435V44.808H94.9231V47.992H105.179V47.048H96.2191V45.72ZM93.3391 40.504V41.496H106.347V40.504H93.3391ZM120.164 35.144H116.708V33.736H115.396V35.144H111.924V36.136H120.164V35.144ZM113.94 38.792C113.94 38.04 114.756 37.576 116.052 37.576C117.316 37.576 118.148 38.04 118.148 38.792C118.148 39.544 117.316 40.024 116.052 40.024C114.756 40.024 113.94 39.544 113.94 38.792ZM120.596 41.544C119.348 41.736 118.02 41.832 116.708 41.896V40.904C118.356 40.728 119.396 39.96 119.396 38.792C119.396 37.48 118.052 36.664 116.052 36.664C114.02 36.664 112.692 37.48 112.692 38.792C112.692 39.976 113.732 40.744 115.396 40.904V41.944C114.02 41.992 112.708 41.992 111.572 41.992L111.716 43.048C114.228 43.032 117.62 43.016 120.692 42.488L120.596 41.544ZM113.316 45.224H121.444V48.184H122.756V44.184H113.316V45.224ZM124.852 38.184H122.756V33.848H121.444V43.464H122.756V39.272H124.852V38.184ZM138.131 33.848H136.819V44.328H138.131V33.848ZM127.971 38.36C127.971 36.968 129.027 35.976 130.419 35.976C131.843 35.976 132.899 36.968 132.899 38.36C132.899 39.784 131.843 40.776 130.419 40.776C129.027 40.776 127.971 39.784 127.971 38.36ZM134.179 38.36C134.179 36.296 132.563 34.84 130.419 34.84C128.291 34.84 126.691 36.296 126.691 38.36C126.691 40.44 128.291 41.912 130.419 41.912C132.563 41.912 134.179 40.44 134.179 38.36ZM130.211 46.792V43.256H128.899V47.864H138.563V46.792H130.211ZM145.281 43.896C143.985 43.896 143.041 42.968 143.041 41.688C143.041 40.392 143.985 39.464 145.281 39.464C146.593 39.464 147.537 40.392 147.537 41.688C147.537 42.968 146.593 43.896 145.281 43.896ZM145.281 38.376C143.265 38.376 141.809 39.752 141.809 41.688C141.809 43.64 143.265 44.984 145.281 44.984C147.329 44.984 148.785 43.64 148.785 41.688C148.785 39.752 147.329 38.376 145.281 38.376ZM145.921 34.008H144.609V36.136H140.993V37.192H149.457V36.136H145.921V34.008ZM154.481 39.736H152.129V33.848H150.817V48.184H152.129V40.84H154.481V39.736ZM160.048 35.192H158.784V37.928C158.784 40.392 157.6 42.968 155.632 44.12L156.448 45.096C157.872 44.216 158.912 42.6 159.424 40.696C159.936 42.44 160.896 43.96 162.256 44.792L163.008 43.768C161.12 42.616 160.048 40.184 160.048 37.88V35.192ZM163.824 38.984H161.456V40.072H163.824V47.48H165.056V34.152H163.824V38.984ZM166.736 33.832V48.184H167.984V33.832H166.736ZM175.007 41.88C175.599 42.024 176.287 42.104 176.991 42.104C177.711 42.104 178.399 42.024 179.007 41.88V45.256H175.007V41.88ZM176.991 35.768C179.295 35.768 180.959 36.824 180.959 38.424C180.959 40.024 179.295 41.08 176.991 41.08C174.687 41.08 173.039 40.024 173.039 38.424C173.039 36.824 174.687 35.768 176.991 35.768ZM180.319 45.256V41.368C181.503 40.744 182.207 39.72 182.207 38.424C182.207 36.184 180.047 34.744 176.991 34.744C173.951 34.744 171.775 36.184 171.775 38.424C171.775 39.72 172.495 40.76 173.695 41.384V45.256H170.495V46.344H183.535V45.256H180.319ZM186.462 43.464H187.47L187.662 36.68L187.71 35.016H186.222L186.27 36.68L186.462 43.464ZM186.958 47.208C187.55 47.208 188.014 46.76 188.014 46.104C188.014 45.432 187.55 44.968 186.958 44.968C186.382 44.968 185.902 45.432 185.902 46.104C185.902 46.76 186.382 47.208 186.958 47.208Z" fill="#37ADAE"/>
</svg>
