<svg width="341" height="57" viewBox="0 0 341 57" fill="none" xmlns="http://www.w3.org/2000/svg">
<rect x="0.59314" y="0.272461" width="339.893" height="56" rx="8" fill="#5FCE80"/>
<path d="M132.391 21.7135V37.1155H134.159V21.7135H132.391ZM125.982 22.8525C123.704 22.8525 122.038 24.9605 122.038 28.2585C122.038 31.5905 123.704 33.6815 125.982 33.6815C128.277 33.6815 129.943 31.5905 129.943 28.2585C129.943 24.9605 128.277 22.8525 125.982 22.8525ZM125.982 24.4335C127.325 24.4335 128.26 25.8785 128.26 28.2585C128.26 30.6725 127.325 32.1175 125.982 32.1175C124.656 32.1175 123.721 30.6725 123.721 28.2585C123.721 25.8785 124.656 24.4335 125.982 24.4335ZM141.96 31.6925H139.308V24.8075H141.96V31.6925ZM145.53 27.4255H143.592V23.4135H137.676V33.0865H143.592V28.8535H145.53V36.3505H147.162V22.0195H145.53V27.4255ZM148.607 21.7305V37.0645H150.273V21.7305H148.607ZM165.453 21.7135H163.702V29.5165H165.453V21.7135ZM154.794 25.6915C154.794 24.4675 155.78 23.6685 157.106 23.6685C158.449 23.6685 159.452 24.4675 159.452 25.6915C159.452 26.9155 158.449 27.7145 157.106 27.7145C155.78 27.7145 154.794 26.9155 154.794 25.6915ZM161.152 25.6915C161.152 23.6685 159.435 22.2235 157.106 22.2235C154.794 22.2235 153.094 23.6685 153.094 25.6915C153.094 27.7145 154.794 29.1425 157.106 29.1425C159.435 29.1425 161.152 27.7145 161.152 25.6915ZM157.14 35.5175V34.1575H165.453V30.2135H155.389V31.5905H163.719V32.8655H155.423V36.8945H165.912V35.5175H157.14ZM180.065 33.8345V31.2165H184.859V29.8055H175.662V27.6635H184.519V22.8015H173.911V24.2125H182.785V26.2695H173.945V31.2165H178.314V33.8345H172.262V35.2795H186.168V33.8345H180.065ZM198.254 24.9095C198.254 26.8985 198.254 29.1595 197.659 32.1855L199.427 32.3725C200.005 29.1255 200.005 26.9665 200.005 24.9095V23.2605H189.38V24.6715H198.254V24.9095ZM187.901 33.4945V34.9395H201.79V33.4945H187.901ZM216.187 21.7305H214.436V32.8825H216.187V21.7305ZM205.545 26.5925C205.545 25.1815 206.548 24.2635 207.908 24.2635C209.251 24.2635 210.271 25.1815 210.271 26.5925C210.271 27.9865 209.251 28.9215 207.908 28.9215C206.548 28.9215 205.545 27.9865 205.545 26.5925ZM211.971 26.5925C211.971 24.3485 210.22 22.7505 207.908 22.7505C205.596 22.7505 203.828 24.3485 203.828 26.5925C203.828 28.8195 205.596 30.4345 207.908 30.4345C210.22 30.4345 211.971 28.8195 211.971 26.5925ZM207.925 35.3645V31.7605H206.157V36.7925H216.629V35.3645H207.925Z" fill="white"/>
</svg>
