<svg width="25" height="40" viewBox="0 0 25 40" fill="none" xmlns="http://www.w3.org/2000/svg">
<path d="M11.2956 32.988H8.51255V33.857H12.3736V34.649H3.69455V33.857H7.53355V32.988H4.73955V29.204H11.2296V29.985H5.71855V30.7H11.1086V31.448H5.71855V32.196H11.2956V32.988ZM11.3506 36.783C11.3506 37.311 11.0682 37.7217 10.5036 38.015C9.93888 38.3157 9.11388 38.466 8.02855 38.466C6.95055 38.466 6.12922 38.3157 5.56455 38.015C4.99988 37.7143 4.71755 37.3037 4.71755 36.783C4.71755 36.2623 4.99988 35.8517 5.56455 35.551C6.12922 35.2503 6.95055 35.1 8.02855 35.1C9.11388 35.1 9.93888 35.2467 10.5036 35.54C11.0682 35.8333 11.3506 36.2477 11.3506 36.783ZM8.02855 35.892C7.31722 35.892 6.75255 35.9727 6.33455 36.134C5.92388 36.288 5.71855 36.5043 5.71855 36.783C5.71855 37.0617 5.92388 37.2817 6.33455 37.443C6.75255 37.597 7.31722 37.674 8.02855 37.674C8.75455 37.674 9.32288 37.597 9.73355 37.443C10.1516 37.2817 10.3606 37.0617 10.3606 36.783C10.3606 36.5043 10.1516 36.288 9.73355 36.134C9.32288 35.9727 8.75455 35.892 8.02855 35.892ZM19.4821 37.927H18.5581V34.605H17.1061V33.813H18.5581V32.196H17.3261V31.404H18.5581V29.006H19.4821V37.927ZM21.3301 38.4H20.3951V28.786H21.3301V38.4ZM17.2491 29.941C17.2345 31.3637 16.9375 32.603 16.3581 33.659C15.7788 34.7077 14.8951 35.628 13.7071 36.42L13.0471 35.705C14.0151 35.1403 14.7741 34.4253 15.3241 33.56C15.8741 32.6873 16.1931 31.7487 16.2811 30.744H13.4651V29.941H17.2491Z" fill="#D7D8DF"/>
<path fill-rule="evenodd" clip-rule="evenodd" d="M7.53113 21.252H4.79413C4.52891 21.252 4.27456 21.1466 4.08702 20.9591C3.89949 20.7715 3.79413 20.5172 3.79413 20.252V13.726C3.79413 13.4607 3.89949 13.2064 4.08702 13.0188C4.27456 12.8313 4.52891 12.726 4.79413 12.726H7.53113C7.79634 12.726 8.0507 12.8313 8.23823 13.0188C8.42577 13.2064 8.53113 13.4607 8.53113 13.726V20.252C8.53113 20.5172 8.42577 20.7715 8.23823 20.9591C8.0507 21.1466 7.79634 21.252 7.53113 21.252ZM14.1631 21.252H11.4261C11.1609 21.252 10.9066 21.1466 10.719 20.9591C10.5315 20.7715 10.4261 20.5172 10.4261 20.252V8.98895C10.4261 8.72374 10.5315 8.46938 10.719 8.28185C10.9066 8.09431 11.1609 7.98895 11.4261 7.98895H14.1631C14.4283 7.98895 14.6827 8.09431 14.8702 8.28185C15.0578 8.46938 15.1631 8.72374 15.1631 8.98895V20.252C15.1631 20.5172 15.0578 20.7715 14.8702 20.9591C14.6827 21.1466 14.4283 21.252 14.1631 21.252ZM20.7941 21.252H18.0571C17.7919 21.252 17.5376 21.1466 17.35 20.9591C17.1625 20.7715 17.0571 20.5172 17.0571 20.252V4.25195C17.0571 3.98674 17.1625 3.73238 17.35 3.54485C17.5376 3.35731 17.7919 3.25195 18.0571 3.25195H20.7941C21.0593 3.25195 21.3137 3.35731 21.5012 3.54485C21.6888 3.73238 21.7941 3.98674 21.7941 4.25195V20.252C21.7941 20.5172 21.6888 20.7715 21.5012 20.9591C21.3137 21.1466 21.0593 21.252 20.7941 21.252Z" fill="#D7D8DF"/>
</svg>
