<svg width="25" height="41" viewBox="0 0 25 41" fill="none" xmlns="http://www.w3.org/2000/svg">
<path d="M11.3461 34.2169H10.3671V29.3219H11.3461V34.2169ZM11.6871 38.8699H5.09808V36.3949H10.3671V35.5039H5.06508V34.7119H11.3461V37.1209H6.06608V38.0669H11.6871V38.8699ZM4.42708 30.2679C4.90374 29.8499 5.49041 29.6409 6.18708 29.6409C6.88374 29.6409 7.46674 29.8462 7.93608 30.2569C8.40541 30.6676 8.64008 31.1919 8.64008 31.8299C8.64008 32.4606 8.40541 32.9739 7.93608 33.3699C7.46674 33.7659 6.88374 33.9639 6.18708 33.9639C5.49041 33.9639 4.90374 33.7696 4.42708 33.3809C3.95774 32.9922 3.72308 32.4789 3.72308 31.8409C3.72308 31.2029 3.95774 30.6786 4.42708 30.2679ZM6.18708 30.4769C5.76174 30.4769 5.40241 30.6052 5.10908 30.8619C4.82308 31.1186 4.68008 31.4412 4.68008 31.8299C4.68008 32.2186 4.82308 32.5376 5.10908 32.7869C5.39508 33.0289 5.75441 33.1499 6.18708 33.1499C6.63441 33.1499 6.99374 33.0252 7.26508 32.7759C7.54374 32.5266 7.68308 32.2112 7.68308 31.8299C7.68308 31.4266 7.54741 31.1002 7.27608 30.8509C7.00474 30.6016 6.64174 30.4769 6.18708 30.4769ZM20.0607 35.7129C20.6327 36.0429 20.9187 36.4976 20.9187 37.0769C20.9187 37.6562 20.6363 38.1109 20.0717 38.4409C19.507 38.7709 18.7077 38.9359 17.6737 38.9359C16.6543 38.9359 15.8587 38.7709 15.2867 38.4409C14.722 38.1109 14.4397 37.6562 14.4397 37.0769C14.4397 36.4976 14.722 36.0429 15.2867 35.7129C15.8587 35.3756 16.6543 35.2069 17.6737 35.2069C18.7003 35.2069 19.496 35.3756 20.0607 35.7129ZM13.1967 30.8949V30.1029H18.4547V30.8949H16.3537V31.2139C16.3537 31.8519 16.5883 32.4312 17.0577 32.9519C17.527 33.4652 18.0587 33.8136 18.6527 33.9969L18.1137 34.7779C17.6737 34.6019 17.2373 34.3232 16.8047 33.9419C16.372 33.5532 16.0603 33.1462 15.8697 32.7209C15.723 33.1682 15.4113 33.6156 14.9347 34.0629C14.458 34.5102 13.963 34.8402 13.4497 35.0529L12.8997 34.2829C13.5597 34.0482 14.1353 33.6449 14.6267 33.0729C15.118 32.4936 15.3637 31.8812 15.3637 31.2359V30.8949H13.1967ZM17.6737 36.0099C16.9697 36.0099 16.4197 36.1052 16.0237 36.2959C15.6277 36.4792 15.4297 36.7396 15.4297 37.0769C15.4297 37.4142 15.6277 37.6782 16.0237 37.8689C16.4197 38.0522 16.9697 38.1439 17.6737 38.1439C18.385 38.1439 18.9387 38.0522 19.3347 37.8689C19.7307 37.6782 19.9287 37.4142 19.9287 37.0769C19.9287 36.7396 19.7307 36.4792 19.3347 36.2959C18.9387 36.1052 18.385 36.0099 17.6737 36.0099ZM19.8847 32.5449H18.0917V31.7419H19.8847V29.3219H20.8637V35.2839H19.8847V32.5449Z" fill="#D7D8DF"/>
<path fill-rule="evenodd" clip-rule="evenodd" d="M17.7656 10.8808L12.1816 16.4648C11.9941 16.6523 11.7398 16.7576 11.4746 16.7576C11.2095 16.7576 10.9552 16.6523 10.7676 16.4648L7.35164 13.0478C7.2588 12.955 7.18515 12.8447 7.1349 12.7234C7.08466 12.6021 7.05879 12.4721 7.05879 12.3408C7.05879 12.2095 7.08466 12.0795 7.1349 11.9582C7.18515 11.8369 7.2588 11.7267 7.35164 11.6338C7.44449 11.541 7.55471 11.4673 7.67602 11.4171C7.79732 11.3668 7.92734 11.341 8.05864 11.341C8.18994 11.341 8.31996 11.3668 8.44127 11.4171C8.56258 11.4673 8.6728 11.541 8.76564 11.6338L11.4746 14.3428L16.3516 9.46681C16.4445 9.37396 16.5547 9.30031 16.676 9.25007C16.7973 9.19982 16.9273 9.17396 17.0586 9.17396C17.1899 9.17396 17.32 9.19982 17.4413 9.25007C17.5626 9.30031 17.6728 9.37396 17.7656 9.46681C17.8585 9.55965 17.9321 9.66988 17.9824 9.79118C18.0326 9.91249 18.0585 10.0425 18.0585 10.1738C18.0585 10.3051 18.0326 10.4351 17.9824 10.5564C17.9321 10.6777 17.8585 10.788 17.7656 10.8808ZM20.2586 3.26581H18.6286V2.26581C18.6286 2.00059 18.5233 1.74624 18.3357 1.5587C18.1482 1.37116 17.8939 1.26581 17.6286 1.26581C17.3634 1.26581 17.1091 1.37116 16.9215 1.5587C16.734 1.74624 16.6286 2.00059 16.6286 2.26581V3.26581H8.48864V2.26581C8.48864 2.00059 8.38329 1.74624 8.19575 1.5587C8.00821 1.37116 7.75386 1.26581 7.48864 1.26581C7.22343 1.26581 6.96907 1.37116 6.78154 1.5587C6.594 1.74624 6.48864 2.00059 6.48864 2.26581V3.26581H4.85864C4.32821 3.26581 3.8195 3.47652 3.44443 3.85159C3.06936 4.22667 2.85864 4.73538 2.85864 5.26581V20.6658C2.85864 21.1962 3.06936 21.705 3.44443 22.08C3.8195 22.4551 4.32821 22.6658 4.85864 22.6658H20.2586C20.7891 22.6658 21.2978 22.4551 21.6729 22.08C22.0479 21.705 22.2586 21.1962 22.2586 20.6658V5.26581C22.2586 4.73538 22.0479 4.22667 21.6729 3.85159C21.2978 3.47652 20.7891 3.26581 20.2586 3.26581Z" fill="#D7D8DF"/>
</svg>
