<svg width="20" height="20" viewBox="0 0 20 20" fill="none" xmlns="http://www.w3.org/2000/svg">
<path d="M10.8108 0.000671387C14.4068 0.0870018 17.3939 2.60236 17.7517 6.13013C17.7776 6.38912 17.7941 6.65518 17.7996 6.92751C17.8287 8.31822 17.8004 9.70971 17.8098 11.1004C17.8106 11.2731 17.8514 11.4434 17.9275 11.5988C18.4518 12.6693 18.991 13.7327 19.5231 14.8001C19.9257 15.6069 19.5404 16.2316 18.6339 16.2324C15.854 16.2347 13.0742 16.2331 10.2944 16.2331C7.56318 16.2331 4.83279 16.2331 2.10161 16.2324C1.95484 16.2324 1.80651 16.2331 1.66289 16.2104C1.07427 16.1154 0.775257 15.4891 1.05622 14.917C1.5436 13.9258 2.0294 12.9338 2.54425 11.9567C2.75693 11.5533 2.84326 11.1522 2.83855 10.6978C2.82286 9.28904 2.77341 7.87479 2.85896 6.47075C2.86367 6.39619 2.86916 6.32163 2.87544 6.24864C3.17053 2.74362 6.13088 0.0611027 9.64846 0.015583L10.8108 0.000671387Z" fill="#D8DADF"/>
<path d="M6.48096 18.0107H14.0631C13.8394 18.7799 12.2007 19.819 10.967 19.9618C9.13052 20.1745 7.66682 19.5121 6.48096 18.0107Z" fill="#D8DADF"/>
</svg>
