<svg width="50" height="40" viewBox="0 0 50 40" fill="none" xmlns="http://www.w3.org/2000/svg">
<path d="M11.3112 29.1201C11.3112 30.2275 11.1315 31.2248 10.7722 32.1121C10.4129 32.9921 9.91787 33.7438 9.2872 34.3671C8.66387 34.9831 7.88653 35.5331 6.9552 36.0171L6.3282 35.3021C7.9342 34.5615 9.0672 33.5238 9.7272 32.1891L6.6472 32.4861L6.4712 31.6281L10.0462 31.3861C10.1782 30.9608 10.2625 30.4805 10.2992 29.9451H6.8562V29.1201H11.3112ZM13.3352 32.6951H11.2672V31.8701H13.3352V28.1081H14.3032V37.7221H13.3352V32.6951ZM23.5348 32.4971H17.0448V28.6801H23.5348V32.4971ZM19.0908 37.7331H18.1228V34.4551H15.9448V33.6631H24.6238V34.4551H22.4128V37.7331H21.4448V34.4551H19.0908V37.7331ZM22.5668 31.6941V29.4611H18.0238V31.6941H22.5668ZM33.3384 28.1081V37.7221H32.3704V28.1081H33.3384ZM31.4684 34.0921L31.5894 34.8841C31.0687 35.0161 30.35 35.1225 29.4334 35.2031C28.524 35.2838 27.6917 35.3315 26.9364 35.3461H26.0344V29.1091H27.0134V34.5101C27.7027 34.5101 28.4837 34.4735 29.3564 34.4001C30.2364 34.3195 30.9404 34.2168 31.4684 34.0921ZM40.8759 34.3231L41.0189 35.1151C40.0216 35.3131 38.4963 35.4231 36.4429 35.4451C36.2303 35.4525 35.9039 35.4561 35.4639 35.4561V28.9991H39.9959V29.7801H36.4319V31.7161H39.8089V32.5081H36.4319V34.6311C38.5146 34.6311 39.9959 34.5285 40.8759 34.3231ZM42.8999 37.7221H41.9209V28.1081H42.8999V37.7221Z" fill="#D7D8DF"/>
<path fill-rule="evenodd" clip-rule="evenodd" d="M21.4932 12.1797C21.9856 12.1797 22.4733 12.0827 22.9282 11.8942C23.3832 11.7058 23.7966 11.4296 24.1448 11.0813C24.493 10.7331 24.7693 10.3197 24.9577 9.86475C25.1462 9.40978 25.2432 8.92214 25.2432 8.42969C25.2432 7.93723 25.1462 7.4496 24.9577 6.99462C24.7693 6.53965 24.493 6.12626 24.1448 5.77804C23.7966 5.42982 23.3832 5.15359 22.9282 4.96514C22.4733 4.77668 21.9856 4.67969 21.4932 4.67969C20.4986 4.67969 19.5448 5.07478 18.8415 5.77804C18.1383 6.4813 17.7432 7.43513 17.7432 8.42969C17.7432 9.42425 18.1383 10.3781 18.8415 11.0813C19.5448 11.7846 20.4986 12.1797 21.4932 12.1797ZM21.9932 18.3607C21.9932 17.0967 22.7642 15.2257 24.4732 13.8087C23.6302 13.5117 22.6452 13.3257 21.4932 13.3257C16.4532 13.3257 14.4932 16.7637 14.4932 18.3607C14.4932 19.9607 18.6662 20.3847 21.4932 20.3847C21.9642 20.3847 22.4732 20.3717 22.9942 20.3447C22.3332 19.8177 21.9932 19.1577 21.9932 18.3607Z" fill="#D7D8DF" fill-opacity="0.72"/>
<path fill-rule="evenodd" clip-rule="evenodd" d="M30.4932 13.3267C25.4532 13.3267 23.4932 16.7637 23.4932 18.3617C23.4932 19.9597 27.6662 20.3857 30.4932 20.3857C33.3202 20.3857 37.4932 19.9597 37.4932 18.3617C37.4932 16.7637 35.5332 13.3267 30.4932 13.3267ZM30.4932 12.1797C30.9856 12.1797 31.4733 12.0827 31.9282 11.8942C32.3832 11.7058 32.7966 11.4296 33.1448 11.0813C33.493 10.7331 33.7693 10.3197 33.9577 9.86475C34.1462 9.40978 34.2432 8.92214 34.2432 8.42969C34.2432 7.93723 34.1462 7.4496 33.9577 6.99462C33.7693 6.53965 33.493 6.12626 33.1448 5.77804C32.7966 5.42982 32.3832 5.15359 31.9282 4.96514C31.4733 4.77668 30.9856 4.67969 30.4932 4.67969C29.4986 4.67969 28.5448 5.07478 27.8415 5.77804C27.1383 6.4813 26.7432 7.43513 26.7432 8.42969C26.7432 9.42425 27.1383 10.3781 27.8415 11.0813C28.5448 11.7846 29.4986 12.1797 30.4932 12.1797Z" fill="#D7D8DF"/>
</svg>
