<svg width="25" height="25" viewBox="0 0 25 25" fill="none" xmlns="http://www.w3.org/2000/svg">
<path d="M12.8955 23.4462C18.9955 23.4462 23.8955 18.5462 23.8955 12.4462C23.8955 6.34617 18.9955 1.44617 12.8955 1.44617C6.79551 1.44617 1.89551 6.34617 1.89551 12.4462C1.89551 18.5462 6.79551 23.4462 12.8955 23.4462ZM12.8955 17.9462C12.2955 17.9462 11.8955 17.5462 11.8955 16.9462L11.8955 10.3462L9.59551 12.6462C9.19551 13.0462 8.59551 13.0462 8.19551 12.6462C7.79551 12.2462 7.79551 11.6462 8.19551 11.2462L12.1955 7.24617C12.5955 6.84617 13.1955 6.84617 13.5955 7.24617L17.5955 11.2462C17.7955 11.4462 17.8955 11.6462 17.8955 11.9462C17.8955 12.2462 17.7955 12.4462 17.5955 12.6462C17.1955 13.0462 16.5955 13.0462 16.1955 12.6462L13.8955 10.3462L13.8955 16.9462C13.8955 17.4462 13.4955 17.9462 12.8955 17.9462Z" fill="#5FCE80"/>
</svg>
