<svg width="21" height="21" viewBox="0 0 21 21" fill="none" xmlns="http://www.w3.org/2000/svg">
<circle cx="10.2247" cy="10.452" r="10" fill="#545456"/>
<path fill-rule="evenodd" clip-rule="evenodd" d="M11.1057 10.4518L14.041 7.51649C14.0989 7.45862 14.1449 7.3899 14.1762 7.31426C14.2076 7.23863 14.2237 7.15756 14.2238 7.07569C14.2238 6.99381 14.2077 6.91273 14.1764 6.83708C14.1451 6.76142 14.0992 6.69268 14.0413 6.63477C13.9834 6.57686 13.9147 6.53091 13.839 6.49956C13.7634 6.4682 13.6823 6.45205 13.6005 6.45203C13.5186 6.452 13.4375 6.4681 13.3619 6.49942C13.2862 6.53073 13.2175 6.57663 13.1595 6.63451L10.2243 9.57031L7.28846 6.63451C7.17022 6.52407 7.01369 6.46388 6.85192 6.46667C6.69014 6.46945 6.53577 6.53498 6.4214 6.64942C6.30702 6.76386 6.24158 6.91827 6.2389 7.08005C6.23621 7.24182 6.29648 7.39832 6.407 7.51649L9.3428 10.4518L6.407 13.3871C6.32023 13.4744 6.26123 13.5855 6.23743 13.7063C6.21362 13.8271 6.22607 13.9523 6.2732 14.066C6.32033 14.1798 6.40005 14.277 6.50232 14.3456C6.6046 14.4142 6.72486 14.451 6.84799 14.4514C7.00745 14.4514 7.16692 14.3906 7.28846 14.269L10.2243 11.3332L13.1595 14.269C13.2174 14.327 13.286 14.3731 13.3617 14.4045C13.4373 14.4359 13.5184 14.452 13.6003 14.452C13.6822 14.452 13.7633 14.4359 13.8389 14.4045C13.9145 14.3731 13.9832 14.327 14.041 14.269C14.099 14.2112 14.1449 14.1424 14.1763 14.0667C14.2077 13.9911 14.2238 13.91 14.2238 13.8281C14.2238 13.7461 14.2077 13.665 14.1763 13.5894C14.1449 13.5137 14.099 13.4449 14.041 13.3871L11.1057 10.4518Z" fill="white"/>
</svg>
