<svg width="20" height="21" viewBox="0 0 20 21" fill="none" xmlns="http://www.w3.org/2000/svg">
<path fill-rule="evenodd" clip-rule="evenodd" d="M11.6667 16.1423C11.6666 16.3612 11.6235 16.578 11.5396 16.7802C11.4558 16.9824 11.333 17.1662 11.1781 17.3209C11.0233 17.4757 10.8395 17.5985 10.6372 17.6822C10.4349 17.7659 10.2181 17.809 9.99919 17.8089C9.78026 17.8089 9.56349 17.7657 9.36125 17.6819C9.15901 17.598 8.97527 17.4752 8.8205 17.3204C8.66574 17.1655 8.54299 16.9817 8.45926 16.7794C8.37553 16.5771 8.33246 16.3604 8.33252 16.1414C8.33263 15.6993 8.50837 15.2753 8.82109 14.9627C9.13381 14.6502 9.55788 14.4747 10 14.4748C10.4422 14.4749 10.8661 14.6506 11.1787 14.9633C11.4913 15.2761 11.6668 15.7001 11.6667 16.1423ZM11.6667 10.4998C11.6667 10.9418 11.4911 11.3657 11.1785 11.6783C10.866 11.9908 10.442 12.1664 10 12.1664C9.55799 12.1664 9.13407 11.9908 8.82151 11.6783C8.50895 11.3657 8.33335 10.9418 8.33335 10.4998C8.33335 10.0577 8.50895 9.63381 8.82151 9.32125C9.13407 9.00869 9.55799 8.8331 10 8.8331C10.442 8.8331 10.866 9.00869 11.1785 9.32125C11.4911 9.63381 11.6667 10.0577 11.6667 10.4998ZM11.6667 4.8581C11.6666 5.07702 11.6235 5.29379 11.5396 5.49603C11.4558 5.69827 11.333 5.88202 11.1781 6.03678C11.0233 6.19154 10.8395 6.31429 10.6372 6.39802C10.4349 6.48175 10.2181 6.52482 9.99919 6.52476C9.78026 6.52471 9.56349 6.48153 9.36125 6.39771C9.15901 6.31388 8.97527 6.19103 8.8205 6.03619C8.66574 5.88135 8.54299 5.69754 8.45926 5.49526C8.37553 5.29298 8.33246 5.07619 8.33252 4.85726C8.33263 4.41512 8.50837 3.99114 8.82109 3.67858C9.13381 3.36602 9.55788 3.19049 10 3.1906C10.4422 3.19071 10.8661 3.36645 11.1787 3.67917C11.4913 3.99189 11.6668 4.41596 11.6667 4.8581Z" fill="#AEAEAE"/>
</svg>
