<svg width="25" height="25" viewBox="0 0 25 25" fill="none" xmlns="http://www.w3.org/2000/svg">
<path fill-rule="evenodd" clip-rule="evenodd" d="M14.0397 12.952L19.6907 7.30102C19.8022 7.1896 19.8906 7.0573 19.951 6.91169C20.0114 6.76608 20.0425 6.61 20.0425 6.45238C20.0426 6.29475 20.0116 6.13866 19.9513 5.99301C19.891 5.84736 19.8026 5.71502 19.6912 5.60352C19.5798 5.49203 19.4475 5.40358 19.3019 5.34321C19.1563 5.28285 19.0002 5.25176 18.8425 5.25171C18.6849 5.25166 18.5288 5.28266 18.3832 5.34294C18.2375 5.40322 18.1052 5.4916 17.9937 5.60302L12.3427 11.255L6.69069 5.60302C6.46305 5.3904 6.1617 5.27454 5.85025 5.27989C5.5388 5.28525 5.24162 5.41141 5.02142 5.63173C4.80122 5.85206 4.67524 6.14932 4.67007 6.46077C4.6649 6.77223 4.78094 7.07351 4.99369 7.30102L10.6457 12.952L4.99369 18.603C4.82665 18.7712 4.71307 18.9851 4.66724 19.2176C4.62141 19.4502 4.64537 19.6911 4.73611 19.9101C4.82685 20.1291 4.98032 20.3164 5.17722 20.4484C5.37411 20.5804 5.60564 20.6513 5.84269 20.652C6.14969 20.652 6.45669 20.535 6.69069 20.301L12.3427 14.649L17.9937 20.301C18.105 20.4127 18.2372 20.5013 18.3828 20.5617C18.5284 20.6222 18.6845 20.6533 18.8422 20.6533C18.9998 20.6533 19.156 20.6222 19.3016 20.5617C19.4472 20.5013 19.5794 20.4127 19.6907 20.301C19.8023 20.1896 19.8908 20.0572 19.9512 19.9116C20.0116 19.7659 20.0426 19.6097 20.0426 19.452C20.0426 19.2943 20.0116 19.1382 19.9512 18.9925C19.8908 18.8468 19.8023 18.7145 19.6907 18.603L14.0397 12.952Z" fill="#111111"/>
</svg>
