<svg width="220" height="145" viewBox="0 0 220 145" fill="none" xmlns="http://www.w3.org/2000/svg">
<path d="M74.6709 0H120.313C138.909 0 154 15.091 154 33.6872C154 52.2834 138.909 67.3744 120.313 67.3744H68.6197C67.1807 67.3744 66 66.1937 66 64.7547V8.67085C66 3.87421 69.8742 0 74.6709 0Z" fill="#5FCE80"/>
<g filter="url(#filter0_b_582_2552)">
<path d="M121.309 95.7515L69.1732 72.5062C67.2545 71.6207 66 69.6651 66 67.4513V8.34187C66 4.43076 69.8742 1.77415 73.3426 3.32384L125.442 26.5691C127.36 27.4178 128.615 29.4102 128.615 31.5872V90.6966C128.615 94.6446 124.74 97.2643 121.272 95.7146L121.309 95.7515Z" fill="url(#paint0_linear_582_2552)"/>
</g>
<path d="M73.3786 40.8438C73.4893 34.7558 77.7694 31.9885 83.4885 34.2023C89.2075 36.4162 93.3769 42.5042 93.2663 48.5923C93.1556 54.6803 88.8755 57.4845 83.1564 55.2338C77.4373 52.983 73.2679 46.9319 73.3786 40.8438ZM87.5103 43.2053C87.5103 41.8032 86.5878 40.4011 85.2595 39.8845C83.9312 39.3679 82.935 39.9952 82.935 41.3973C82.935 42.7994 83.8574 44.2015 85.1857 44.718C86.514 45.2346 87.5103 44.6074 87.5103 43.1684V43.2053Z" fill="#5FCE80"/>
<path d="M94.9646 56.4887L95.2229 41.5453C95.2598 39.2577 97.4736 39.0732 99.134 41.1026L105.37 48.6665L111.79 46.0468C113.487 45.3457 115.664 47.2275 115.627 49.5151L115.369 64.4585C115.369 66.3403 114.409 66.9675 112.749 66.3403L97.2522 60.326C95.7394 59.7357 94.9277 58.4074 94.9646 56.5625V56.4887ZM103.599 56.5994C103.599 55.1973 102.676 53.7952 101.348 53.2787C100.02 52.7621 99.0233 53.3893 99.0233 54.7914C99.0233 56.1935 99.9457 57.5956 101.274 58.1122C102.602 58.6288 103.599 58.0015 103.599 56.5625V56.5994ZM111.495 59.6619C111.495 58.2598 110.572 56.8577 109.244 56.3411C107.916 55.8246 106.919 56.4518 106.919 57.8539C106.919 59.256 107.842 60.6581 109.17 61.1747C110.498 61.6912 111.495 61.064 111.495 59.625V59.6619Z" fill="#5FCE80"/>
<path d="M22.3312 142.516L13.6312 122.071H9.51319L0.813188 142.516H5.36619L7.22219 137.963H15.8062L17.6622 142.516H22.3312ZM14.2112 134.019H8.81719L11.5142 127.436L14.2112 134.019ZM40.7763 142.516V138.456H30.6553V122.216H26.1893V142.516H40.7763ZM62.1244 136.948V136.89C62.1244 134.164 60.6744 132.801 58.3254 131.902C59.7754 131.09 60.9934 129.814 60.9934 127.523V127.465C60.9934 124.275 58.4414 122.216 54.2944 122.216H44.8694V142.516H54.5264C59.1084 142.516 62.1244 140.66 62.1244 136.948ZM56.5564 128.277C56.5564 129.785 55.3094 130.423 53.3374 130.423H49.2194V126.131H53.6274C55.5124 126.131 56.5564 126.885 56.5564 128.219V128.277ZM57.6874 136.397C57.6874 137.905 56.4984 138.601 54.5264 138.601H49.2194V134.135H54.3814C56.6724 134.135 57.6874 134.976 57.6874 136.339V136.397ZM66.5231 142.516H84.6191C86.9971 142.516 87.7221 141.066 86.5331 139.036L77.6011 123.376C76.4991 121.433 74.6721 121.462 73.5701 123.376L64.6091 139.036C63.4491 141.066 64.1741 142.516 66.5231 142.516ZM73.8021 138.601C72.3231 138.601 71.2211 137.586 71.2211 136.136C71.2211 134.744 72.3231 133.7 73.8021 133.7C75.3101 133.7 76.4121 134.744 76.4121 136.136C76.4121 137.586 75.3101 138.601 73.8021 138.601ZM113.152 129.292V129.234C113.152 125.087 110.223 122.216 105.38 122.216H97.0864V142.516H101.552V136.426H104.945C109.498 136.426 113.152 133.99 113.152 129.292ZM108.628 129.379C108.628 131.119 107.323 132.453 105.09 132.453H101.552V126.247H105.003C107.236 126.247 108.628 127.32 108.628 129.321V129.379ZM137.134 132.366V132.308C137.134 126.537 132.639 121.868 126.375 121.868C120.111 121.868 115.558 126.595 115.558 132.366V132.424C115.558 138.195 120.053 142.864 126.317 142.864C132.581 142.864 137.134 138.137 137.134 132.366ZM132.465 132.424C132.465 135.904 129.971 138.746 126.375 138.746C122.779 138.746 120.227 135.846 120.227 132.366V132.308C120.227 128.828 122.721 125.986 126.317 125.986C129.913 125.986 132.465 128.886 132.465 132.366V132.424ZM158.931 139.239L156.089 136.368C154.494 137.818 153.073 138.746 150.753 138.746C147.273 138.746 144.866 135.846 144.866 132.366V132.308C144.866 128.828 147.331 125.986 150.753 125.986C152.783 125.986 154.378 126.856 155.944 128.277L158.786 125C156.901 123.144 154.61 121.868 150.782 121.868C144.547 121.868 140.197 126.595 140.197 132.366V132.424C140.197 138.253 144.634 142.864 150.608 142.864C154.523 142.864 156.843 141.472 158.931 139.239ZM164.42 142.516H179.094C181.385 142.516 182.255 141.066 181.153 139.065L176.919 131.438L179.906 125.667C180.95 123.666 180.08 122.216 177.818 122.216H164.42C162.535 122.216 161.52 123.231 161.52 125.116V139.616C161.52 141.501 162.535 142.516 164.42 142.516ZM168.567 138.804C167.088 138.804 165.986 137.789 165.986 136.339C165.986 134.947 167.088 133.903 168.567 133.903C170.046 133.903 171.148 134.947 171.148 136.339C171.148 137.789 170.046 138.804 168.567 138.804ZM199.543 142.516V138.543H188.523V134.28H198.093V130.307H188.523V126.189H199.398V122.216H184.086V142.516H199.543ZM218.884 126.334V122.216H202.064V126.334H208.241V142.516H212.707V126.334H218.884Z" fill="#5FCE80"/>
<defs>
<filter id="filter0_b_582_2552" x="56" y="-7.12488" width="82.6147" height="113.292" filterUnits="userSpaceOnUse" color-interpolation-filters="sRGB">
<feFlood flood-opacity="0" result="BackgroundImageFix"/>
<feGaussianBlur in="BackgroundImageFix" stdDeviation="5"/>
<feComposite in2="SourceAlpha" operator="in" result="effect1_backgroundBlur_582_2552"/>
<feBlend mode="normal" in="SourceGraphic" in2="effect1_backgroundBlur_582_2552" result="shape"/>
</filter>
<linearGradient id="paint0_linear_582_2552" x1="124.748" y1="30.9433" x2="34.5818" y2="85.1116" gradientUnits="userSpaceOnUse">
<stop stop-color="#E1FFA9"/>
<stop offset="1" stop-color="#E1FFA9" stop-opacity="0.4"/>
</linearGradient>
</defs>
</svg>
