<svg width="21" height="21" viewBox="0 0 21 21" fill="none" xmlns="http://www.w3.org/2000/svg">
<path fill-rule="evenodd" clip-rule="evenodd" d="M9.30897 18.442C9.86397 18.8087 10.5798 18.8087 11.134 18.442C12.8965 17.2787 16.734 14.4978 18.3873 11.3862C20.5665 7.28118 18.0073 3.18701 14.624 3.18701C12.6956 3.18701 11.5356 4.19451 10.894 5.06034C10.8169 5.16639 10.7158 5.25269 10.599 5.3122C10.4822 5.3717 10.353 5.40272 10.2219 5.40272C10.0908 5.40272 9.96156 5.3717 9.84475 5.3122C9.72794 5.25269 9.62687 5.16639 9.5498 5.06034C8.90813 4.19451 7.74813 3.18701 5.8198 3.18701C2.43647 3.18701 -0.1227 7.28118 2.0573 11.3862C3.70897 14.4978 7.54813 17.2787 9.30897 18.442Z" fill="#FF3B30"/>
</svg>
