<svg width="25" height="25" viewBox="0 0 25 25" fill="none" xmlns="http://www.w3.org/2000/svg">
<path fill-rule="evenodd" clip-rule="evenodd" d="M12.0867 2.37091C6.28767 2.37091 1.58667 6.62391 1.58667 11.8709C1.58667 14.3979 2.68467 16.6879 4.46267 18.3909L3.59467 22.6399C3.57619 22.7308 3.58334 22.825 3.61534 22.9121C3.64733 22.9991 3.70291 23.0755 3.77585 23.1328C3.84879 23.1901 3.93623 23.226 4.02838 23.2364C4.12053 23.2468 4.21377 23.2314 4.29767 23.1919L9.02867 20.9589C10.0249 21.2326 11.0535 21.3712 12.0867 21.3709C17.8857 21.3709 22.5867 17.1179 22.5867 11.8709C22.5867 6.62391 17.8857 2.37091 12.0867 2.37091Z" fill="#B2B7C0" fill-opacity="0.5"/>
</svg>
