<svg width="19" height="19" viewBox="0 0 19 19" fill="none" xmlns="http://www.w3.org/2000/svg">
<path fill-rule="evenodd" clip-rule="evenodd" d="M13.1272 8.31123L8.93921 12.4992C8.79856 12.6398 8.60783 12.7188 8.40896 12.7188C8.21009 12.7188 8.01936 12.6398 7.87871 12.4992L5.31671 9.93648C5.24708 9.86684 5.19184 9.78417 5.15416 9.69319C5.11647 9.60221 5.09707 9.5047 5.09707 9.40623C5.09707 9.30775 5.11647 9.21024 5.15416 9.11926C5.19184 9.02828 5.24708 8.94561 5.31671 8.87598C5.38634 8.80634 5.46901 8.75111 5.55999 8.71342C5.65097 8.67573 5.74848 8.65634 5.84696 8.65634C5.94544 8.65634 6.04295 8.67573 6.13393 8.71342C6.22491 8.75111 6.30758 8.80634 6.37721 8.87598L8.40896 10.9077L12.0667 7.25073C12.1363 7.18109 12.219 7.12586 12.31 7.08817C12.401 7.05049 12.4985 7.03109 12.597 7.03109C12.6954 7.03109 12.7929 7.05049 12.8839 7.08817C12.9749 7.12586 13.0576 7.18109 13.1272 7.25073C13.1968 7.32036 13.2521 7.40303 13.2898 7.49401C13.3275 7.58499 13.3468 7.6825 13.3468 7.78098C13.3468 7.87945 13.3275 7.97696 13.2898 8.06794C13.2521 8.15893 13.1968 8.24159 13.1272 8.31123ZM14.997 2.59998H13.7745V1.84998C13.7745 1.65106 13.6954 1.4603 13.5548 1.31965C13.4141 1.17899 13.2234 1.09998 13.0245 1.09998C12.8255 1.09998 12.6348 1.17899 12.4941 1.31965C12.3535 1.4603 12.2745 1.65106 12.2745 1.84998V2.59998H6.16946V1.84998C6.16946 1.65106 6.09044 1.4603 5.94979 1.31965C5.80914 1.17899 5.61837 1.09998 5.41946 1.09998C5.22055 1.09998 5.02978 1.17899 4.88913 1.31965C4.74848 1.4603 4.66946 1.65106 4.66946 1.84998V2.59998H3.44696C3.04914 2.59998 2.6676 2.75801 2.3863 3.03932C2.105 3.32062 1.94696 3.70215 1.94696 4.09998V15.65C1.94696 16.0478 2.105 16.4293 2.3863 16.7106C2.6676 16.9919 3.04914 17.15 3.44696 17.15H14.997C15.3948 17.15 15.7763 16.9919 16.0576 16.7106C16.3389 16.4293 16.497 16.0478 16.497 15.65V4.09998C16.497 3.70215 16.3389 3.32062 16.0576 3.03932C15.7763 2.75801 15.3948 2.59998 14.997 2.59998Z" fill="#C5C5C5"/>
</svg>
