<svg width="25" height="24" viewBox="0 0 25 24" fill="none" xmlns="http://www.w3.org/2000/svg">
<path fill-rule="evenodd" clip-rule="evenodd" d="M14.2147 18.77C14.2146 19.0327 14.1628 19.2929 14.0622 19.5355C13.9616 19.7782 13.8142 19.9987 13.6284 20.1844C13.4426 20.3702 13.222 20.5175 12.9793 20.6179C12.7366 20.7184 12.4764 20.7701 12.2137 20.77C11.951 20.77 11.6909 20.7181 11.4482 20.6175C11.2055 20.517 10.985 20.3695 10.7993 20.1837C10.6136 19.9979 10.4663 19.7774 10.3658 19.5346C10.2653 19.2919 10.2136 19.0317 10.2137 18.769C10.2138 18.2385 10.4247 17.7297 10.8 17.3546C11.1753 16.9795 11.6841 16.7689 12.2147 16.769C12.7453 16.7692 13.2541 16.98 13.6291 17.3553C14.0042 17.7306 14.2148 18.2395 14.2147 18.77ZM14.2147 11.999C14.2147 12.5295 14.004 13.0382 13.6289 13.4132C13.2539 13.7883 12.7451 13.999 12.2147 13.999C11.6843 13.999 11.1756 13.7883 10.8005 13.4132C10.4254 13.0382 10.2147 12.5295 10.2147 11.999C10.2147 11.4686 10.4254 10.9599 10.8005 10.5848C11.1756 10.2097 11.6843 9.99902 12.2147 9.99902C12.7451 9.99902 13.2539 10.2097 13.6289 10.5848C14.004 10.9599 14.2147 11.4686 14.2147 11.999ZM14.2147 5.22902C14.2146 5.49173 14.1628 5.75185 14.0622 5.99454C13.9616 6.23723 13.8142 6.45772 13.6284 6.64344C13.4426 6.82916 13.222 6.97646 12.9793 7.07693C12.7366 7.1774 12.4764 7.22908 12.2137 7.22902C11.951 7.22895 11.6909 7.17714 11.4482 7.07655C11.2055 6.97595 10.985 6.82854 10.7993 6.64273C10.6136 6.45692 10.4663 6.23635 10.3658 5.99362C10.2653 5.75088 10.2136 5.49073 10.2137 5.22802C10.2138 4.69745 10.4247 4.18867 10.8 3.8136C11.1753 3.43853 11.6841 3.22789 12.2147 3.22802C12.7453 3.22815 13.2541 3.43905 13.6291 3.81431C14.0042 4.18957 14.2148 4.69845 14.2147 5.22902Z" fill="#545456"/>
</svg>
