<svg width="25" height="25" viewBox="0 0 25 25" fill="none" xmlns="http://www.w3.org/2000/svg">
<path fill-rule="evenodd" clip-rule="evenodd" d="M7.28021 21.9485H4.54321C4.278 21.9485 4.02364 21.8431 3.83611 21.6556C3.64857 21.4681 3.54321 21.2137 3.54321 20.9485V14.4225C3.54321 14.1573 3.64857 13.9029 3.83611 13.7154C4.02364 13.5278 4.278 13.4225 4.54321 13.4225H7.28021C7.54543 13.4225 7.79978 13.5278 7.98732 13.7154C8.17486 13.9029 8.28021 14.1573 8.28021 14.4225V20.9485C8.28021 21.2137 8.17486 21.4681 7.98732 21.6556C7.79978 21.8431 7.54543 21.9485 7.28021 21.9485ZM13.9122 21.9485H11.1752C10.91 21.9485 10.6556 21.8431 10.4681 21.6556C10.2806 21.4681 10.1752 21.2137 10.1752 20.9485V9.68549C10.1752 9.42027 10.2806 9.16592 10.4681 8.97838C10.6556 8.79084 10.91 8.68549 11.1752 8.68549H13.9122C14.1774 8.68549 14.4318 8.79084 14.6193 8.97838C14.8069 9.16592 14.9122 9.42027 14.9122 9.68549V20.9485C14.9122 21.2137 14.8069 21.4681 14.6193 21.6556C14.4318 21.8431 14.1774 21.9485 13.9122 21.9485ZM20.5432 21.9485H17.8062C17.541 21.9485 17.2866 21.8431 17.0991 21.6556C16.9116 21.4681 16.8062 21.2137 16.8062 20.9485V4.94849C16.8062 4.68327 16.9116 4.42892 17.0991 4.24138C17.2866 4.05384 17.541 3.94849 17.8062 3.94849H20.5432C20.8084 3.94849 21.0628 4.05384 21.2503 4.24138C21.4379 4.42892 21.5432 4.68327 21.5432 4.94849V20.9485C21.5432 21.2137 21.4379 21.4681 21.2503 21.6556C21.0628 21.8431 20.8084 21.9485 20.5432 21.9485Z" fill="#5FCE80"/>
</svg>
