<svg width="25" height="25" viewBox="0 0 25 25" fill="none" xmlns="http://www.w3.org/2000/svg">
<path fill-rule="evenodd" clip-rule="evenodd" d="M12.2866 18.9168C10.8958 18.9152 9.56236 18.362 8.57889 17.3785C7.59542 16.3951 7.04221 15.0616 7.04062 13.6708C7.04194 12.2798 7.59504 10.9461 8.57854 9.96243C9.56204 8.97874 10.8956 8.4254 12.2866 8.42381C13.6776 8.4254 15.0112 8.97874 15.9947 9.96243C16.9782 10.9461 17.5313 12.2798 17.5326 13.6708C17.531 15.0616 16.9778 16.3951 15.9943 17.3785C15.0109 18.362 13.6775 18.9152 12.2866 18.9168ZM20.3996 5.78581H17.4456L16.3326 3.61681C16.1561 3.27344 15.8884 2.98537 15.5589 2.78425C15.2293 2.58313 14.8507 2.47676 14.4646 2.47681H10.0516C9.65795 2.47676 9.2722 2.58737 8.93837 2.79601C8.60454 3.00465 8.33608 3.30293 8.16362 3.65681L7.12762 5.78581H4.17362C3.8426 5.78568 3.5148 5.85076 3.20895 5.97734C2.90309 6.10393 2.62517 6.28953 2.39106 6.52354C2.15695 6.75756 1.97124 7.03541 1.84454 7.34121C1.71783 7.64702 1.65262 7.97479 1.65262 8.30581V19.9068C1.65262 20.2378 1.71783 20.5656 1.84454 20.8714C1.97124 21.1772 2.15695 21.4551 2.39106 21.6891C2.62517 21.9231 2.90309 22.1087 3.20895 22.2353C3.5148 22.3619 3.8426 22.4269 4.17362 22.4268H20.3996C20.7306 22.4269 21.0584 22.3619 21.3643 22.2353C21.6701 22.1087 21.9481 21.9231 22.1822 21.6891C22.4163 21.4551 22.602 21.1772 22.7287 20.8714C22.8554 20.5656 22.9206 20.2378 22.9206 19.9068V8.30581C22.9206 7.97479 22.8554 7.64702 22.7287 7.34121C22.602 7.03541 22.4163 6.75756 22.1822 6.52354C21.9481 6.28953 21.6701 6.10393 21.3643 5.97734C21.0584 5.85076 20.7306 5.78568 20.3996 5.78581Z" fill="#C5C5C5"/>
<path fill-rule="evenodd" clip-rule="evenodd" d="M12.2866 10.3137C11.397 10.3148 10.5441 10.6687 9.91508 11.2979C9.2861 11.9271 8.9324 12.7801 8.93161 13.6697C8.93214 14.5595 9.28575 15.4126 9.91479 16.0418C10.5438 16.6711 11.3969 17.0249 12.2866 17.0257C13.1763 17.0249 14.0294 16.6711 14.6584 16.0418C15.2875 15.4126 15.6411 14.5595 15.6416 13.6697C15.6408 12.7801 15.2871 11.9271 14.6581 11.2979C14.0292 10.6687 13.1763 10.3148 12.2866 10.3137Z" fill="#C5C5C5"/>
</svg>
