<svg width="25" height="25" viewBox="0 0 25 25" fill="none" xmlns="http://www.w3.org/2000/svg">
<path fill-rule="evenodd" clip-rule="evenodd" d="M7.53113 21.252H4.79413C4.52891 21.252 4.27456 21.1466 4.08702 20.9591C3.89949 20.7715 3.79413 20.5172 3.79413 20.252V13.726C3.79413 13.4607 3.89949 13.2064 4.08702 13.0188C4.27456 12.8313 4.52891 12.726 4.79413 12.726H7.53113C7.79634 12.726 8.0507 12.8313 8.23823 13.0188C8.42577 13.2064 8.53113 13.4607 8.53113 13.726V20.252C8.53113 20.5172 8.42577 20.7715 8.23823 20.9591C8.0507 21.1466 7.79634 21.252 7.53113 21.252ZM14.1631 21.252H11.4261C11.1609 21.252 10.9066 21.1466 10.719 20.9591C10.5315 20.7715 10.4261 20.5172 10.4261 20.252V8.98895C10.4261 8.72374 10.5315 8.46938 10.719 8.28185C10.9066 8.09431 11.1609 7.98895 11.4261 7.98895H14.1631C14.4283 7.98895 14.6827 8.09431 14.8702 8.28185C15.0578 8.46938 15.1631 8.72374 15.1631 8.98895V20.252C15.1631 20.5172 15.0578 20.7715 14.8702 20.9591C14.6827 21.1466 14.4283 21.252 14.1631 21.252ZM20.7941 21.252H18.0571C17.7919 21.252 17.5376 21.1466 17.35 20.9591C17.1625 20.7715 17.0571 20.5172 17.0571 20.252V4.25195C17.0571 3.98674 17.1625 3.73238 17.35 3.54485C17.5376 3.35731 17.7919 3.25195 18.0571 3.25195H20.7941C21.0593 3.25195 21.3137 3.35731 21.5012 3.54485C21.6888 3.73238 21.7941 3.98674 21.7941 4.25195V20.252C21.7941 20.5172 21.6888 20.7715 21.5012 20.9591C21.3137 21.1466 21.0593 21.252 20.7941 21.252Z" fill="#D7D8DF"/>
</svg>
