<svg width="21" height="21" viewBox="0 0 21 21" fill="none" xmlns="http://www.w3.org/2000/svg">
<path fill-rule="evenodd" clip-rule="evenodd" d="M17.6371 13.2372C17.6371 13.5247 17.5246 13.8122 17.3121 14.0372C17.1012 14.2471 16.8158 14.365 16.5183 14.365C16.2208 14.365 15.9354 14.2471 15.7246 14.0372L10.8871 9.19973L6.06205 14.0372C5.85122 14.2471 5.56582 14.365 5.2683 14.365C4.97079 14.365 4.68539 14.2471 4.47455 14.0372C4.26464 13.8264 4.14679 13.541 4.14679 13.2435C4.14679 12.946 4.26464 12.6606 4.47455 12.4497L10.0996 6.82473C10.3104 6.61481 10.5958 6.49696 10.8933 6.49696C11.1908 6.49696 11.4762 6.61481 11.6871 6.82473L17.3121 12.4497C17.5246 12.6622 17.6371 12.9497 17.6371 13.2372Z" fill="#545456"/>
</svg>
