<svg width="25" height="25" viewBox="0 0 25 25" fill="none" xmlns="http://www.w3.org/2000/svg">
<path fill-rule="evenodd" clip-rule="evenodd" d="M10.2221 5.39075C10.2221 5.12804 10.2739 4.86791 10.3745 4.62523C10.4751 4.38254 10.6225 4.16204 10.8083 3.97633C10.9941 3.79061 11.2147 3.64331 11.4575 3.54283C11.7002 3.44236 11.9603 3.39068 12.2231 3.39075C12.4858 3.39081 12.7459 3.44262 12.9886 3.54322C13.2313 3.64381 13.4518 3.79122 13.6375 3.97703C13.8232 4.16284 13.9705 4.38341 14.071 4.62615C14.1714 4.86889 14.2231 5.12904 14.2231 5.39175C14.2229 5.92231 14.012 6.43109 13.6368 6.80617C13.2615 7.18124 12.7526 7.39188 12.2221 7.39175C11.6915 7.39161 11.1827 7.18072 10.8076 6.80546C10.4326 6.4302 10.2219 5.92131 10.2221 5.39075ZM10.2221 12.1617C10.2221 11.6313 10.4328 11.1226 10.8078 10.7475C11.1829 10.3725 11.6916 10.1617 12.2221 10.1617C12.7525 10.1617 13.2612 10.3725 13.6363 10.7475C14.0113 11.1226 14.2221 11.6313 14.2221 12.1617C14.2221 12.6922 14.0113 13.2009 13.6363 13.576C13.2612 13.951 12.7525 14.1617 12.2221 14.1617C11.6916 14.1617 11.1829 13.951 10.8078 13.576C10.4328 13.2009 10.2221 12.6922 10.2221 12.1617ZM10.2221 18.9317C10.2221 18.669 10.2739 18.4089 10.3745 18.1662C10.4751 17.9235 10.6225 17.703 10.8083 17.5173C10.9941 17.3316 11.2147 17.1843 11.4575 17.0838C11.7002 16.9834 11.9603 16.9317 12.2231 16.9317C12.4858 16.9318 12.7459 16.9836 12.9886 17.0842C13.2313 17.1848 13.4518 17.3322 13.6375 17.518C13.8232 17.7038 13.9705 17.9244 14.071 18.1672C14.1714 18.4099 14.2231 18.67 14.2231 18.9327C14.2229 19.4633 14.012 19.9721 13.6368 20.3472C13.2615 20.7222 12.7526 20.9329 12.2221 20.9327C11.6915 20.9326 11.1827 20.7217 10.8076 20.3465C10.4326 19.9712 10.2219 19.4623 10.2221 18.9317Z" fill="white"/>
</svg>
