<svg width="21" height="21" viewBox="0 0 21 21" fill="none" xmlns="http://www.w3.org/2000/svg">
<path fill-rule="evenodd" clip-rule="evenodd" d="M10.6213 2.25684C5.78884 2.25684 1.87134 5.801 1.87134 10.1735C1.87134 12.2793 2.78634 14.1877 4.268 15.6068L3.54467 19.1477C3.52927 19.2234 3.53523 19.3019 3.56189 19.3745C3.58856 19.447 3.63487 19.5107 3.69566 19.5584C3.75644 19.6062 3.8293 19.636 3.90609 19.6447C3.98289 19.6534 4.06059 19.6406 4.1305 19.6077L8.073 17.7468C8.90323 17.9749 9.76035 18.0904 10.6213 18.0902C15.4538 18.0902 19.3713 14.546 19.3713 10.1735C19.3713 5.801 15.4538 2.25684 10.6213 2.25684Z" fill="#AEAEAE"/>
<path fill-rule="evenodd" clip-rule="evenodd" d="M6.76146 11.2596C6.6117 11.2595 6.46341 11.23 6.32507 11.1727C6.18672 11.1153 6.06102 11.0313 5.95515 10.9254C5.84928 10.8194 5.76531 10.6937 5.70804 10.5553C5.65076 10.4169 5.6213 10.2686 5.62134 10.1189C5.62138 9.96912 5.65091 9.82083 5.70826 9.68249C5.7656 9.54414 5.84963 9.41845 5.95556 9.31258C6.06148 9.20671 6.18722 9.12274 6.32559 9.06546C6.46397 9.00818 6.61227 8.97872 6.76203 8.97876C7.06448 8.97884 7.35452 9.09906 7.56833 9.31298C7.78215 9.5269 7.90223 9.817 7.90215 10.1195C7.90207 10.4219 7.78185 10.7119 7.56793 10.9258C7.35401 11.1396 7.06391 11.2596 6.76146 11.2596ZM10.6213 11.2596C10.319 11.2596 10.029 11.1395 9.81515 10.9256C9.60134 10.7118 9.48122 10.4218 9.48122 10.1195C9.48122 9.81707 9.60134 9.52708 9.81515 9.31326C10.029 9.09945 10.319 8.97933 10.6213 8.97933C10.9237 8.97933 11.2137 9.09945 11.4275 9.31326C11.6413 9.52708 11.7615 9.81707 11.7615 10.1195C11.7615 10.4218 11.6413 10.7118 11.4275 10.9256C11.2137 11.1395 10.9237 11.2596 10.6213 11.2596ZM14.4806 11.2596C14.3309 11.2595 14.1826 11.23 14.0443 11.1727C13.9059 11.1153 13.7802 11.0313 13.6743 10.9254C13.5685 10.8194 13.4845 10.6937 13.4272 10.5553C13.3699 10.4169 13.3405 10.2686 13.3405 10.1189C13.3406 9.96912 13.3701 9.82083 13.4274 9.68249C13.4848 9.54414 13.5688 9.41845 13.6747 9.31258C13.7807 9.20671 13.9064 9.12274 14.0448 9.06546C14.1832 9.00818 14.3315 8.97872 14.4812 8.97876C14.7837 8.97884 15.0737 9.09906 15.2875 9.31298C15.5013 9.5269 15.6214 9.817 15.6213 10.1195C15.6213 10.4219 15.501 10.7119 15.2871 10.9258C15.0732 11.1396 14.7831 11.2596 14.4806 11.2596Z" fill="white"/>
</svg>
