<svg width="25" height="25" viewBox="0 0 25 25" fill="none" xmlns="http://www.w3.org/2000/svg">
<path fill-rule="evenodd" clip-rule="evenodd" d="M17.7238 7.17429C17.7238 7.81711 17.5973 8.45365 17.3514 9.04756C17.1054 9.64147 16.7449 10.1811 16.2904 10.6357C15.8359 11.0903 15.2963 11.4509 14.7025 11.697C14.1086 11.943 13.4721 12.0697 12.8293 12.0698C11.531 12.0699 10.2859 11.5543 9.36785 10.6364C8.44976 9.71853 7.93391 8.47352 7.93378 7.17529C7.93371 6.53246 8.06026 5.89593 8.3062 5.30201C8.55213 4.7081 8.91264 4.16844 9.36714 3.71385C10.285 2.79577 11.53 2.27992 12.8283 2.27979C14.1265 2.27965 15.3716 2.79525 16.2897 3.71314C17.2078 4.63104 17.7236 5.87605 17.7238 7.17429ZM12.8288 13.5673C5.77978 13.5673 3.03778 18.0533 3.03778 20.1403C3.03778 22.2263 8.87478 22.7823 12.8288 22.7823C16.7828 22.7823 22.6198 22.2263 22.6198 20.1403C22.6198 18.0533 19.8778 13.5673 12.8288 13.5673Z" fill="#D9D9D9"/>
</svg>
