<svg width="25" height="25" viewBox="0 0 25 25" fill="none" xmlns="http://www.w3.org/2000/svg">
<path d="M21.9638 21.103L17.3568 16.496C18.4418 15.058 19.0928 13.276 19.0928 11.34C19.0928 6.60398 15.2388 2.75098 10.5038 2.75098C5.76779 2.75198 1.91479 6.60498 1.91479 11.341C1.91479 16.076 5.76779 19.93 10.5038 19.93C12.4388 19.93 14.2218 19.279 15.6598 18.194L20.2668 22.801C20.5008 23.035 20.8078 23.152 21.1148 23.152C21.4218 23.152 21.7288 23.035 21.9638 22.8C22.4318 22.332 22.4318 21.572 21.9638 21.103ZM4.31479 11.341C4.31479 7.92798 7.09079 5.15198 10.5038 5.15198C13.9158 5.15198 16.6918 7.92798 16.6918 11.34C16.6918 14.752 13.9158 17.528 10.5038 17.528C7.09079 17.529 4.31479 14.753 4.31479 11.341Z" fill="#AEAEAE"/>
</svg>
