<svg width="25" height="25" viewBox="0 0 25 25" fill="none" xmlns="http://www.w3.org/2000/svg">
<path fill-rule="evenodd" clip-rule="evenodd" d="M15.6792 20.1162C15.5019 20.1163 15.3264 20.0814 15.1627 20.0134C14.999 19.9454 14.8503 19.8458 14.7252 19.7202L7.97521 12.9702C7.84981 12.8448 7.75033 12.696 7.68246 12.5322C7.61458 12.3684 7.57965 12.1928 7.57965 12.0155C7.57965 11.8381 7.61458 11.6626 7.68246 11.4987C7.75033 11.3349 7.84981 11.1861 7.97521 11.0607L14.7252 4.31071C14.8496 4.18099 14.9986 4.0774 15.1636 4.00603C15.3285 3.93466 15.506 3.89695 15.6857 3.89509C15.8654 3.89324 16.0437 3.92728 16.2101 3.99523C16.3765 4.06318 16.5276 4.16367 16.6546 4.2908C16.7817 4.41793 16.882 4.56915 16.9499 4.73558C17.0177 4.90201 17.0516 5.0803 17.0496 5.26001C17.0476 5.43972 17.0097 5.61722 16.9382 5.7821C16.8667 5.94699 16.763 6.09593 16.6332 6.22021L10.8387 12.0162L16.6332 17.8107C16.8223 17.9994 16.9511 18.24 17.0034 18.502C17.0557 18.7639 17.0291 19.0355 16.9269 19.2824C16.8248 19.5292 16.6517 19.7402 16.4296 19.8886C16.2075 20.0371 15.9464 20.1163 15.6792 20.1162Z" fill="#111111"/>
</svg>
