<svg width="51" height="41" viewBox="0 0 51 41" fill="none" xmlns="http://www.w3.org/2000/svg">
<path d="M11.9318 29.3926C11.9318 30.4999 11.7521 31.4973 11.3928 32.3846C11.0335 33.2646 10.5385 34.0163 9.90781 34.6396C9.28447 35.2556 8.50714 35.8056 7.57581 36.2896L6.94881 35.5746C8.55481 34.8339 9.68781 33.7963 10.3478 32.4616L7.26781 32.7586L7.09181 31.9006L10.6668 31.6586C10.7988 31.2333 10.8831 30.7529 10.9198 30.2176H7.47681V29.3926H11.9318ZM13.9558 32.9676H11.8878V32.1426H13.9558V28.3806H14.9238V37.9946H13.9558V32.9676ZM24.1554 32.7696H17.6654V28.9526H24.1554V32.7696ZM19.7114 38.0056H18.7434V34.7276H16.5654V33.9356H25.2444V34.7276H23.0334V38.0056H22.0654V34.7276H19.7114V38.0056ZM23.1874 31.9666V29.7336H18.6444V31.9666H23.1874ZM33.959 28.3806V37.9946H32.991V28.3806H33.959ZM32.089 34.3646L32.21 35.1566C31.6893 35.2886 30.9706 35.3949 30.054 35.4756C29.1446 35.5563 28.3123 35.6039 27.557 35.6186H26.655V29.3816H27.634V34.7826C28.3233 34.7826 29.1043 34.7459 29.977 34.6726C30.857 34.5919 31.561 34.4893 32.089 34.3646ZM41.4965 34.5956L41.6395 35.3876C40.6422 35.5856 39.1169 35.6956 37.0635 35.7176C36.8509 35.7249 36.5245 35.7286 36.0845 35.7286V29.2716H40.6165V30.0526H37.0525V31.9886H40.4295V32.7806H37.0525V34.9036C39.1352 34.9036 40.6165 34.8009 41.4965 34.5956ZM43.5205 37.9946H42.5415V28.3806H43.5205V37.9946Z" fill="#5FCE80"/>
<path fill-rule="evenodd" clip-rule="evenodd" d="M22.1138 12.4521C22.6062 12.4521 23.0939 12.3552 23.5488 12.1667C24.0038 11.9782 24.4172 11.702 24.7654 11.3538C25.1136 11.0056 25.3899 10.5922 25.5783 10.1372C25.7668 9.68224 25.8638 9.19461 25.8638 8.70215C25.8638 8.20969 25.7668 7.72206 25.5783 7.26709C25.3899 6.81211 25.1136 6.39872 24.7654 6.0505C24.4172 5.70228 24.0038 5.42606 23.5488 5.2376C23.0939 5.04915 22.6062 4.95215 22.1138 4.95215C21.1192 4.95215 20.1654 5.34724 19.4621 6.0505C18.7589 6.75376 18.3638 7.70759 18.3638 8.70215C18.3638 9.69671 18.7589 10.6505 19.4621 11.3538C20.1654 12.0571 21.1192 12.4521 22.1138 12.4521ZM22.6138 18.6331C22.6138 17.3691 23.3848 15.4981 25.0938 14.0811C24.2508 13.7841 23.2658 13.5981 22.1138 13.5981C17.0738 13.5981 15.1138 17.0361 15.1138 18.6331C15.1138 20.2331 19.2868 20.6571 22.1138 20.6571C22.5848 20.6571 23.0938 20.6441 23.6148 20.6171C22.9538 20.0901 22.6138 19.4301 22.6138 18.6331Z" fill="#5FCE80" fill-opacity="0.72"/>
<path fill-rule="evenodd" clip-rule="evenodd" d="M31.1138 13.5991C26.0738 13.5991 24.1138 17.0361 24.1138 18.6341C24.1138 20.2321 28.2868 20.6581 31.1138 20.6581C33.9408 20.6581 38.1138 20.2321 38.1138 18.6341C38.1138 17.0361 36.1538 13.5991 31.1138 13.5991ZM31.1138 12.4521C31.6062 12.4521 32.0939 12.3552 32.5488 12.1667C33.0038 11.9782 33.4172 11.702 33.7654 11.3538C34.1136 11.0056 34.3899 10.5922 34.5783 10.1372C34.7668 9.68224 34.8638 9.19461 34.8638 8.70215C34.8638 8.20969 34.7668 7.72206 34.5783 7.26709C34.3899 6.81211 34.1136 6.39872 33.7654 6.0505C33.4172 5.70228 33.0038 5.42606 32.5488 5.2376C32.0939 5.04915 31.6062 4.95215 31.1138 4.95215C30.1192 4.95215 29.1654 5.34724 28.4621 6.0505C27.7589 6.75376 27.3638 7.70759 27.3638 8.70215C27.3638 9.69671 27.7589 10.6505 28.4621 11.3538C29.1654 12.0571 30.1192 12.4521 31.1138 12.4521Z" fill="#5FCE80"/>
</svg>
