<svg width="20" height="20" viewBox="0 0 20 20" fill="none" xmlns="http://www.w3.org/2000/svg">
<path d="M10.6365 17.0726L10.636 17.0729C10.2493 17.3288 9.75054 17.329 9.36256 17.0727C8.49375 16.4987 7.1146 15.5271 5.75195 14.3185C4.38368 13.105 3.06191 11.6785 2.27693 10.1996L2.27688 10.1995C0.232705 6.35028 2.67558 2.73486 5.59778 2.73486C7.32064 2.73486 8.34615 3.62405 8.9249 4.40432C9.04815 4.57319 9.20946 4.71066 9.39577 4.80557C9.58288 4.90089 9.78988 4.95058 9.99987 4.95058C10.2099 4.95058 10.4169 4.90089 10.604 4.80557C10.7903 4.71066 10.9516 4.57321 11.0748 4.40436C11.6535 3.62409 12.6791 2.73486 14.402 2.73486C17.3242 2.73486 19.7671 6.35033 17.7237 10.1996C16.9378 11.6785 15.616 13.105 14.2478 14.3185C12.8851 15.5271 11.506 16.4987 10.6365 17.0726Z" stroke="#AEAEAE"/>
</svg>
