<svg width="25" height="41" viewBox="0 0 25 41" fill="none" xmlns="http://www.w3.org/2000/svg">
<path d="M15.2719 32.5332C15.2719 33.3252 14.4469 33.7616 12.7969 33.8422V34.4472H16.6689V35.2392H7.9899V34.4472H11.8179V33.8422C10.1972 33.7542 9.3869 33.3179 9.3869 32.5332C9.3869 32.1152 9.6399 31.7962 10.1459 31.5762C10.6519 31.3489 11.3816 31.2352 12.3349 31.2352C13.2882 31.2352 14.0142 31.3489 14.5129 31.5762C15.0189 31.8036 15.2719 32.1226 15.2719 32.5332ZM15.5359 38.4842H9.1229V35.7342H15.5359V38.4842ZM16.1299 30.9272H8.5179V30.1462H16.1299V30.9272ZM14.5569 37.7252V36.4932H10.0909V37.7252H14.5569ZM14.2709 32.5332C14.2709 32.3499 14.0949 32.2069 13.7429 32.1042C13.3982 32.0016 12.9289 31.9502 12.3349 31.9502C11.7336 31.9502 11.2606 32.0016 10.9159 32.1042C10.5712 32.2069 10.3989 32.3499 10.3989 32.5332C10.3989 32.7239 10.5712 32.8742 10.9159 32.9842C11.2606 33.0869 11.7336 33.1382 12.3349 33.1382C12.9289 33.1382 13.3982 33.0869 13.7429 32.9842C14.0949 32.8742 14.2709 32.7239 14.2709 32.5332ZM14.0179 29.7172H10.6739V28.9472H14.0179V29.7172Z" fill="#D7D8DF"/>
<path fill-rule="evenodd" clip-rule="evenodd" d="M1.3916 10.844V20.4509C1.3916 21.6088 1.3916 22.1877 1.62407 22.6268C1.81167 22.9811 2.10143 23.2709 2.45574 23.4585C2.8948 23.6909 3.47373 23.6909 4.6316 23.6909H20.0298C21.1877 23.6909 21.7666 23.6909 22.2057 23.4585C22.56 23.2709 22.8498 22.9811 23.0374 22.6268C23.2698 22.1877 23.2698 21.6088 23.2698 20.4509V10.8814C23.2698 10.4267 23.2698 10.1993 23.2083 9.99113C23.1582 9.82174 23.0786 9.66252 22.9731 9.52082C22.8435 9.34666 22.6616 9.21025 22.2978 8.93741L13.0476 1.9997C12.6831 1.72638 12.5009 1.58972 12.3005 1.54134C12.1381 1.50215 11.9686 1.50426 11.8072 1.54746C11.6081 1.60079 11.4293 1.74192 11.0717 2.02419L2.31587 8.93673L2.31586 8.93673C1.96953 9.21015 1.79636 9.34686 1.67317 9.51843C1.57291 9.65806 1.49739 9.81389 1.44993 9.9791C1.3916 10.1821 1.3916 10.4027 1.3916 10.844ZM10.3673 23.6905V17.7668C10.3673 17.5782 10.4722 17.4039 10.6477 17.3344C11.4796 17.0049 13.056 16.6888 14.5757 17.3299C14.7495 17.4032 14.8552 17.5782 14.8552 17.7668V23.6907L10.3673 23.6905Z" fill="#D7D8DF"/>
</svg>
