<svg width="21" height="21" viewBox="0 0 21 21" fill="none" xmlns="http://www.w3.org/2000/svg">
<path fill-rule="evenodd" clip-rule="evenodd" d="M10.7508 4.61L3.19908 12.1617L2.16908 16.0033L1.49158 18.5342C1.47277 18.6049 1.47286 18.6793 1.49186 18.7499C1.51085 18.8206 1.54808 18.885 1.59982 18.9368C1.65156 18.9885 1.71598 19.0257 1.78664 19.0447C1.8573 19.0637 1.93171 19.0638 2.00242 19.045L4.53158 18.3667L8.37408 17.3367H8.37492L15.9266 9.785L10.7516 4.61H10.7508ZM19.0491 5.485L15.0524 1.4875C14.9751 1.41004 14.8833 1.3486 14.7822 1.30667C14.6811 1.26474 14.5727 1.24316 14.4633 1.24316C14.3538 1.24316 14.2454 1.26474 14.1443 1.30667C14.0432 1.3486 13.9514 1.41004 13.8741 1.4875L11.8116 3.54917L16.9874 8.725L19.0491 6.6625C19.1265 6.58518 19.188 6.49334 19.2299 6.39224C19.2718 6.29115 19.2934 6.18278 19.2934 6.07333C19.2934 5.96389 19.2718 5.85552 19.2299 5.75442C19.188 5.65333 19.1265 5.56149 19.0491 5.48417" fill="#545456"/>
</svg>
