<svg width="74" height="51" viewBox="0 0 74 51" fill="none" xmlns="http://www.w3.org/2000/svg">
<line x1="36.6723" y1="7.72211" x2="36.6723" y2="21.8899" stroke="#D7D8DF" stroke-width="1.5" stroke-linecap="round"/>
<line x1="43.8059" y1="14.8572" x2="29.6381" y2="14.8572" stroke="#D7D8DF" stroke-width="1.5" stroke-linecap="round"/>
<path d="M4.16273 41.161H2.94773V45.601H12.3677V44.596H4.16273V41.161ZM11.6327 38.656C11.9777 36.826 11.9777 35.461 11.9777 34.306V33.256H2.88773V34.261H10.7627V34.306C10.7627 35.476 10.7627 36.796 10.3877 38.656H1.32773V39.646H13.5527V38.656H11.6327ZM24.5616 37.471H17.8866V34.201H24.5616V37.471ZM25.7766 33.211H16.6866V38.446H25.7766V33.211ZM27.3366 40.276H15.1266V41.266H20.5866V45.901H21.8166V41.266H27.3366V40.276ZM33.7404 34.861H36.9054V33.841H29.3904V34.861H32.5104V36.571C32.5104 38.896 30.8754 41.431 28.9404 42.346L29.6604 43.336C31.1904 42.556 32.5104 40.861 33.1254 38.896C33.7704 40.741 35.0904 42.286 36.6504 43.006L37.3404 42.016C35.3604 41.176 33.7404 38.851 33.7404 36.571V34.861ZM38.7204 32.476V45.916H39.9504V32.476H38.7204ZM47.3087 39.571C49.3937 39.256 51.3287 38.221 52.1837 36.766C53.0387 38.221 54.9587 39.256 57.0437 39.571L57.4787 38.581C55.0787 38.251 52.7987 36.766 52.7987 35.116H57.0887V34.126H52.7987V32.461H51.5687V34.126H47.2787V35.116H51.5537C51.5537 36.781 49.2887 38.251 46.8587 38.581L47.3087 39.571ZM58.2737 40.591H46.1087V41.596H51.5687V45.931H52.7987V41.596H58.2737V40.591ZM60.6125 33.901V34.921H65.5475C65.2625 38.101 63.4175 40.681 59.9825 42.406L60.6575 43.366C65.0075 41.191 66.7625 37.726 66.7625 33.901H60.6125ZM72.4025 37.921H70.2425V32.461H69.0125V45.916H70.2425V38.941H72.4025V37.921Z" fill="#D7D8DF"/>
</svg>
