<svg width="11" height="11" viewBox="0 0 11 11" fill="none" xmlns="http://www.w3.org/2000/svg">
<path fill-rule="evenodd" clip-rule="evenodd" d="M7.08826 5.49969L10.7574 1.83059C10.8298 1.75824 10.8872 1.67234 10.9264 1.5778C10.9656 1.48326 10.9858 1.38192 10.9858 1.27957C10.9858 1.17723 10.9657 1.07588 10.9266 0.981314C10.8874 0.886748 10.83 0.800817 10.7577 0.728427C10.6853 0.656037 10.5994 0.598605 10.5049 0.559412C10.4104 0.520218 10.309 0.50003 10.2067 0.5C10.1043 0.49997 10.003 0.520098 9.90842 0.559236C9.81385 0.598374 9.72792 0.655755 9.65553 0.728102L5.98643 4.39785L2.31668 0.728102C2.16887 0.590049 1.97321 0.514823 1.77099 0.518301C1.56878 0.521779 1.37582 0.603689 1.23285 0.746743C1.08988 0.889797 1.00808 1.0828 1.00472 1.28502C1.00136 1.48725 1.0767 1.68286 1.21485 1.83059L4.8846 5.49969L1.21485 9.16879C1.10639 9.278 1.03264 9.41684 1.00289 9.56785C0.973127 9.71885 0.988685 9.87529 1.0476 10.0175C1.10652 10.1597 1.20616 10.2813 1.334 10.367C1.46184 10.4527 1.61217 10.4987 1.76609 10.4992C1.96542 10.4992 2.16475 10.4232 2.31668 10.2713L5.98643 6.60152L9.65553 10.2713C9.72779 10.3438 9.81366 10.4013 9.90819 10.4405C10.0027 10.4798 10.1041 10.5 10.2064 10.5C10.3088 10.5 10.4102 10.4798 10.5047 10.4405C10.5992 10.4013 10.6851 10.3438 10.7574 10.2713C10.8298 10.1989 10.8873 10.113 10.9265 10.0184C10.9657 9.92381 10.9859 9.82242 10.9859 9.72003C10.9859 9.61764 10.9657 9.51625 10.9265 9.42167C10.8873 9.32708 10.8298 9.24115 10.7574 9.16879L7.08826 5.49969Z" fill="#D7D8DF"/>
</svg>
