<svg width="25" height="25" viewBox="0 0 25 25" fill="none" xmlns="http://www.w3.org/2000/svg">
<path fill-rule="evenodd" clip-rule="evenodd" d="M13.222 5.61393L4.16003 14.6759L2.92403 19.2859L2.11103 22.3229C2.08845 22.4078 2.08856 22.4971 2.11136 22.5819C2.13415 22.6666 2.17883 22.744 2.24092 22.806C2.303 22.8681 2.38031 22.9128 2.4651 22.9356C2.54989 22.9584 2.63918 22.9585 2.72403 22.9359L5.75903 22.1219L10.37 20.8859H10.371L19.433 11.8239L13.223 5.61393H13.222ZM23.18 6.66393L18.384 1.86693C18.2912 1.77399 18.181 1.70025 18.0597 1.64994C17.9384 1.59963 17.8084 1.57373 17.677 1.57373C17.5457 1.57373 17.4157 1.59963 17.2943 1.64994C17.173 1.70025 17.0628 1.77399 16.97 1.86693L14.495 4.34093L20.706 10.5519L23.18 8.07693C23.273 7.98414 23.3467 7.87394 23.397 7.75262C23.4473 7.63131 23.4732 7.50127 23.4732 7.36993C23.4732 7.2386 23.4473 7.10855 23.397 6.98724C23.3467 6.86592 23.273 6.75572 23.18 6.66293" fill="white"/>
</svg>
