<svg width="16" height="16" viewBox="0 0 16 16" fill="none" xmlns="http://www.w3.org/2000/svg">
<path fill-rule="evenodd" clip-rule="evenodd" d="M8.14145 4.07575L2.4777 9.7395L1.7052 12.6208L1.19707 14.5189C1.18296 14.5719 1.18303 14.6277 1.19728 14.6807C1.21152 14.7337 1.23945 14.782 1.27825 14.8208C1.31705 14.8596 1.36537 14.8876 1.41837 14.9018C1.47136 14.916 1.52717 14.9161 1.5802 14.902L3.47707 14.3933L6.35895 13.6208H6.35957L12.0233 7.957L8.14207 4.07575H8.14145ZM14.3652 4.732L11.3677 1.73388C11.3097 1.67579 11.2408 1.6297 11.165 1.59826C11.0892 1.56681 11.0079 1.55063 10.9258 1.55063C10.8437 1.55063 10.7625 1.56681 10.6866 1.59826C10.6108 1.6297 10.5419 1.67579 10.4839 1.73388L8.93707 3.28013L12.8189 7.162L14.3652 5.61513C14.4233 5.55714 14.4694 5.48826 14.5008 5.41244C14.5323 5.33662 14.5484 5.25534 14.5484 5.17325C14.5484 5.09117 14.5323 5.00989 14.5008 4.93407C14.4694 4.85825 14.4233 4.78937 14.3652 4.73138" fill="#545456"/>
</svg>
