<svg width="21" height="21" viewBox="0 0 21 21" fill="none" xmlns="http://www.w3.org/2000/svg">
<path fill-rule="evenodd" clip-rule="evenodd" d="M11.0026 5.15858L3.45088 12.7102L2.42088 16.5519L1.74338 19.0828C1.72457 19.1535 1.72466 19.2279 1.74366 19.2985C1.76265 19.3692 1.79989 19.4336 1.85162 19.4853C1.90336 19.5371 1.96779 19.5743 2.03844 19.5933C2.1091 19.6123 2.18351 19.6124 2.25422 19.5936L4.78338 18.9152L8.62588 17.8853H8.62672L16.1784 10.3336L11.0034 5.15858H11.0026ZM19.3009 6.03358L15.3042 2.03608C15.2269 1.95863 15.1351 1.89718 15.034 1.85525C14.9329 1.81333 14.8245 1.79175 14.7151 1.79175C14.6056 1.79175 14.4972 1.81333 14.3961 1.85525C14.295 1.89718 14.2032 1.95863 14.1259 2.03608L12.0634 4.09775L17.2392 9.27358L19.3009 7.21108C19.3783 7.13376 19.4398 7.04192 19.4817 6.94083C19.5236 6.83973 19.5452 6.73136 19.5452 6.62192C19.5452 6.51247 19.5236 6.4041 19.4817 6.303C19.4398 6.20191 19.3783 6.11007 19.3009 6.03275" fill="#545456"/>
</svg>
