<svg width="21" height="21" viewBox="0 0 21 21" fill="none" xmlns="http://www.w3.org/2000/svg">
<g clip-path="url(#clip0_761_3724)">
<path fill-rule="evenodd" clip-rule="evenodd" d="M20.0298 10.6544C20.0298 11.1606 19.6194 11.571 19.1131 11.571L9.33895 11.571C8.83269 11.571 8.42229 11.1606 8.42229 10.6544C8.42229 10.1481 8.83269 9.73771 9.33895 9.73771L19.1131 9.73771C19.6194 9.73771 20.0298 10.1481 20.0298 10.6544Z" fill="#545456"/>
<path fill-rule="evenodd" clip-rule="evenodd" d="M14.104 15.6625C13.7461 15.3045 13.7462 14.7241 14.1042 14.3662L17.8166 10.6552L14.1041 6.94267C13.7461 6.58469 13.7461 6.00428 14.1041 5.6463C14.4621 5.28832 15.0425 5.28832 15.4005 5.6463L19.7613 10.0071C19.9332 10.1791 20.0298 10.4123 20.0298 10.6554C20.0298 10.8986 19.9331 11.1317 19.7612 11.3036L15.4003 15.6628C15.0423 16.0207 14.4619 16.0206 14.104 15.6625Z" fill="#545456"/>
<path fill-rule="evenodd" clip-rule="evenodd" d="M9.08236 16.7311C9.36967 16.7311 9.64522 16.617 9.84839 16.4138C10.0516 16.2107 10.1657 15.9351 10.1657 15.6478L10.1657 14.2361C10.1657 13.7299 10.5761 13.3195 11.0824 13.3195C11.5886 13.3195 11.999 13.7299 11.999 14.2361L11.999 15.6478C11.999 16.4213 11.6917 17.1632 11.1448 17.7102C10.5978 18.2572 9.8559 18.5645 9.08236 18.5645L5.37569 18.5645C4.60214 18.5645 3.86028 18.2572 3.31329 17.7102C2.76631 17.1632 2.45902 16.4213 2.45902 15.6478L2.45903 5.66029C2.45935 4.88695 2.76678 4.14501 3.31373 3.5983C3.86067 3.05158 4.60235 2.74445 5.37569 2.74445L9.08236 2.74445C9.85591 2.74445 10.5978 3.05175 11.1448 3.59873C11.6917 4.14571 11.999 4.88757 11.999 5.66112L11.999 7.06945C11.999 7.57572 11.5886 7.98612 11.0824 7.98612C10.5761 7.98612 10.1657 7.57572 10.1657 7.06945L10.1657 5.66112C10.1657 5.3738 10.0516 5.09825 9.84839 4.89509C9.64522 4.69192 9.36967 4.57779 9.08236 4.57779L5.37569 4.57779C5.08845 4.57779 4.81297 4.69186 4.60982 4.89493C4.40667 5.098 4.29248 5.37343 4.29236 5.66067L4.29236 15.6478C4.29236 15.9351 4.40649 16.2107 4.60966 16.4138C4.81282 16.617 5.08837 16.7311 5.37569 16.7311L9.08236 16.7311Z" fill="#545456"/>
</g>
<defs>
<clipPath id="clip0_761_3724">
<rect width="20" height="20" fill="white" transform="translate(20.9463 20.6646) rotate(-180)"/>
</clipPath>
</defs>
</svg>
