<svg width="25" height="41" viewBox="0 0 25 41" fill="none" xmlns="http://www.w3.org/2000/svg">
<path d="M10.8226 34.6032H9.84364V29.7082H10.8226V34.6032ZM11.1636 39.2562H4.57464V36.7812H9.84364V35.8902H4.54164V35.0982H10.8226V37.5072H5.54264V38.4532H11.1636V39.2562ZM3.90364 30.6542C4.38031 30.2362 4.96697 30.0272 5.66364 30.0272C6.36031 30.0272 6.94331 30.2326 7.41264 30.6432C7.88197 31.0539 8.11664 31.5782 8.11664 32.2162C8.11664 32.8469 7.88197 33.3602 7.41264 33.7562C6.94331 34.1522 6.36031 34.3502 5.66364 34.3502C4.96697 34.3502 4.38031 34.1559 3.90364 33.7672C3.43431 33.3786 3.19964 32.8652 3.19964 32.2272C3.19964 31.5892 3.43431 31.0649 3.90364 30.6542ZM5.66364 30.8632C5.23831 30.8632 4.87897 30.9916 4.58564 31.2482C4.29964 31.5049 4.15664 31.8276 4.15664 32.2162C4.15664 32.6049 4.29964 32.9239 4.58564 33.1732C4.87164 33.4152 5.23097 33.5362 5.66364 33.5362C6.11097 33.5362 6.47031 33.4116 6.74164 33.1622C7.02031 32.9129 7.15964 32.5976 7.15964 32.2162C7.15964 31.8129 7.02397 31.4866 6.75264 31.2372C6.48131 30.9879 6.11831 30.8632 5.66364 30.8632ZM19.5372 36.0992C20.1092 36.4292 20.3952 36.8839 20.3952 37.4632C20.3952 38.0426 20.1129 38.4972 19.5482 38.8272C18.9836 39.1572 18.1842 39.3222 17.1502 39.3222C16.1309 39.3222 15.3352 39.1572 14.7632 38.8272C14.1986 38.4972 13.9162 38.0426 13.9162 37.4632C13.9162 36.8839 14.1986 36.4292 14.7632 36.0992C15.3352 35.7619 16.1309 35.5932 17.1502 35.5932C18.1769 35.5932 18.9726 35.7619 19.5372 36.0992ZM12.6732 31.2812V30.4892H17.9312V31.2812H15.8302V31.6002C15.8302 32.2382 16.0649 32.8176 16.5342 33.3382C17.0036 33.8516 17.5352 34.1999 18.1292 34.3832L17.5902 35.1642C17.1502 34.9882 16.7139 34.7096 16.2812 34.3282C15.8486 33.9396 15.5369 33.5326 15.3462 33.1072C15.1996 33.5546 14.8879 34.0019 14.4112 34.4492C13.9346 34.8966 13.4396 35.2266 12.9262 35.4392L12.3762 34.6692C13.0362 34.4346 13.6119 34.0312 14.1032 33.4592C14.5946 32.8799 14.8402 32.2676 14.8402 31.6222V31.2812H12.6732ZM17.1502 36.3962C16.4462 36.3962 15.8962 36.4916 15.5002 36.6822C15.1042 36.8656 14.9062 37.1259 14.9062 37.4632C14.9062 37.8006 15.1042 38.0646 15.5002 38.2552C15.8962 38.4386 16.4462 38.5302 17.1502 38.5302C17.8616 38.5302 18.4152 38.4386 18.8112 38.2552C19.2072 38.0646 19.4052 37.8006 19.4052 37.4632C19.4052 37.1259 19.2072 36.8656 18.8112 36.6822C18.4152 36.4916 17.8616 36.3962 17.1502 36.3962ZM19.3612 32.9312H17.5682V32.1282H19.3612V29.7082H20.3402V35.6702H19.3612V32.9312Z" fill="#5FCE80"/>
<path fill-rule="evenodd" clip-rule="evenodd" d="M17.2422 11.2672L11.6582 16.8512C11.4707 17.0386 11.2164 17.1439 10.9512 17.1439C10.686 17.1439 10.4317 17.0386 10.2442 16.8512L6.82821 13.4342C6.73536 13.3413 6.66171 13.2311 6.61147 13.1098C6.56122 12.9885 6.53536 12.8585 6.53536 12.7272C6.53536 12.5959 6.56122 12.4658 6.61147 12.3445C6.66171 12.2232 6.73536 12.113 6.82821 12.0202C6.92105 11.9273 7.03127 11.8537 7.15258 11.8034C7.27389 11.7532 7.4039 11.7273 7.5352 11.7273C7.66651 11.7273 7.79652 11.7532 7.91783 11.8034C8.03914 11.8537 8.14936 11.9273 8.2422 12.0202L10.9512 14.7292L15.8282 9.85316C15.9211 9.76032 16.0313 9.68667 16.1526 9.63642C16.2739 9.58617 16.4039 9.56031 16.5352 9.56031C16.6665 9.56031 16.7965 9.58617 16.9178 9.63642C17.0391 9.68667 17.1494 9.76032 17.2422 9.85316C17.3351 9.94601 17.4087 10.0562 17.4589 10.1775C17.5092 10.2988 17.5351 10.4289 17.5351 10.5602C17.5351 10.6915 17.5092 10.8215 17.4589 10.9428C17.4087 11.0641 17.3351 11.1743 17.2422 11.2672ZM19.7352 3.65216H18.1052V2.65216C18.1052 2.38694 17.9998 2.13259 17.8123 1.94505C17.6248 1.75752 17.3704 1.65216 17.1052 1.65216C16.84 1.65216 16.5856 1.75752 16.3981 1.94505C16.2106 2.13259 16.1052 2.38694 16.1052 2.65216V3.65216H7.96521V2.65216C7.96521 2.38694 7.85985 2.13259 7.67231 1.94505C7.48478 1.75752 7.23042 1.65216 6.96521 1.65216C6.69999 1.65216 6.44563 1.75752 6.2581 1.94505C6.07056 2.13259 5.9652 2.38694 5.9652 2.65216V3.65216H4.33521C3.80477 3.65216 3.29606 3.86287 2.92099 4.23795C2.54592 4.61302 2.33521 5.12173 2.33521 5.65216V21.0522C2.33521 21.5826 2.54592 22.0913 2.92099 22.4664C3.29606 22.8414 3.80477 23.0522 4.33521 23.0522H19.7352C20.2656 23.0522 20.7743 22.8414 21.1494 22.4664C21.5245 22.0913 21.7352 21.5826 21.7352 21.0522V5.65216C21.7352 5.12173 21.5245 4.61302 21.1494 4.23795C20.7743 3.86287 20.2656 3.65216 19.7352 3.65216Z" fill="#5FCE80"/>
</svg>
