<svg width="25" height="25" viewBox="0 0 25 25" fill="none" xmlns="http://www.w3.org/2000/svg">
<path d="M12.8955 23.446C18.9955 23.446 23.8955 18.546 23.8955 12.446C23.8955 6.34604 18.9955 1.44604 12.8955 1.44604C6.79551 1.44604 1.89551 6.34604 1.89551 12.446C1.89551 18.546 6.79551 23.446 12.8955 23.446ZM12.8955 17.946C12.2955 17.946 11.8955 17.546 11.8955 16.946L11.8955 10.346L9.59551 12.646C9.19551 13.046 8.59551 13.046 8.19551 12.646C7.79551 12.246 7.79551 11.646 8.19551 11.246L12.1955 7.24604C12.5955 6.84604 13.1955 6.84604 13.5955 7.24604L17.5955 11.246C17.7955 11.446 17.8955 11.646 17.8955 11.946C17.8955 12.246 17.7955 12.446 17.5955 12.646C17.1955 13.046 16.5955 13.046 16.1955 12.646L13.8955 10.346L13.8955 16.946C13.8955 17.446 13.4955 17.946 12.8955 17.946Z" fill="#5FCE80"/>
</svg>
