<svg width="25" height="41" viewBox="0 0 25 41" fill="none" xmlns="http://www.w3.org/2000/svg">
<path d="M15.7953 32.1469C15.7953 32.9389 14.9703 33.3752 13.3203 33.4559V34.0609H17.1923V34.8529H8.51334V34.0609H12.3413V33.4559C10.7207 33.3679 9.91034 32.9316 9.91034 32.1469C9.91034 31.7289 10.1633 31.4099 10.6693 31.1899C11.1753 30.9626 11.905 30.8489 12.8583 30.8489C13.8117 30.8489 14.5377 30.9626 15.0363 31.1899C15.5423 31.4172 15.7953 31.7362 15.7953 32.1469ZM16.0593 38.0979H9.64634V35.3479H16.0593V38.0979ZM16.6533 30.5409H9.04134V29.7599H16.6533V30.5409ZM15.0803 37.3389V36.1069H10.6143V37.3389H15.0803ZM14.7943 32.1469C14.7943 31.9636 14.6183 31.8206 14.2663 31.7179C13.9217 31.6152 13.4523 31.5639 12.8583 31.5639C12.257 31.5639 11.784 31.6152 11.4393 31.7179C11.0947 31.8206 10.9223 31.9636 10.9223 32.1469C10.9223 32.3376 11.0947 32.4879 11.4393 32.5979C11.784 32.7006 12.257 32.7519 12.8583 32.7519C13.4523 32.7519 13.9217 32.7006 14.2663 32.5979C14.6183 32.4879 14.7943 32.3376 14.7943 32.1469ZM14.5413 29.3309H11.1973V28.5609H14.5413V29.3309Z" fill="#5FCE80"/>
<path fill-rule="evenodd" clip-rule="evenodd" d="M1.91504 10.4576V20.0646C1.91504 21.2224 1.91504 21.8014 2.14751 22.2404C2.33511 22.5947 2.62486 22.8845 2.97918 23.0721C3.41824 23.3046 3.99717 23.3046 5.15504 23.3046H20.5533C21.7112 23.3046 22.2901 23.3046 22.7291 23.0721C23.0835 22.8845 23.3732 22.5947 23.5608 22.2404C23.7933 21.8014 23.7933 21.2224 23.7933 20.0646V10.4951C23.7933 10.0403 23.7933 9.81296 23.7317 9.60478C23.6817 9.43538 23.602 9.27617 23.4966 9.13446C23.367 8.96031 23.1851 8.82389 22.8213 8.55106L13.571 1.61335C13.2066 1.34003 13.0244 1.20337 12.8239 1.15499C12.6616 1.1158 12.492 1.1179 12.3306 1.16111C12.1315 1.21444 11.9527 1.35557 11.5952 1.63784L2.8393 8.55037L2.8393 8.55038C2.49296 8.8238 2.3198 8.96051 2.19661 9.13208C2.09634 9.27171 2.02083 9.42753 1.97336 9.59275C1.91504 9.79575 1.91504 10.0164 1.91504 10.4576ZM10.8907 23.3041V17.3805C10.8907 17.1918 10.9957 17.0175 11.1711 16.948C12.0031 16.6185 13.5794 16.3025 15.0991 16.9435C15.273 17.0169 15.3786 17.1918 15.3786 17.3805V23.3043L10.8907 23.3041Z" fill="#5FCE80"/>
</svg>
