<svg width="25" height="25" viewBox="0 0 25 25" fill="none" xmlns="http://www.w3.org/2000/svg">
<path fill-rule="evenodd" clip-rule="evenodd" d="M23.7927 12.7606C23.7927 13.3681 23.3002 13.8606 22.6927 13.8606L10.9637 13.8606C10.3562 13.8606 9.86372 13.3681 9.86372 12.7606C9.86372 12.1531 10.3562 11.6606 10.9637 11.6606L22.6927 11.6606C23.3002 11.6606 23.7927 12.1531 23.7927 12.7606Z" fill="#111111"/>
<path fill-rule="evenodd" clip-rule="evenodd" d="M16.6818 18.7702C16.2523 18.3405 16.2524 17.6441 16.6821 17.2146L21.1369 12.7614L16.6819 8.30635C16.2523 7.87677 16.2523 7.18029 16.6819 6.75071C17.1115 6.32113 17.808 6.32113 18.2375 6.75071L23.4705 11.9837C23.6769 12.19 23.7928 12.4699 23.7927 12.7616C23.7927 13.0534 23.6767 13.3332 23.4704 13.5395L18.2374 18.7705C17.8077 19.2 17.1113 19.1999 16.6818 18.7702Z" fill="#111111"/>
<path fill-rule="evenodd" clip-rule="evenodd" d="M10.6558 20.0526C11.0005 20.0526 11.3312 19.9156 11.575 19.6718C11.8188 19.428 11.9558 19.0973 11.9558 18.7526L11.9558 17.0586C11.9558 16.451 12.4482 15.9586 13.0558 15.9586C13.6633 15.9586 14.1558 16.451 14.1558 17.0586L14.1558 18.7526C14.1558 19.6808 13.787 20.5711 13.1306 21.2274C12.4743 21.8838 11.584 22.2526 10.6558 22.2526L6.20776 22.2526C5.2795 22.2526 4.38926 21.8838 3.73289 21.2274C3.07651 20.5711 2.70776 19.6808 2.70776 18.7526L2.70776 6.76756C2.70815 5.83956 3.07707 4.94923 3.7334 4.29317C4.38974 3.63711 5.27976 3.26856 6.20776 3.26856L10.6558 3.26856C11.584 3.26856 12.4743 3.63732 13.1306 4.29369C13.787 4.95007 14.1558 5.84031 14.1558 6.76856L14.1558 8.45856C14.1558 9.06608 13.6633 9.55856 13.0558 9.55856C12.4482 9.55856 11.9558 9.06608 11.9558 8.45856L11.9558 6.76856C11.9558 6.42378 11.8188 6.09312 11.575 5.84933C11.3312 5.60553 11.0005 5.46856 10.6558 5.46856L6.20776 5.46856C5.86308 5.46856 5.5325 5.60545 5.28872 5.84913C5.04493 6.09281 4.90791 6.42333 4.90776 6.76802L4.90776 18.7526C4.90776 19.0973 5.04473 19.428 5.28852 19.6718C5.53232 19.9156 5.86298 20.0526 6.20776 20.0526L10.6558 20.0526Z" fill="#111111"/>
</svg>
