<svg width="25" height="25" viewBox="0 0 25 25" fill="none" xmlns="http://www.w3.org/2000/svg">
<path fill-rule="evenodd" clip-rule="evenodd" d="M4.95049 6.47263H20.9505C21.2687 6.47263 21.574 6.3462 21.799 6.12116C22.0241 5.89612 22.1505 5.59089 22.1505 5.27263C22.1505 4.95437 22.0241 4.64915 21.799 4.4241C21.574 4.19906 21.2687 4.07263 20.9505 4.07263H4.95049C4.63223 4.07263 4.327 4.19906 4.10196 4.4241C3.87692 4.64915 3.75049 4.95437 3.75049 5.27263C3.75049 5.59089 3.87692 5.89612 4.10196 6.12116C4.327 6.3462 4.63223 6.47263 4.95049 6.47263ZM20.9505 11.0726H4.95049C4.63223 11.0726 4.327 11.1991 4.10196 11.4241C3.87692 11.6491 3.75049 11.9544 3.75049 12.2726C3.75049 12.5909 3.87692 12.8961 4.10196 13.1212C4.327 13.3462 4.63223 13.4726 4.95049 13.4726H20.9505C21.2687 13.4726 21.574 13.3462 21.799 13.1212C22.0241 12.8961 22.1505 12.5909 22.1505 12.2726C22.1505 11.9544 22.0241 11.6491 21.799 11.4241C21.574 11.1991 21.2687 11.0726 20.9505 11.0726ZM20.9505 18.0726H4.95049C4.7929 18.0726 4.63686 18.1037 4.49127 18.164C4.34568 18.2243 4.21339 18.3127 4.10196 18.4241C3.99053 18.5355 3.90214 18.6678 3.84183 18.8134C3.78153 18.959 3.75049 19.115 3.75049 19.2726C3.75049 19.4302 3.78153 19.5863 3.84183 19.7319C3.90214 19.8774 3.99053 20.0097 4.10196 20.1212C4.21339 20.2326 4.34568 20.321 4.49127 20.3813C4.63686 20.4416 4.7929 20.4726 4.95049 20.4726H20.9505C21.1081 20.4726 21.2641 20.4416 21.4097 20.3813C21.5553 20.321 21.6876 20.2326 21.799 20.1212C21.9104 20.0097 21.9988 19.8774 22.0591 19.7319C22.1195 19.5863 22.1505 19.4302 22.1505 19.2726C22.1505 19.115 22.1195 18.959 22.0591 18.8134C21.9988 18.6678 21.9104 18.5355 21.799 18.4241C21.6876 18.3127 21.5553 18.2243 21.4097 18.164C21.2641 18.1037 21.1081 18.0726 20.9505 18.0726Z" fill="#111111"/>
</svg>
