<svg width="72" height="20" viewBox="0 0 72 20" fill="none" xmlns="http://www.w3.org/2000/svg">
<path fill-rule="evenodd" clip-rule="evenodd" d="M11.8662 9.51076H8.07458V5.71909C8.07458 5.5467 8.0061 5.38137 7.8842 5.25947C7.7623 5.13757 7.59697 5.06909 7.42458 5.06909C7.25219 5.06909 7.08686 5.13757 6.96496 5.25947C6.84306 5.38137 6.77458 5.5467 6.77458 5.71909V9.51076H2.98292C2.81053 9.51076 2.6452 9.57924 2.5233 9.70114C2.4014 9.82304 2.33292 9.98837 2.33292 10.1608C2.33292 10.3331 2.4014 10.4985 2.5233 10.6204C2.6452 10.7423 2.81053 10.8108 2.98292 10.8108H6.77458V14.6024C6.77458 14.7748 6.84306 14.9401 6.96496 15.062C7.08686 15.1839 7.25219 15.2524 7.42458 15.2524C7.59697 15.2524 7.7623 15.1839 7.8842 15.062C8.0061 14.9401 8.07458 14.7748 8.07458 14.6024V10.8108H11.8662C12.0386 10.8108 12.204 10.7423 12.3259 10.6204C12.4478 10.4985 12.5162 10.3331 12.5162 10.1608C12.5162 9.98837 12.4478 9.82304 12.3259 9.70114C12.204 9.57924 12.0386 9.51076 11.8662 9.51076Z" fill="white"/>
<path d="M24.2967 12.4888H22.9707V16.4278H31.2647V15.3488H24.2967V12.4888ZM30.6407 10.2268C30.9267 8.70577 30.9267 7.54877 30.9267 6.54777V5.58577H22.9317V6.66477H29.6007C29.6007 7.65277 29.5877 8.75777 29.2887 10.2268H21.5927V11.3188H32.2397V10.2268H30.6407ZM41.5467 9.10877H36.1777V6.61277H41.5467V9.10877ZM42.8727 5.54677H34.8517V10.1878H42.8727V5.54677ZM44.1987 11.6308H33.5517V12.7098H38.1667V16.6618H39.5057V12.7098H44.1987V11.6308ZM57.8426 8.35477H51.0956V6.40477H57.7646V5.32577H49.7696V9.43377H57.8426V8.35477ZM53.7216 15.6218C52.0056 15.6218 51.0436 15.2448 51.0436 14.5168C51.0436 13.8018 52.0056 13.4118 53.7216 13.4118C55.4376 13.4118 56.4126 13.8018 56.4126 14.5168C56.4126 15.2448 55.4376 15.6218 53.7216 15.6218ZM53.7216 12.3848C51.2126 12.3848 49.6786 13.1648 49.6786 14.5168C49.6786 15.8818 51.2126 16.6618 53.7216 16.6618C56.2436 16.6618 57.7646 15.8818 57.7646 14.5168C57.7646 13.1648 56.2436 12.3848 53.7216 12.3848ZM48.4566 10.4088V11.5138H59.0646V10.4088H48.4566ZM61.5856 14.2568H68.4236V16.5968H69.7626V13.1778H61.5856V14.2568ZM66.3826 11.3058V10.2398H69.9316V9.21277H63.0676V8.17277H69.6976V5.19577H61.7286V6.22277H68.3716V7.21077H61.7546V10.2398H65.0436V11.3058H60.3896V12.3848H71.0366V11.3058H66.3826Z" fill="white"/>
</svg>
