<svg width="14" height="14" viewBox="0 0 14 14" fill="none" xmlns="http://www.w3.org/2000/svg">
<path fill-rule="evenodd" clip-rule="evenodd" d="M11.8663 6.51076H8.07464V2.71909C8.07464 2.5467 8.00616 2.38137 7.88426 2.25947C7.76236 2.13757 7.59703 2.06909 7.42464 2.06909C7.25225 2.06909 7.08692 2.13757 6.96502 2.25947C6.84313 2.38137 6.77464 2.5467 6.77464 2.71909V6.51076H2.98298C2.81059 6.51076 2.64526 6.57924 2.52336 6.70114C2.40146 6.82304 2.33298 6.98837 2.33298 7.16076C2.33298 7.33315 2.40146 7.49848 2.52336 7.62038C2.64526 7.74228 2.81059 7.81076 2.98298 7.81076H6.77464V11.6024C6.77464 11.7748 6.84313 11.9401 6.96502 12.062C7.08692 12.1839 7.25225 12.2524 7.42464 12.2524C7.59703 12.2524 7.76236 12.1839 7.88426 12.062C8.00616 11.9401 8.07464 11.7748 8.07464 11.6024V7.81076H11.8663C12.0387 7.81076 12.204 7.74228 12.3259 7.62038C12.4478 7.49848 12.5163 7.33315 12.5163 7.16076C12.5163 6.98837 12.4478 6.82304 12.3259 6.70114C12.204 6.57924 12.0387 6.51076 11.8663 6.51076Z" fill="white"/>
</svg>
