<svg width="74" height="80" viewBox="0 0 74 80" fill="none" xmlns="http://www.w3.org/2000/svg">
<path d="M7.3323 0H45.3012C60.7711 0 73.3251 12.554 73.3251 28.0239C73.3251 43.4938 60.7711 56.0478 45.3012 56.0478H2.29844C1.10136 56.0478 0.119141 55.0656 0.119141 53.8685V7.21316C0.119141 3.2229 3.34204 0 7.3323 0Z" fill="#5FCE80"/>
<g filter="url(#filter0_b_582_2361)">
<path d="M46.1299 79.6544L2.75885 60.317C1.16275 59.5803 0.119141 57.9535 0.119141 56.1118V6.93955C0.119141 3.68596 3.34204 1.47597 6.22731 2.76513L49.5677 22.1025C51.1638 22.8085 52.2074 24.466 52.2074 26.277V75.4492C52.2074 78.7335 48.9845 80.9128 46.0992 79.6237L46.1299 79.6544Z" fill="url(#paint0_linear_582_2361)"/>
</g>
<path d="M6.25765 33.9773C6.34973 28.9128 9.91027 26.6107 14.6679 28.4523C19.4255 30.294 22.894 35.3586 22.8019 40.4231C22.7098 45.4877 19.1493 47.8204 14.3916 45.9481C9.63402 44.0757 6.16557 39.0419 6.25765 33.9773ZM18.0136 35.9417C18.0136 34.7754 17.2462 33.609 16.1412 33.1793C15.0362 32.7495 14.2075 33.2713 14.2075 34.4377C14.2075 35.6041 14.9748 36.7705 16.0798 37.2002C17.1848 37.6299 18.0136 37.1081 18.0136 35.9111V35.9417Z" fill="#5FCE80"/>
<path d="M24.2138 46.9922L24.4286 34.5611C24.4593 32.658 26.301 32.5045 27.6822 34.1927L32.8696 40.4851L38.2104 38.3058C39.6223 37.7226 41.4333 39.288 41.4026 41.191L41.1877 53.6222C41.1877 55.1876 40.3897 55.7094 39.0084 55.1876L26.1168 50.1845C24.8584 49.6933 24.1831 48.5883 24.2138 47.0536V46.9922ZM31.3962 47.0843C31.3962 45.9179 30.6289 44.7516 29.5239 44.3218C28.4189 43.8921 27.5901 44.4139 27.5901 45.5803C27.5901 46.7467 28.3575 47.9131 29.4625 48.3428C30.5675 48.7725 31.3962 48.2507 31.3962 47.0536V47.0843ZM37.9648 49.632C37.9648 48.4656 37.1975 47.2992 36.0925 46.8695C34.9875 46.4398 34.1587 46.9616 34.1587 48.1279C34.1587 49.2943 34.9261 50.4607 36.0311 50.8904C37.1361 51.3201 37.9648 50.7983 37.9648 49.6013V49.632Z" fill="#5FCE80"/>
<defs>
<filter id="filter0_b_582_2361" x="-9.88086" y="-7.60815" width="72.0883" height="97.608" filterUnits="userSpaceOnUse" color-interpolation-filters="sRGB">
<feFlood flood-opacity="0" result="BackgroundImageFix"/>
<feGaussianBlur in="BackgroundImageFix" stdDeviation="5"/>
<feComposite in2="SourceAlpha" operator="in" result="effect1_backgroundBlur_582_2361"/>
<feBlend mode="normal" in="SourceGraphic" in2="effect1_backgroundBlur_582_2361" result="shape"/>
</filter>
<linearGradient id="paint0_linear_582_2361" x1="48.9908" y1="25.7413" x2="-26.0172" y2="70.8032" gradientUnits="userSpaceOnUse">
<stop stop-color="#E1FFA9"/>
<stop offset="1" stop-color="#E1FFA9" stop-opacity="0.4"/>
</linearGradient>
</defs>
</svg>
