<svg width="91" height="26" viewBox="0 0 91 26" fill="none" xmlns="http://www.w3.org/2000/svg">
<path d="M3.1499 1.92853H14.5405C19.1815 1.92853 22.9477 5.69471 22.9477 10.3357C22.9477 14.9766 19.1815 18.7428 14.5405 18.7428H1.63975C1.28063 18.7428 0.985962 18.4482 0.985962 18.089V4.09247C0.985962 2.89539 1.95283 1.92853 3.1499 1.92853Z" fill="#5FCE80"/>
<g filter="url(#filter0_b_582_2506)">
<path d="M14.7892 25.8247L1.77787 20.0235C1.29904 19.8025 0.985962 19.3144 0.985962 18.762V4.0103C0.985962 3.03423 1.95283 2.37123 2.81841 2.75798L15.8205 8.55919C16.2993 8.77098 16.6124 9.26823 16.6124 9.81151V24.5632C16.6124 25.5484 15.6455 26.2022 14.7799 25.8155L14.7892 25.8247Z" fill="url(#paint0_linear_582_2506)"/>
</g>
<path d="M2.8275 12.1216C2.85513 10.6023 3.92329 9.91164 5.35057 10.4641C6.77785 11.0166 7.81838 12.536 7.79076 14.0554C7.76313 15.5747 6.69498 16.2745 5.26769 15.7128C3.84041 15.1511 2.79988 13.641 2.8275 12.1216ZM6.35427 12.7109C6.35427 12.361 6.12406 12.0111 5.79256 11.8822C5.46107 11.7533 5.21244 11.9098 5.21244 12.2597C5.21244 12.6097 5.44265 12.9596 5.77415 13.0885C6.10565 13.2174 6.35427 13.0609 6.35427 12.7017V12.7109Z" fill="#5FCE80"/>
<path d="M8.21435 16.0261L8.27881 12.2967C8.28802 11.7258 8.84051 11.6798 9.25488 12.1862L10.8111 14.0739L12.4133 13.4201C12.8369 13.2452 13.3802 13.7148 13.371 14.2857L13.3065 18.0151C13.3065 18.4847 13.0671 18.6412 12.6527 18.4847L8.78526 16.9837C8.40772 16.8364 8.20514 16.5049 8.21435 16.0445V16.0261ZM10.3691 16.0537C10.3691 15.7038 10.1389 15.3539 9.80738 15.2249C9.47588 15.096 9.22726 15.2526 9.22726 15.6025C9.22726 15.9524 9.45747 16.3023 9.78897 16.4312C10.1205 16.5602 10.3691 16.4036 10.3691 16.0445V16.0537ZM12.3397 16.818C12.3397 16.4681 12.1094 16.1182 11.778 15.9892C11.4465 15.8603 11.1978 16.0169 11.1978 16.3668C11.1978 16.7167 11.428 17.0666 11.7595 17.1955C12.091 17.3244 12.3397 17.1679 12.3397 16.8088V16.818Z" fill="#5FCE80"/>
<path d="M40.6213 12.5904L36.4213 2.72039H34.4333L30.2333 12.5904H32.4313L33.3273 10.3924H37.4713L38.3673 12.5904H40.6213ZM36.7013 8.48839H34.0973L35.3993 5.31039L36.7013 8.48839ZM49.5258 12.5904V10.6304H44.6398V2.79039H42.4838V12.5904H49.5258ZM59.8318 9.90239V9.87439C59.8318 8.55839 59.1318 7.90039 57.9978 7.46639C58.6978 7.07439 59.2858 6.45839 59.2858 5.35239V5.32439C59.2858 3.78439 58.0538 2.79039 56.0518 2.79039H51.5018V12.5904H56.1638C58.3758 12.5904 59.8318 11.6944 59.8318 9.90239ZM57.1438 5.71639C57.1438 6.44439 56.5418 6.75239 55.5898 6.75239H53.6018V4.68039H55.7298C56.6398 4.68039 57.1438 5.04439 57.1438 5.68839V5.71639ZM57.6898 9.63639C57.6898 10.3644 57.1158 10.7004 56.1638 10.7004H53.6018V8.54439H56.0938C57.1998 8.54439 57.6898 8.95039 57.6898 9.60839V9.63639ZM61.9553 12.5904H70.6913C71.8393 12.5904 72.1893 11.8904 71.6153 10.9104L67.3033 3.35039C66.7713 2.41239 65.8893 2.42639 65.3573 3.35039L61.0313 10.9104C60.4713 11.8904 60.8213 12.5904 61.9553 12.5904ZM65.4693 10.7004C64.7553 10.7004 64.2233 10.2104 64.2233 9.51039C64.2233 8.83839 64.7553 8.33439 65.4693 8.33439C66.1973 8.33439 66.7293 8.83839 66.7293 9.51039C66.7293 10.2104 66.1973 10.7004 65.4693 10.7004ZM38.8293 18.2064V18.1784C38.8293 16.1764 37.4153 14.7904 35.0773 14.7904H31.0733V24.5904H33.2293V21.6504H34.8673C37.0653 21.6504 38.8293 20.4744 38.8293 18.2064ZM36.6453 18.2484C36.6453 19.0884 36.0153 19.7324 34.9373 19.7324H33.2293V16.7364H34.8953C35.9733 16.7364 36.6453 17.2544 36.6453 18.2204V18.2484ZM50.4068 19.6904V19.6624C50.4068 16.8764 48.2368 14.6224 45.2128 14.6224C42.1888 14.6224 39.9908 16.9044 39.9908 19.6904V19.7184C39.9908 22.5044 42.1608 24.7584 45.1848 24.7584C48.2088 24.7584 50.4068 22.4764 50.4068 19.6904ZM48.1528 19.7184C48.1528 21.3984 46.9488 22.7704 45.2128 22.7704C43.4768 22.7704 42.2448 21.3704 42.2448 19.6904V19.6624C42.2448 17.9824 43.4488 16.6104 45.1848 16.6104C46.9208 16.6104 48.1528 18.0104 48.1528 19.6904V19.7184ZM60.9294 23.0084L59.5574 21.6224C58.7874 22.3224 58.1014 22.7704 56.9814 22.7704C55.3014 22.7704 54.1394 21.3704 54.1394 19.6904V19.6624C54.1394 17.9824 55.3294 16.6104 56.9814 16.6104C57.9614 16.6104 58.7314 17.0304 59.4874 17.7164L60.8594 16.1344C59.9494 15.2384 58.8434 14.6224 56.9954 14.6224C53.9854 14.6224 51.8854 16.9044 51.8854 19.6904V19.7184C51.8854 22.5324 54.0274 24.7584 56.9114 24.7584C58.8014 24.7584 59.9214 24.0864 60.9294 23.0084ZM63.5793 24.5904H70.6633C71.7693 24.5904 72.1893 23.8904 71.6573 22.9244L69.6133 19.2424L71.0553 16.4564C71.5593 15.4904 71.1393 14.7904 70.0473 14.7904H63.5793C62.6693 14.7904 62.1793 15.2804 62.1793 16.1904V23.1904C62.1793 24.1004 62.6693 24.5904 63.5793 24.5904ZM65.5813 22.7984C64.8673 22.7984 64.3353 22.3084 64.3353 21.6084C64.3353 20.9364 64.8673 20.4324 65.5813 20.4324C66.2953 20.4324 66.8273 20.9364 66.8273 21.6084C66.8273 22.3084 66.2953 22.7984 65.5813 22.7984ZM80.5353 24.5904V22.6724H75.2153V20.6144H79.8353V18.6964H75.2153V16.7084H80.4653V14.7904H73.0733V24.5904H80.5353ZM89.8722 16.7784V14.7904H81.7522V16.7784H84.7342V24.5904H86.8902V16.7784H89.8722Z" fill="#5FCE80"/>
<defs>
<filter id="filter0_b_582_2506" x="-3.81403" y="-2.15399" width="25.2264" height="32.8823" filterUnits="userSpaceOnUse" color-interpolation-filters="sRGB">
<feFlood flood-opacity="0" result="BackgroundImageFix"/>
<feGaussianBlur in="BackgroundImageFix" stdDeviation="2.39999"/>
<feComposite in2="SourceAlpha" operator="in" result="effect1_backgroundBlur_582_2506"/>
<feBlend mode="normal" in="SourceGraphic" in2="effect1_backgroundBlur_582_2506" result="shape"/>
</filter>
<linearGradient id="paint0_linear_582_2506" x1="15.6474" y1="9.65083" x2="-6.85491" y2="23.1693" gradientUnits="userSpaceOnUse">
<stop stop-color="#E1FFA9"/>
<stop offset="1" stop-color="#E1FFA9" stop-opacity="0.4"/>
</linearGradient>
</defs>
</svg>
