<svg width="16" height="16" viewBox="0 0 16 16" fill="none" xmlns="http://www.w3.org/2000/svg">
<path fill-rule="evenodd" clip-rule="evenodd" d="M9.84832 11.5032C9.84832 11.6524 9.78905 11.7955 9.68357 11.901C9.57808 12.0064 9.435 12.0657 9.28582 12.0657C9.13663 12.0657 8.99356 12.0064 8.88807 11.901C8.78258 11.7955 8.72332 11.6524 8.72332 11.5032V8.37445C8.72332 8.22527 8.78258 8.08219 8.88807 7.97671C8.99356 7.87122 9.13663 7.81195 9.28582 7.81195C9.435 7.81195 9.57808 7.87122 9.68357 7.97671C9.78905 8.08219 9.84832 8.22527 9.84832 8.37445V11.5032ZM7.26519 11.5032C7.26519 11.6524 7.20593 11.7955 7.10044 11.901C6.99495 12.0064 6.85188 12.0657 6.70269 12.0657C6.55351 12.0657 6.41043 12.0064 6.30494 11.901C6.19946 11.7955 6.14019 11.6524 6.14019 11.5032V8.37445C6.14019 8.22527 6.19946 8.08219 6.30494 7.97671C6.41043 7.87122 6.55351 7.81195 6.70269 7.81195C6.85188 7.81195 6.99495 7.87122 7.10044 7.97671C7.20593 8.08219 7.26519 8.22527 7.26519 8.37445V11.5032ZM6.07519 3.45508C6.07519 3.28932 6.14104 3.13035 6.25825 3.01314C6.37546 2.89593 6.53443 2.83008 6.70019 2.83008H9.29019C9.63457 2.83008 9.91519 3.11008 9.91519 3.45508V4.0432H6.07519V3.45508ZM13.1189 4.0432H11.1652V3.45508C11.1652 2.42133 10.3246 1.58008 9.29019 1.58008H6.70019C5.66644 1.58008 4.82519 2.42133 4.82519 3.45508V4.0432H2.74457C2.54566 4.0432 2.35489 4.12222 2.21424 4.26287C2.07359 4.40353 1.99457 4.59429 1.99457 4.7932V5.1682C1.99457 5.36712 2.07359 5.55788 2.21424 5.69853C2.35489 5.83919 2.54566 5.9182 2.74457 5.9182H2.82644L3.12144 13.4407C3.13679 13.828 3.30149 14.1944 3.58101 14.463C3.86053 14.7315 4.23318 14.8815 4.62082 14.8813H11.3683C11.7558 14.8815 12.1283 14.7315 12.4077 14.4629C12.687 14.1943 12.8514 13.8279 12.8664 13.4407L13.1627 5.90945C13.353 5.8997 13.5322 5.81744 13.6637 5.67957C13.7952 5.54171 13.8689 5.35871 13.8696 5.1682V4.7932C13.8696 4.37945 13.5333 4.0432 13.1189 4.0432Z" fill="#FF3B30"/>
</svg>
