<svg width="21" height="21" viewBox="0 0 21 21" fill="none" xmlns="http://www.w3.org/2000/svg">
<circle cx="10.2247" cy="10.2417" r="10" fill="#F5F5F5"/>
<g clip-path="url(#clip0_334_897)">
<path fill-rule="evenodd" clip-rule="evenodd" d="M10.2247 13.7234C9.45201 13.7225 8.71123 13.4152 8.16485 12.8688C7.61848 12.3225 7.31114 11.5817 7.31026 10.809C7.31099 10.0362 7.61827 9.29526 8.16466 8.74877C8.71105 8.20228 9.45192 7.89486 10.2247 7.89398C10.9975 7.89486 11.7384 8.20228 12.2847 8.74877C12.8311 9.29526 13.1384 10.0362 13.1391 10.809C13.1383 11.5817 12.8309 12.3225 12.2846 12.8688C11.7382 13.4152 10.9974 13.7225 10.2247 13.7234ZM14.7319 6.42842H13.0908L12.4725 5.22342C12.3744 5.03266 12.2257 4.87262 12.0426 4.76089C11.8595 4.64916 11.6492 4.59006 11.4347 4.59009H8.98304C8.76433 4.59006 8.55003 4.65151 8.36457 4.76742C8.17911 4.88334 8.02996 5.04904 7.93415 5.24564L7.35859 6.42842H5.71748C5.53358 6.42835 5.35147 6.46451 5.18155 6.53483C5.01163 6.60515 4.85723 6.70827 4.72717 6.83828C4.59711 6.96828 4.49394 7.12264 4.42355 7.29254C4.35316 7.46243 4.31693 7.64452 4.31693 7.82842V14.2734C4.31693 14.4573 4.35316 14.6394 4.42355 14.8093C4.49394 14.9792 4.59711 15.1336 4.72717 15.2636C4.85723 15.3936 5.01163 15.4967 5.18155 15.567C5.35147 15.6373 5.53358 15.6735 5.71748 15.6734H14.7319C14.9158 15.6735 15.0979 15.6373 15.2679 15.567C15.4378 15.4967 15.5922 15.3936 15.7222 15.2636C15.8523 15.1336 15.9555 14.9792 16.0259 14.8093C16.0963 14.6394 16.1325 14.4573 16.1325 14.2734V7.82842C16.1325 7.64452 16.0963 7.46243 16.0259 7.29254C15.9555 7.12264 15.8523 6.96828 15.7222 6.83828C15.5922 6.70827 15.4378 6.60515 15.2679 6.53483C15.0979 6.46451 14.9158 6.42835 14.7319 6.42842Z" fill="#545456"/>
<path fill-rule="evenodd" clip-rule="evenodd" d="M10.2248 8.94409C9.73054 8.94468 9.25671 9.14132 8.90727 9.49086C8.55784 9.8404 8.36134 10.3143 8.3609 10.8085C8.3612 11.3028 8.55765 11.7768 8.90711 12.1264C9.25658 12.4759 9.73049 12.6725 10.2248 12.673C10.7191 12.6725 11.193 12.4759 11.5425 12.1264C11.8919 11.7768 12.0884 11.3028 12.0887 10.8085C12.0882 10.3143 11.8917 9.8404 11.5423 9.49086C11.1929 9.14132 10.719 8.94468 10.2248 8.94409Z" fill="#545456"/>
</g>
<defs>
<clipPath id="clip0_334_897">
<rect width="13.3333" height="13.3333" fill="white" transform="translate(3.55807 3.57495)"/>
</clipPath>
</defs>
</svg>
