<svg width="25" height="25" viewBox="0 0 25 25" fill="none" xmlns="http://www.w3.org/2000/svg">
<path d="M21.9357 20.5961L17.3287 15.9891C18.4137 14.5511 19.0647 12.7691 19.0647 10.8331C19.0647 6.09714 15.2107 2.24414 10.4757 2.24414C5.73966 2.24514 1.88666 6.09814 1.88666 10.8341C1.88666 15.5691 5.73966 19.4231 10.4757 19.4231C12.4107 19.4231 14.1937 18.7721 15.6317 17.6871L20.2387 22.2941C20.4727 22.5281 20.7797 22.6451 21.0867 22.6451C21.3937 22.6451 21.7007 22.5281 21.9357 22.2931C22.4037 21.8251 22.4037 21.0651 21.9357 20.5961ZM4.28666 10.8341C4.28666 7.42114 7.06266 4.64514 10.4757 4.64514C13.8877 4.64514 16.6637 7.42114 16.6637 10.8331C16.6637 14.2451 13.8877 17.0211 10.4757 17.0211C7.06266 17.0221 4.28666 14.2461 4.28666 10.8341Z" fill="#D9D9D9"/>
</svg>
