<svg width="239" height="83" viewBox="0 0 239 83" fill="none" xmlns="http://www.w3.org/2000/svg">
<path d="M14.3736 1.77839C14.3736 4.75172 14.2136 7.09839 13.8936 8.81839H16.4336V10.6584H0.333643V8.81839H11.5736C11.907 7.53839 12.0603 5.80505 12.0336 3.61839H2.49364V1.77839H14.3736ZM14.8336 18.1584H2.49364V12.3584H4.83364V16.2784H14.8336V18.1584ZM31.6983 1.55839V8.75839H19.6983V1.55839H31.6983ZM26.8183 18.6984H24.4783V12.7784H17.6383V10.9184H33.7383V12.7784H26.8183V18.6984ZM29.3783 6.89839V3.41839H22.0383V6.89839H29.3783ZM46.083 12.6184L44.783 14.4384C43.9564 14.0251 43.0964 13.3317 42.203 12.3584C41.323 11.3851 40.7497 10.4851 40.483 9.65839C40.2697 10.5917 39.7497 11.5717 38.923 12.5984C38.1097 13.6117 37.1964 14.3651 36.183 14.8584L34.783 13.1184C37.7564 11.5317 39.243 8.83172 39.243 5.01839V4.53839H35.683V2.67839H45.143V4.53839H41.703V4.99839C41.703 8.57172 43.163 11.1117 46.083 12.6184ZM49.683 18.6784H47.343V0.858388H49.683V18.6784ZM68.3477 10.7184H52.2477V8.99839H68.3477V10.7184ZM66.7077 18.4784H54.2877V14.3384H63.9677V13.3984H54.2077V11.7184H66.2877V15.8784H56.6277V16.7984H66.7077V18.4784ZM66.5677 8.05839H54.3677V4.01839H63.8277V3.07839H54.3277V1.41839H66.1877V5.47839H56.7077V6.39839H66.5677V8.05839ZM90.9063 8.99839V10.8584H74.8063V8.99839H90.9063ZM89.0263 7.57839H76.9463V1.37839H88.8863V3.25839H79.2863V5.71839H89.0263V7.57839ZM89.0663 15.2984C89.0663 16.3251 88.5196 17.1317 87.4263 17.7184C86.3463 18.3051 84.8263 18.5984 82.8663 18.5984C80.9063 18.5984 79.3796 18.3051 78.2863 17.7184C77.2063 17.1317 76.6663 16.3251 76.6663 15.2984C76.6663 14.2584 77.2063 13.4451 78.2863 12.8584C79.3796 12.2584 80.8996 11.9584 82.8463 11.9584C84.8063 11.9584 86.333 12.2584 87.4263 12.8584C88.5196 13.4451 89.0663 14.2584 89.0663 15.2984ZM86.6663 15.3184C86.6663 14.8517 86.3196 14.4851 85.6263 14.2184C84.9463 13.9517 84.0196 13.8184 82.8463 13.8184C81.6863 13.8184 80.7663 13.9517 80.0863 14.2184C79.4063 14.4851 79.0663 14.8517 79.0663 15.3184C79.0663 15.7717 79.4063 16.1251 80.0863 16.3784C80.7663 16.6317 81.6863 16.7584 82.8463 16.7584C84.0196 16.7584 84.9463 16.6317 85.6263 16.3784C86.3196 16.1251 86.6663 15.7717 86.6663 15.3184ZM106.551 8.87839H101.291V10.2384H108.211V12.1184H92.111V10.2384H98.951V8.87839H94.231V4.29839H103.711V3.19839H94.171V1.43839H106.051V5.95839H96.571V7.11839H106.551V8.87839ZM94.011 13.1384H106.131V18.6984H103.811V15.0184H94.011V13.1384ZM125.856 9.67839H123.016V18.4984H121.496V1.01839H123.016V8.39839H125.856V9.67839ZM117.236 3.51839H112.096V2.21839H117.236V3.51839ZM119.816 6.47839H109.496V5.21839H119.816V6.47839ZM118.776 11.2184C118.776 12.2451 118.396 13.1051 117.636 13.7984C116.876 14.4784 115.896 14.8184 114.696 14.8184C113.496 14.8184 112.516 14.4784 111.756 13.7984C110.996 13.1184 110.616 12.2584 110.616 11.2184C110.616 10.1784 110.996 9.31839 111.756 8.63839C112.516 7.94505 113.496 7.59839 114.696 7.59839C115.896 7.59839 116.876 7.94505 117.636 8.63839C118.396 9.31839 118.776 10.1784 118.776 11.2184ZM117.256 11.2184C117.256 10.5251 117.016 9.96505 116.536 9.53839C116.056 9.09839 115.442 8.87839 114.696 8.87839C113.962 8.87839 113.349 9.09839 112.856 9.53839C112.376 9.97839 112.136 10.5384 112.136 11.2184C112.136 11.8984 112.376 12.4584 112.856 12.8984C113.349 13.3384 113.962 13.5584 114.696 13.5584C115.442 13.5584 116.056 13.3384 116.536 12.8984C117.016 12.4584 117.256 11.8984 117.256 11.2184ZM142.66 15.9784H126.88V14.6984H132.9V8.37839H134.42V14.6984H142.66V15.9784ZM140.54 2.83839V5.03839C140.514 8.21172 140.28 10.7451 139.84 12.6384L138.34 12.3984C138.754 10.7051 138.96 8.51172 138.96 5.81839V4.11839H128.5V2.83839H140.54ZM162.259 6.17839H158.719V4.91839H162.259V1.01839H163.779V18.4984H162.259V11.7984H158.719V10.5384H162.259V6.17839ZM149.539 8.41839C149.539 6.53839 149.919 5.03839 150.679 3.91839C151.439 2.79839 152.499 2.23839 153.859 2.23839C155.232 2.23839 156.299 2.79839 157.059 3.91839C157.819 5.03839 158.199 6.54505 158.199 8.43839C158.199 10.3184 157.819 11.8184 157.059 12.9384C156.299 14.0451 155.232 14.5984 153.859 14.5984C152.499 14.5984 151.439 14.0451 150.679 12.9384C149.919 11.8184 149.539 10.3117 149.539 8.41839ZM156.699 8.43839C156.699 6.98505 156.439 5.81172 155.919 4.91839C155.399 4.01172 154.712 3.55839 153.859 3.55839C153.019 3.55839 152.339 4.01172 151.819 4.91839C151.299 5.82506 151.039 6.99839 151.039 8.43839C151.039 9.86506 151.299 11.0317 151.819 11.9384C152.339 12.8317 153.019 13.2784 153.859 13.2784C154.712 13.2784 155.399 12.8317 155.919 11.9384C156.439 11.0317 156.699 9.86506 156.699 8.43839ZM181.004 18.4984H179.484V9.13839H176.344V7.83839H179.484V1.01839H181.004V18.4984ZM176.664 12.5184L176.824 13.7784C175.93 13.9384 174.664 14.0784 173.024 14.1984C171.397 14.3051 169.924 14.3584 168.604 14.3584H167.344V7.53839H173.784V3.93839H167.344V2.67839H175.304V8.81839H168.864V13.0584C171.997 13.0584 174.597 12.8784 176.664 12.5184ZM196.822 13.8184H189.882V2.93839H196.822V13.8184ZM204.042 18.4984H202.542V9.27839H200.402V17.6184H198.922V1.43839H200.402V7.99839H202.542V1.01839H204.042V18.4984ZM195.322 12.5584V4.19839H191.362V12.5584H195.322ZM220.287 15.1584C220.287 16.1851 219.76 16.9917 218.707 17.5784C217.667 18.1784 216.234 18.4784 214.407 18.4784C212.58 18.4784 211.147 18.1784 210.107 17.5784C209.067 16.9917 208.547 16.1851 208.547 15.1584C208.547 14.1051 209.067 13.2851 210.107 12.6984C211.147 12.0984 212.58 11.7984 214.407 11.7984C216.234 11.7984 217.667 12.0984 218.707 12.6984C219.76 13.2851 220.287 14.1051 220.287 15.1584ZM206.707 3.55839V2.27839H216.247V3.55839H212.267C212.267 4.07839 212.274 4.39839 212.287 4.51839C212.354 5.58505 212.807 6.57172 213.647 7.47839C214.487 8.37172 215.44 8.99172 216.507 9.33839L215.667 10.5584C214.814 10.2117 213.994 9.67839 213.207 8.95839C212.42 8.23839 211.847 7.49172 211.487 6.71839C211.247 7.51839 210.694 8.33839 209.827 9.17839C208.96 10.0051 208.047 10.6251 207.087 11.0384L206.207 9.85839C207.38 9.41839 208.414 8.69172 209.307 7.67839C210.2 6.66505 210.667 5.60505 210.707 4.49839C210.707 4.47172 210.707 4.35172 210.707 4.13839C210.72 3.92505 210.727 3.73172 210.727 3.55839H206.707ZM218.727 15.1584C218.727 14.4917 218.34 13.9784 217.567 13.6184C216.807 13.2584 215.754 13.0784 214.407 13.0784C213.074 13.0784 212.027 13.2584 211.267 13.6184C210.507 13.9784 210.127 14.4917 210.127 15.1584C210.127 15.7984 210.507 16.3051 211.267 16.6784C212.027 17.0384 213.074 17.2184 214.407 17.2184C215.74 17.2184 216.794 17.0384 217.567 16.6784C218.34 16.3051 218.727 15.7984 218.727 15.1584ZM222.747 7.13839H220.047V11.7584H218.527V1.01839H220.047V5.85839H222.747V7.13839ZM236.752 1.01839H238.272V18.4984H236.752V1.01839ZM233.992 6.53839C233.992 7.75172 233.558 8.73172 232.692 9.47839C231.825 10.2251 230.745 10.5984 229.452 10.5984C228.158 10.5984 227.072 10.2117 226.192 9.43839C225.325 8.66506 224.892 7.69839 224.892 6.53839C224.892 5.32506 225.325 4.33172 226.192 3.55839C227.072 2.77172 228.158 2.37839 229.452 2.37839C230.772 2.37839 231.858 2.75839 232.712 3.51839C233.565 4.27839 233.992 5.28505 233.992 6.53839ZM232.512 6.53839C232.512 5.67172 232.218 4.97839 231.632 4.45839C231.045 3.93839 230.318 3.67839 229.452 3.67839C228.598 3.67839 227.872 3.95172 227.272 4.49839C226.672 5.04505 226.372 5.72505 226.372 6.53839C226.372 7.33839 226.665 8.00505 227.252 8.53839C227.852 9.05839 228.585 9.31839 229.452 9.31839C230.305 9.31839 231.025 9.05839 231.612 8.53839C232.212 8.00505 232.512 7.33839 232.512 6.53839ZM235.732 14.0584C234.305 14.2317 232.232 14.3784 229.512 14.4984C227.525 14.5917 225.758 14.6517 224.212 14.6784L223.932 13.3384C225.665 13.3651 227.558 13.3184 229.612 13.1984C232.265 13.1051 234.258 12.9784 235.592 12.8184L235.732 14.0584ZM41.5707 50.5384H29.3107V45.7584H38.6907V44.5184H29.2107V42.6784H41.0107V47.4384H31.6507V48.6584H41.5707V50.5384ZM41.0107 41.7784H38.6907V32.8584H41.0107V41.7784ZM26.8107 37.5984C26.8107 36.4117 27.2573 35.4251 28.1507 34.6384C29.044 33.8517 30.1773 33.4584 31.5507 33.4584C32.9107 33.4584 34.0307 33.8451 34.9107 34.6184C35.804 35.3917 36.2507 36.3851 36.2507 37.5984C36.2507 38.7851 35.8107 39.7451 34.9307 40.4784C34.0507 41.2117 32.924 41.5784 31.5507 41.5784C30.204 41.5784 29.0773 41.2184 28.1707 40.4984C27.264 39.7651 26.8107 38.7984 26.8107 37.5984ZM29.8507 36.0384C29.3707 36.4651 29.1307 36.9784 29.1307 37.5784C29.1307 38.1784 29.3573 38.6717 29.8107 39.0584C30.2773 39.4451 30.8573 39.6384 31.5507 39.6384C32.2573 39.6384 32.8307 39.4384 33.2707 39.0384C33.7107 38.6384 33.9307 38.1517 33.9307 37.5784C33.9307 36.9517 33.7173 36.4317 33.2907 36.0184C32.864 35.5917 32.284 35.3784 31.5507 35.3784C30.8973 35.3784 30.3307 35.5984 29.8507 36.0384ZM58.4554 47.1184C58.4554 48.2117 57.902 49.0717 56.7954 49.6984C55.702 50.3251 54.1754 50.6384 52.2154 50.6384C50.2554 50.6384 48.722 50.3251 47.6154 49.6984C46.522 49.0717 45.9754 48.2117 45.9754 47.1184C45.9754 45.9984 46.522 45.1251 47.6154 44.4984C48.722 43.8584 50.2554 43.5384 52.2154 43.5384C54.1754 43.5384 55.702 43.8584 56.7954 44.4984C57.902 45.1251 58.4554 45.9984 58.4554 47.1184ZM44.2154 36.0384V34.1184H53.5954V36.0384H50.2154C50.2954 37.2117 50.702 38.2184 51.4354 39.0584C52.182 39.8851 53.082 40.4717 54.1354 40.8184C53.9754 41.0584 53.742 41.3984 53.4354 41.8384C53.142 42.2651 52.9554 42.5384 52.8754 42.6584C52.142 42.3784 51.402 41.9184 50.6554 41.2784C49.922 40.6384 49.3754 39.9384 49.0154 39.1784C48.7487 40.0184 48.2087 40.8184 47.3954 41.5784C46.5954 42.3384 45.7554 42.8717 44.8754 43.1784C44.782 43.0584 44.5687 42.7851 44.2354 42.3584C43.9154 41.9184 43.662 41.5851 43.4754 41.3584C44.742 40.9051 45.7554 40.2184 46.5154 39.2984C47.2754 38.3784 47.6887 37.2917 47.7554 36.0384H44.2154ZM53.3154 38.9984V37.1184H55.9954V32.8584H58.3354V43.4584H55.9954V38.9984H53.3154ZM52.2154 45.4184C51.002 45.4184 50.0554 45.5717 49.3754 45.8784C48.7087 46.1717 48.3754 46.5851 48.3754 47.1184C48.3754 47.6384 48.7087 48.0451 49.3754 48.3384C50.0554 48.6317 51.002 48.7784 52.2154 48.7784C53.442 48.7784 54.3887 48.6317 55.0554 48.3384C55.7354 48.0451 56.0754 47.6384 56.0754 47.1184C56.0754 46.5717 55.7354 46.1517 55.0554 45.8584C54.3887 45.5651 53.442 45.4184 52.2154 45.4184ZM82.534 40.1384H80.274V46.0984H77.954V32.8584H80.274V38.1984H82.534V40.1384ZM80.734 50.1984H68.554V44.9584H70.914V48.3384H80.734V50.1984ZM77.134 43.1984C74.8673 43.4517 73.0206 43.5984 71.594 43.6384C68.5006 43.7584 66.654 43.8184 66.054 43.8184L65.754 41.9184C66.4873 41.9184 67.6273 41.9051 69.174 41.8784V38.2984H71.494V41.8184C73.7606 41.7651 75.5806 41.6317 76.954 41.4184L77.134 43.1984ZM75.954 34.1184C75.954 37.1184 75.7873 39.2317 75.454 40.4584L73.234 40.1384C73.474 39.2317 73.594 37.8451 73.594 35.9784H66.854V34.1184H75.954ZM95.8586 32.8584H98.1786V50.6784H95.8586V32.8584ZM94.2986 44.1584L94.5586 46.0184C92.652 46.4051 89.912 46.5984 86.3386 46.5984H84.4586V39.1984H90.2386V36.2384H84.3786V34.3784H92.5986V41.0584H86.7786V44.6784C89.912 44.6784 92.4186 44.5051 94.2986 44.1584ZM111.763 46.7184C110.283 46.9451 108.15 47.1251 105.363 47.2584C103.563 47.3384 102.05 47.3784 100.823 47.3784L100.523 45.4584C102.443 45.4584 103.877 45.4451 104.823 45.4184V42.4584C103.757 42.2584 102.897 41.7984 102.243 41.0784C101.603 40.3584 101.283 39.4717 101.283 38.4184C101.283 37.1917 101.73 36.1717 102.623 35.3584C103.517 34.5317 104.63 34.1184 105.963 34.1184C107.297 34.1184 108.41 34.5251 109.303 35.3384C110.21 36.1517 110.663 37.1784 110.663 38.4184C110.663 39.4584 110.337 40.3384 109.683 41.0584C109.043 41.7651 108.203 42.2251 107.163 42.4384V45.2984C109.057 45.1917 110.51 45.0651 111.523 44.9184L111.763 46.7184ZM114.863 32.8584V39.9984H117.163V41.9184H114.863V50.6784H112.543V32.8584H114.863ZM103.563 38.3984C103.563 39.0784 103.797 39.6184 104.263 40.0184C104.73 40.4051 105.297 40.5984 105.963 40.5984C106.617 40.5984 107.17 40.4051 107.623 40.0184C108.09 39.6184 108.323 39.0784 108.323 38.3984C108.323 37.6784 108.09 37.1117 107.623 36.6984C107.17 36.2717 106.617 36.0584 105.963 36.0584C105.297 36.0584 104.73 36.2784 104.263 36.7184C103.797 37.1451 103.563 37.7051 103.563 38.3984ZM137.322 50.4584H125.342V43.0584H127.662V45.0584H135.002V43.0184H137.322V50.4584ZM137.362 33.5184C137.362 35.7984 137.175 37.8851 136.802 39.7784H139.382V41.6584H123.282V39.7784H134.582C134.902 38.2984 135.049 36.8251 135.022 35.3584H125.382V33.5184H137.362ZM135.002 48.6184V46.8184H127.662V48.6184H135.002ZM150.387 44.0984L150.467 42.0984H153.027V38.3584H150.467L150.387 36.3784H153.027V32.8584H155.367V50.6784H153.027V44.0984H150.387ZM140.727 40.4584C140.727 38.5384 141.133 36.9984 141.947 35.8384C142.76 34.6651 143.88 34.0784 145.307 34.0784C146.747 34.0784 147.873 34.6651 148.687 35.8384C149.5 36.9984 149.907 38.5384 149.907 40.4584C149.907 42.3517 149.5 43.8851 148.687 45.0584C147.873 46.2184 146.747 46.7984 145.307 46.7984C143.88 46.7984 142.76 46.2184 141.947 45.0584C141.133 43.8984 140.727 42.3651 140.727 40.4584ZM147.667 40.4584C147.667 39.0717 147.447 37.9784 147.007 37.1784C146.58 36.3651 146.013 35.9584 145.307 35.9584C144.627 35.9584 144.073 36.3651 143.647 37.1784C143.22 37.9784 143.007 39.0717 143.007 40.4584C143.007 41.8317 143.22 42.9184 143.647 43.7184C144.073 44.5184 144.627 44.9184 145.307 44.9184C146.013 44.9184 146.58 44.5184 147.007 43.7184C147.447 42.9184 147.667 41.8317 147.667 40.4584ZM174.785 49.8584H172.605V43.8584H170.345V41.9584H172.605V39.4384H170.785V37.5384H172.605V33.1984H174.785V49.8584ZM178.345 50.6784H176.125V32.8584H178.345V50.6784ZM170.605 34.9584C170.632 40.3184 168.519 44.3984 164.265 47.1984L162.745 45.5784C164.439 44.5517 165.759 43.2917 166.705 41.7984C167.652 40.2917 168.199 38.6384 168.345 36.8384H163.865V34.9584H170.605ZM194.43 32.8584V37.9584H196.97V39.8984H194.43V45.7784H192.09V32.8584H194.43ZM194.87 50.2184H183.09V44.4384H185.43V48.3784H194.87V50.2184ZM190.87 41.2784L189.53 43.0984C188.823 42.8184 188.07 42.3184 187.27 41.5984C186.483 40.8651 185.91 40.1051 185.55 39.3184C185.283 40.1984 184.75 41.0517 183.95 41.8784C183.15 42.6917 182.323 43.2651 181.47 43.5984L180.07 41.7584C181.363 41.2917 182.397 40.5117 183.17 39.4184C183.943 38.3117 184.33 37.0851 184.33 35.7384V33.8584H186.73V35.6184C186.73 36.9384 187.143 38.1251 187.97 39.1784C188.797 40.2184 189.763 40.9184 190.87 41.2784ZM213.735 41.8584H197.955V40.5784H213.735V41.8584ZM210.335 34.0584C211.428 34.5917 211.975 35.3384 211.975 36.2984C211.975 37.2584 211.428 38.0051 210.335 38.5384C209.255 39.0584 207.761 39.3184 205.855 39.3184C203.961 39.3184 202.475 39.0584 201.395 38.5384C200.315 38.0051 199.775 37.2584 199.775 36.2984C199.775 35.3384 200.315 34.5917 201.395 34.0584C202.475 33.5251 203.961 33.2584 205.855 33.2584C207.761 33.2584 209.255 33.5251 210.335 34.0584ZM205.855 34.4984C204.481 34.4984 203.381 34.6651 202.555 34.9984C201.741 35.3184 201.335 35.7517 201.335 36.2984C201.335 36.8317 201.741 37.2584 202.555 37.5784C203.381 37.8984 204.481 38.0584 205.855 38.0584C207.255 38.0584 208.368 37.8984 209.195 37.5784C210.021 37.2584 210.435 36.8317 210.435 36.2984C210.435 35.7517 210.015 35.3184 209.175 34.9984C208.348 34.6651 207.241 34.4984 205.855 34.4984ZM212.335 50.3384H199.795V46.1784H210.235V44.6384H199.755V43.4184H211.755V47.3384H201.315V49.0984H212.335V50.3384ZM57.1981 68.8184L56.5981 74.1984C57.4914 74.1451 58.2781 74.0717 58.9581 73.9784L59.0981 75.1784C57.8714 75.3517 56.3781 75.4851 54.6181 75.5784C52.2181 75.6584 50.4514 75.6984 49.3181 75.6984L49.0581 74.3384H51.3581L50.8581 68.8584L52.3781 68.6784L52.7381 74.3384C53.3514 74.3384 53.9648 74.3184 54.5781 74.2784C54.6581 74.2784 54.7714 74.2784 54.9181 74.2784C55.0648 74.2651 55.1781 74.2584 55.2581 74.2584L55.6781 68.6384L57.1981 68.8184ZM58.6981 69.7184V68.4784H61.8181V65.0184H63.3381V77.7784H61.8181V73.1384H58.6981V71.8784H61.8181V69.7184H58.6981ZM63.6981 81.9984H51.9581V76.7584H53.4781V80.7184H63.6981V81.9984ZM58.7981 67.7384H49.5181V66.4784H58.7981V67.7384ZM79.2028 65.0184H80.7228V82.4984H79.2028V65.0184ZM77.6028 76.4784L77.7428 77.7384C75.2228 78.1251 72.3361 78.3184 69.0828 78.3184H67.3028V71.5784H73.9228V67.8984H67.2228V66.6384H75.4628V72.8384H68.8228V77.0184H69.2428C72.8028 77.0184 75.5895 76.8384 77.6028 76.4784ZM99.9475 73.6784H97.1075V82.4984H95.5875V65.0184H97.1075V72.3984H99.9475V73.6784ZM91.3275 67.5184H86.1875V66.2184H91.3275V67.5184ZM93.9075 70.4784H83.5875V69.2184H93.9075V70.4784ZM92.8675 75.2184C92.8675 76.2451 92.4875 77.1051 91.7275 77.7984C90.9675 78.4784 89.9875 78.8184 88.7875 78.8184C87.5875 78.8184 86.6075 78.4784 85.8475 77.7984C85.0875 77.1184 84.7075 76.2584 84.7075 75.2184C84.7075 74.1784 85.0875 73.3184 85.8475 72.6384C86.6075 71.9451 87.5875 71.5984 88.7875 71.5984C89.9875 71.5984 90.9675 71.9451 91.7275 72.6384C92.4875 73.3184 92.8675 74.1784 92.8675 75.2184ZM91.3475 75.2184C91.3475 74.5251 91.1075 73.9651 90.6275 73.5384C90.1475 73.0984 89.5341 72.8784 88.7875 72.8784C88.0541 72.8784 87.4408 73.0984 86.9475 73.5384C86.4675 73.9784 86.2275 74.5384 86.2275 75.2184C86.2275 75.8984 86.4675 76.4584 86.9475 76.8984C87.4408 77.3384 88.0541 77.5584 88.7875 77.5584C89.5341 77.5584 90.1475 77.3384 90.6275 76.8984C91.1075 76.4584 91.3475 75.8984 91.3475 75.2184ZM115.712 82.4984H114.212V65.0184H115.712V82.4984ZM112.312 81.6184H110.852V73.0984H107.912V71.8184H110.852V65.4384H112.312V81.6184ZM108.352 67.0584C108.232 72.1251 106.059 76.0251 101.832 78.7584L100.792 77.6384C102.579 76.6251 103.999 75.2784 105.052 73.5984C106.119 71.9184 106.699 70.1651 106.792 68.3384H101.472V67.0584H108.352ZM138.271 82.4984H136.771V73.4384H134.671V81.6184H133.191V65.4384H134.671V72.1584H136.771V65.0184H138.271V82.4984ZM130.811 72.5184C131.517 73.1584 131.871 73.9984 131.871 75.0384C131.871 76.0784 131.517 76.9184 130.811 77.5584C130.104 78.1984 129.184 78.5184 128.051 78.5184C126.931 78.5184 126.011 78.1917 125.291 77.5384C124.584 76.8717 124.231 76.0384 124.231 75.0384C124.231 73.9851 124.584 73.1384 125.291 72.4984C125.997 71.8584 126.917 71.5384 128.051 71.5384C129.184 71.5384 130.104 71.8651 130.811 72.5184ZM130.411 75.0384C130.411 74.3717 130.191 73.8384 129.751 73.4384C129.311 73.0251 128.744 72.8184 128.051 72.8184C127.357 72.8184 126.791 73.0251 126.351 73.4384C125.924 73.8384 125.711 74.3717 125.711 75.0384C125.711 75.7184 125.924 76.2584 126.351 76.6584C126.791 77.0584 127.357 77.2584 128.051 77.2584C128.744 77.2584 129.311 77.0517 129.751 76.6384C130.191 76.2251 130.411 75.6917 130.411 75.0384ZM132.191 70.5384H123.491V69.2784H132.191V70.5384ZM130.311 67.6784H125.531V66.3584H130.311V67.6784ZM154.695 75.4784H149.455V79.0384H156.615V80.3184H140.835V79.0384H147.935V75.4784H142.735V66.2184H144.275V69.4384H153.175V66.2184H154.695V75.4784ZM153.175 74.2184V70.6984H144.275V74.2184H153.175ZM172.94 82.4984H171.44V65.0184H172.94V82.4984ZM169.48 81.6184H168V72.5984H164.9V71.3184H168V65.4384H169.48V81.6184ZM166.94 76.9784L166 78.0984C165.253 77.5651 164.507 76.8251 163.76 75.8784C163.027 74.9317 162.527 73.9984 162.26 73.0784C162.073 74.0784 161.647 75.0984 160.98 76.1384C160.327 77.1651 159.567 77.9917 158.7 78.6184L157.76 77.4784C158.8 76.8117 159.68 75.7784 160.4 74.3784C161.133 72.9784 161.5 71.4584 161.5 69.8184V66.6384H163V69.7784C163 71.3517 163.387 72.7651 164.16 74.0184C164.933 75.2717 165.86 76.2584 166.94 76.9784ZM189.625 70.7184C189.625 72.0651 189.045 73.1517 187.885 73.9784C186.725 74.8051 185.198 75.2184 183.305 75.2184C181.425 75.2184 179.905 74.8051 178.745 73.9784C177.598 73.1517 177.025 72.0651 177.025 70.7184C177.025 69.3717 177.598 68.2784 178.745 67.4384C179.905 66.5984 181.425 66.1784 183.305 66.1784C185.211 66.1784 186.738 66.5984 187.885 67.4384C189.045 68.2651 189.625 69.3584 189.625 70.7184ZM186.825 73.0984C187.718 72.4984 188.165 71.7051 188.165 70.7184C188.165 69.7317 187.718 68.9384 186.825 68.3384C185.945 67.7384 184.771 67.4384 183.305 67.4384C181.851 67.4384 180.685 67.7384 179.805 68.3384C178.925 68.9384 178.485 69.7317 178.485 70.7184C178.485 71.7051 178.925 72.4984 179.805 73.0984C180.685 73.6984 181.851 73.9984 183.305 73.9984C184.758 73.9984 185.931 73.6984 186.825 73.0984ZM191.225 80.2784H175.445V78.9984H179.345V75.7384L180.865 75.6984V78.9984H185.745V75.6984L187.265 75.7384V78.9984H191.225V80.2784ZM194.01 77.2384L193.77 66.1184H195.59L195.35 77.2384H194.01ZM193.83 80.6384V78.8584H195.55V80.6384H193.83Z" fill="#111111"/>
</svg>
