<svg width="301" height="51" viewBox="0 0 301 51" fill="none" xmlns="http://www.w3.org/2000/svg">
<path d="M35.4335 6.17839H32.7735V9.95839H31.2535V1.01839H32.7735V4.89839H35.4335V6.17839ZM33.4135 18.3584H21.6735V13.9784H31.2535V12.2184H21.6735V10.9584H32.7735V15.1384H23.1935V17.0784H33.4135V18.3584ZM20.8935 2.75839C21.7602 1.99839 22.8268 1.61839 24.0935 1.61839C25.3602 1.61839 26.4268 1.99172 27.2935 2.73839C28.1602 3.48505 28.5935 4.44505 28.5935 5.61839C28.5935 6.79172 28.1602 7.74505 27.2935 8.47839C26.4268 9.21172 25.3602 9.57839 24.0935 9.57839C22.8268 9.57839 21.7602 9.21839 20.8935 8.49839C20.0268 7.76506 19.5935 6.80506 19.5935 5.61839C19.5935 4.45839 20.0268 3.50506 20.8935 2.75839ZM24.0935 2.97839C23.2402 2.97839 22.5202 3.22505 21.9335 3.71839C21.3602 4.21172 21.0735 4.84505 21.0735 5.61839C21.0735 6.39172 21.3602 7.01839 21.9335 7.49839C22.5068 7.97839 23.2268 8.21839 24.0935 8.21839C25.0002 8.21839 25.7268 7.98505 26.2735 7.51839C26.8335 7.03839 27.1135 6.40505 27.1135 5.61839C27.1135 4.83172 26.8335 4.19839 26.2735 3.71839C25.7268 3.22505 25.0002 2.97839 24.0935 2.97839ZM52.9182 9.25839H50.0782V18.4984H48.5582V1.01839H50.0782V7.95839H52.9182V9.25839ZM45.4382 14.1584H37.2182V2.49839H38.7382V6.93839H43.8982V2.49839H45.4382V14.1584ZM43.8982 12.8784V8.19839H38.7382V12.8784H43.8982ZM58.0629 2.53839C59.2362 2.53839 60.1495 3.03172 60.8029 4.01839C61.4695 4.99172 61.8362 6.29839 61.9029 7.93839H63.7829V1.35839H65.2629V17.6584H63.7829V9.19839H61.9029C61.8229 10.8251 61.4562 12.1184 60.8029 13.0784C60.1495 14.0251 59.2362 14.4984 58.0629 14.4984C56.8229 14.4984 55.8695 13.9584 55.2029 12.8784C54.5495 11.7851 54.2229 10.3317 54.2229 8.51839C54.2229 6.70506 54.5495 5.25839 55.2029 4.17839C55.8695 3.08505 56.8229 2.53839 58.0629 2.53839ZM59.7629 11.8984C60.1895 11.0584 60.4029 9.93172 60.4029 8.51839C60.4029 7.10505 60.1895 5.97839 59.7629 5.13839C59.3362 4.29839 58.7695 3.87839 58.0629 3.87839C57.3695 3.87839 56.8095 4.29839 56.3829 5.13839C55.9695 5.97839 55.7629 7.10505 55.7629 8.51839C55.7629 9.93172 55.9695 11.0584 56.3829 11.8984C56.7962 12.7384 57.3562 13.1584 58.0629 13.1584C58.7695 13.1584 59.3362 12.7384 59.7629 11.8984ZM68.6829 18.4984H67.1829V1.01839H68.6829V18.4984ZM92.6215 7.91839H90.0015V14.1384H88.4815V1.01839H90.0015V6.63839H92.6215V7.91839ZM90.7015 18.0784H78.8215V12.9784H80.3415V16.7984H90.7015V18.0784ZM87.4215 10.9984C85.8348 11.2384 83.9415 11.4117 81.7415 11.5184C78.5415 11.6251 76.7615 11.6784 76.4015 11.6784L76.2015 10.3184C77.9348 10.3184 79.2348 10.3051 80.1015 10.2784V6.13839H81.6015V10.2384C84.1348 10.1451 86.0215 9.99172 87.2615 9.77839L87.4215 10.9984ZM86.0815 2.27839C86.1481 4.66505 85.9681 6.71839 85.5415 8.43839L84.0615 8.19839C84.2215 7.62505 84.3415 6.88505 84.4215 5.97839C84.5148 5.05839 84.5481 4.25172 84.5215 3.55839H77.2615V2.27839H86.0815ZM108.086 13.8384H106.566V9.11839H103.426V7.87839H106.566V5.29839H103.426V4.05839H106.566V1.01839H108.086V13.8384ZM108.546 18.1584H96.6661V13.0584H98.2061V16.9184H108.546V18.1584ZM103.086 10.2384L103.246 11.4584C101.513 11.7517 99.2128 11.8984 96.3461 11.8984L94.3861 11.8784V6.31839H100.726V3.47839H94.3661V2.21839H102.246V7.55839H95.9061V10.6184L96.7861 10.6384C99.3328 10.6651 101.433 10.5317 103.086 10.2384ZM122.691 11.3584C121.224 11.5451 119.351 11.7051 117.071 11.8384C114.764 11.9317 112.857 11.9784 111.351 11.9784L111.131 10.6584C113.224 10.6584 114.897 10.6451 116.151 10.6184V8.23839H112.491V2.29839H121.391V3.53839H114.011V7.01839H121.491V8.23839H117.691V10.5584C119.931 10.4384 121.551 10.3051 122.551 10.1584L122.691 11.3584ZM125.791 18.0584H114.031V13.1184H115.551V16.7984H125.791V18.0584ZM125.431 14.2184H123.911V1.01839H125.431V14.2184ZM144.269 12.8384L142.969 14.5384C142.129 14.1251 141.269 13.4251 140.389 12.4384C139.509 11.4517 138.943 10.5384 138.689 9.69839C138.463 10.6451 137.936 11.6317 137.109 12.6584C136.296 13.6717 135.383 14.4251 134.369 14.9184L132.929 13.1784C135.943 11.5251 137.449 8.82505 137.449 5.07839V4.59839H133.849V2.67839H143.349V4.59839H139.869V5.05839C139.869 8.63172 141.336 11.2251 144.269 12.8384ZM147.449 0.858388V7.71839H149.989V9.65839H147.449V18.6784H145.109V0.858388H147.449ZM165.174 5.61839C165.174 6.80506 164.594 7.76506 163.434 8.49839C162.287 9.21839 160.754 9.57839 158.834 9.57839C156.927 9.57839 155.394 9.21839 154.234 8.49839C153.087 7.76506 152.514 6.80506 152.514 5.61839C152.514 4.44505 153.087 3.49839 154.234 2.77839C155.394 2.04505 156.927 1.67839 158.834 1.67839C160.754 1.67839 162.287 2.04505 163.434 2.77839C164.594 3.49839 165.174 4.44505 165.174 5.61839ZM156.934 18.6584H154.594V12.7184H150.814V10.8584H166.914V12.7184H163.054V18.6584H160.714V12.7184H156.934V18.6584ZM161.654 7.11839C162.374 6.71839 162.734 6.21839 162.734 5.61839C162.734 5.01839 162.381 4.52506 161.674 4.13839C160.967 3.75172 160.021 3.55839 158.834 3.55839C157.647 3.55839 156.701 3.75172 155.994 4.13839C155.287 4.52506 154.934 5.01839 154.934 5.61839C154.934 6.21839 155.287 6.71839 155.994 7.11839C156.701 7.50505 157.647 7.69839 158.834 7.69839C160.007 7.69839 160.947 7.50505 161.654 7.11839ZM182.699 11.8184H177.299V14.5984H184.219V16.4584H168.119V14.5984H174.959V11.8184H170.179V5.91839H179.859V3.85839H170.079V1.99839H182.179V7.77839H172.499V9.93839H182.699V11.8184ZM199.703 4.93839C199.703 6.00506 199.143 6.87172 198.023 7.53839C196.917 8.20505 195.403 8.53839 193.483 8.53839C191.563 8.53839 190.05 8.20505 188.943 7.53839C187.837 6.87172 187.283 6.00506 187.283 4.93839C187.283 3.89839 187.837 3.04505 188.943 2.37839C190.05 1.71172 191.557 1.37839 193.463 1.37839C195.383 1.37839 196.903 1.71172 198.023 2.37839C199.143 3.04505 199.703 3.89839 199.703 4.93839ZM194.803 14.7584H192.483V11.5384H185.423V9.67839H201.523V11.5384H194.803V14.7584ZM199.663 18.1984H187.483V13.1184H189.803V16.3584H199.663V18.1984ZM197.283 4.97839C197.283 4.43172 196.937 3.99172 196.243 3.65839C195.563 3.32505 194.637 3.15839 193.463 3.15839C192.317 3.15839 191.397 3.32505 190.703 3.65839C190.023 3.99172 189.683 4.43172 189.683 4.97839C189.683 5.49839 190.023 5.91839 190.703 6.23839C191.397 6.55839 192.317 6.71839 193.463 6.71839C194.637 6.71839 195.563 6.55839 196.243 6.23839C196.937 5.91839 197.283 5.49839 197.283 4.97839ZM222.702 18.6784H220.382V0.858388H222.702V18.6784ZM209.702 13.0584C208.889 11.8984 208.482 10.3651 208.482 8.45839C208.482 6.55172 208.889 5.01172 209.702 3.83839C210.529 2.66505 211.655 2.07839 213.082 2.07839C214.522 2.07839 215.649 2.66505 216.462 3.83839C217.289 5.01172 217.702 6.55172 217.702 8.45839C217.702 10.3517 217.289 11.8851 216.462 13.0584C215.649 14.2184 214.522 14.7984 213.082 14.7984C211.655 14.7984 210.529 14.2184 209.702 13.0584ZM215.462 8.45839C215.462 7.07172 215.242 5.97839 214.802 5.17839C214.362 4.36506 213.789 3.95839 213.082 3.95839C212.402 3.95839 211.842 4.36506 211.402 5.17839C210.975 5.97839 210.762 7.07172 210.762 8.45839C210.762 9.83172 210.975 10.9184 211.402 11.7184C211.842 12.5184 212.402 12.9184 213.082 12.9184C213.789 12.9184 214.362 12.5184 214.802 11.7184C215.242 10.9184 215.462 9.83172 215.462 8.45839ZM225.427 8.45839C225.427 6.55172 225.84 5.01172 226.667 3.83839C227.493 2.66505 228.62 2.07839 230.047 2.07839C231.487 2.07839 232.613 2.66505 233.427 3.83839C234.253 5.01172 234.667 6.55172 234.667 8.45839C234.667 10.3517 234.253 11.8851 233.427 13.0584C232.613 14.2184 231.487 14.7984 230.047 14.7984C228.62 14.7984 227.493 14.2184 226.667 13.0584C225.84 11.8851 225.427 10.3517 225.427 8.45839ZM241.707 5.03839V6.97839H239.207V10.5784H241.707V12.5184H239.207V18.6784H236.867V0.858388H239.207V5.03839H241.707ZM232.427 8.45839C232.427 7.07172 232.207 5.97839 231.767 5.17839C231.327 4.36506 230.753 3.95839 230.047 3.95839C229.367 3.95839 228.807 4.36506 228.367 5.17839C227.927 5.97839 227.707 7.07172 227.707 8.45839C227.707 9.83172 227.927 10.9184 228.367 11.7184C228.807 12.5184 229.367 12.9184 230.047 12.9184C230.753 12.9184 231.327 12.5184 231.767 11.7184C232.207 10.9184 232.427 9.83172 232.427 8.45839ZM257.331 18.6784H254.991V0.858388H257.331V18.6784ZM251.851 2.71839C251.705 8.39839 249.051 12.6451 243.891 15.4584L242.451 13.6984C244.371 12.8184 245.958 11.5451 247.211 9.87839C248.465 8.19839 249.171 6.45839 249.331 4.65839H243.531V2.71839H251.851ZM275.836 10.3384H260.056V9.15839H275.836V10.3384ZM274.516 18.1784H261.876V14.2984H272.456V12.8384H261.896V11.7184H273.976V15.3784H263.396V16.9784H274.516V18.1784ZM274.216 7.77839H262.056V4.15839H272.356V2.79839H262.036V1.59839H273.876V5.25839H263.576V6.63839H274.216V7.77839ZM9.87067 43.9984L10.0907 45.2784C9.07734 45.5184 7.67734 45.7117 5.89067 45.8584C4.11734 46.0051 2.51734 46.0784 1.09067 46.0784H0.0306739V34.7584H1.55067V44.7384C5.16401 44.7117 7.93734 44.4651 9.87067 43.9984ZM12.8707 33.0184V39.9584H15.7307V41.2584H12.8707V50.4984H11.3507V33.0184H12.8707ZM25.3754 50.5184H23.8554V44.2784H16.7554V42.9984H32.5354V44.2784H25.3754V50.5184ZM30.6954 40.4984H18.7354V33.9584H20.2554V39.2184H30.6954V40.4984ZM49.84 47.9784H34.06V46.6984H40.08V40.3784H41.6V46.6984H49.84V47.9784ZM47.72 34.8384V37.0384C47.6934 40.2117 47.46 42.7451 47.02 44.6384L45.52 44.3984C45.9334 42.7051 46.14 40.5117 46.14 37.8184V36.1184H35.68V34.8384H47.72ZM71.6386 50.6784H69.4186V41.7384H67.9386V49.8584H65.7386V33.1784H67.9386V39.8584H69.4186V32.8584H71.6386V50.6784ZM65.2186 45.2984L63.9186 46.9584C63.3053 46.5984 62.6853 46.0384 62.0586 45.2784C61.432 44.5184 61.012 43.7651 60.7986 43.0184C60.5986 43.8317 60.172 44.6517 59.5186 45.4784C58.8786 46.3051 58.192 46.9317 57.4586 47.3584L56.0386 45.7784C57.2253 45.0051 58.112 44.1051 58.6986 43.0784C59.2853 42.0517 59.612 40.7517 59.6786 39.1784H56.7386V37.3184H64.7786V39.1784H61.9586C62.1053 42.0717 63.192 44.1117 65.2186 45.2984ZM63.1586 36.0784H58.4986V34.2184H63.1586V36.0784ZM88.5833 47.0984C88.5833 48.1517 88.0233 48.9784 86.9033 49.5784C85.7967 50.1784 84.25 50.4784 82.2633 50.4784C80.29 50.4784 78.75 50.1784 77.6433 49.5784C76.5367 48.9784 75.9833 48.1517 75.9833 47.0984C75.9833 46.0184 76.5367 45.1717 77.6433 44.5584C78.75 43.9451 80.29 43.6384 82.2633 43.6384C84.25 43.6384 85.7967 43.9451 86.9033 44.5584C88.0233 45.1717 88.5833 46.0184 88.5833 47.0984ZM88.4833 32.8584V43.2984H86.1433V32.8584H88.4833ZM86.1233 47.0984C86.1233 46.5917 85.7833 46.1984 85.1033 45.9184C84.4233 45.6384 83.4767 45.4984 82.2633 45.4984C81.0767 45.4984 80.1433 45.6451 79.4633 45.9384C78.7833 46.2184 78.4433 46.6051 78.4433 47.0984C78.4433 47.5784 78.7833 47.9584 79.4633 48.2384C80.1433 48.5051 81.0767 48.6384 82.2633 48.6384C83.4767 48.6384 84.4233 48.5051 85.1033 48.2384C85.7833 47.9584 86.1233 47.5784 86.1233 47.0984ZM84.2833 40.4184L84.5233 42.1984C82.8167 42.5584 80.1233 42.7384 76.4433 42.7384H74.7633V34.0384H83.0833V35.8984H77.0633V37.3984H82.7633V39.2584H77.0633V40.8784C79.8233 40.9851 82.23 40.8317 84.2833 40.4184ZM107.168 42.2384H91.068V40.3784H107.168V42.2384ZM105.688 50.5984H92.988V46.0584H102.728V45.0384H93.008V43.2184H105.048V47.6984H95.328V48.6784H105.688V50.5984ZM95.268 36.3184C95.268 36.7317 95.6147 37.0784 96.308 37.3584C97.0014 37.6251 97.948 37.7584 99.148 37.7584C100.348 37.7584 101.295 37.6251 101.988 37.3584C102.695 37.0784 103.048 36.7317 103.048 36.3184C103.048 35.8917 102.701 35.5517 102.008 35.2984C101.315 35.0317 100.361 34.8984 99.148 34.8984C97.9347 34.8984 96.9814 35.0317 96.288 35.2984C95.608 35.5517 95.268 35.8917 95.268 36.3184ZM92.848 36.3184C92.848 35.3317 93.3947 34.5517 94.488 33.9784C95.5947 33.4051 97.148 33.1184 99.148 33.1184C101.135 33.1184 102.681 33.4051 103.788 33.9784C104.895 34.5517 105.448 35.3317 105.448 36.3184C105.448 37.2917 104.895 38.0717 103.788 38.6584C102.681 39.2317 101.135 39.5184 99.148 39.5184C97.1614 39.5184 95.6147 39.2317 94.508 38.6584C93.4014 38.0717 92.848 37.2917 92.848 36.3184ZM127.867 40.8984H122.807V42.0384H129.727V43.9184H113.627V42.0384H120.467V40.8984H115.747V33.5184H127.707V35.3384H118.087V36.3384H127.107V38.0984H118.087V39.0784H127.867V40.8984ZM126.347 45.4384C127.387 45.9984 127.907 46.7584 127.907 47.7184C127.907 48.6784 127.387 49.4384 126.347 49.9984C125.32 50.5717 123.767 50.8584 121.687 50.8584C119.607 50.8584 118.047 50.5717 117.007 49.9984C115.98 49.4384 115.467 48.6784 115.467 47.7184C115.467 46.7584 115.98 45.9984 117.007 45.4384C118.047 44.8651 119.6 44.5784 121.667 44.5784C123.76 44.5784 125.32 44.8651 126.347 45.4384ZM125.487 47.7184C125.487 47.3051 125.147 46.9851 124.467 46.7584C123.787 46.5184 122.853 46.3984 121.667 46.3984C120.507 46.3984 119.587 46.5184 118.907 46.7584C118.227 46.9851 117.887 47.3051 117.887 47.7184C117.887 48.1184 118.227 48.4317 118.907 48.6584C119.587 48.8851 120.507 48.9984 121.667 48.9984C122.853 48.9984 123.787 48.8851 124.467 48.6584C125.147 48.4317 125.487 48.1184 125.487 47.7184ZM146.091 50.6784H143.871V41.9384H142.391V49.8584H140.211V33.1784H142.391V40.0584H143.871V32.8584H146.091V50.6784ZM138.011 40.6584C138.731 41.3251 139.091 42.2184 139.091 43.3384C139.091 44.4584 138.731 45.3584 138.011 46.0384C137.291 46.7051 136.351 47.0384 135.191 47.0384C134.045 47.0384 133.105 46.6917 132.371 45.9984C131.651 45.2917 131.291 44.4051 131.291 43.3384C131.291 42.2184 131.651 41.3251 132.371 40.6584C133.105 39.9784 134.045 39.6384 135.191 39.6384C136.351 39.6384 137.291 39.9784 138.011 40.6584ZM130.911 38.9784V37.1184H139.411V38.9784H130.911ZM136.991 43.3384C136.991 42.7917 136.818 42.3451 136.471 41.9984C136.138 41.6517 135.711 41.4784 135.191 41.4784C134.671 41.4784 134.245 41.6517 133.911 41.9984C133.578 42.3451 133.411 42.7917 133.411 43.3384C133.411 43.8984 133.578 44.3517 133.911 44.6984C134.245 45.0317 134.671 45.1984 135.191 45.1984C135.711 45.1984 136.138 45.0251 136.471 44.6784C136.818 44.3184 136.991 43.8717 136.991 43.3384ZM132.851 36.0984V34.2384H137.651V36.0984H132.851ZM169.59 48.1784H153.49V46.3184H159.27V40.3184H161.61V46.3184H169.59V48.1784ZM167.75 34.4184C167.83 38.9117 167.577 42.2784 166.99 44.5184L164.75 44.2384C165.257 42.3584 165.47 39.7117 165.39 36.2984H155.21V34.4184H167.75ZM185.515 45.7784H183.195V32.8584H185.515V45.7784ZM185.895 50.1984H173.595V44.4984H175.955V48.3584H185.895V50.1984ZM180.155 42.6184H171.695V34.1984H180.155V42.6184ZM177.855 40.7784V36.0184H174.015V40.7784H177.855ZM204.199 42.2384H188.099V40.3784H204.199V42.2384ZM202.719 50.5984H190.019V46.0584H199.759V45.0384H190.039V43.2184H202.079V47.6984H192.359V48.6784H202.719V50.5984ZM192.299 36.3184C192.299 36.7317 192.646 37.0784 193.339 37.3584C194.033 37.6251 194.979 37.7584 196.179 37.7584C197.379 37.7584 198.326 37.6251 199.019 37.3584C199.726 37.0784 200.079 36.7317 200.079 36.3184C200.079 35.8917 199.733 35.5517 199.039 35.2984C198.346 35.0317 197.393 34.8984 196.179 34.8984C194.966 34.8984 194.013 35.0317 193.319 35.2984C192.639 35.5517 192.299 35.8917 192.299 36.3184ZM189.879 36.3184C189.879 35.3317 190.426 34.5517 191.519 33.9784C192.626 33.4051 194.179 33.1184 196.179 33.1184C198.166 33.1184 199.713 33.4051 200.819 33.9784C201.926 34.5517 202.479 35.3317 202.479 36.3184C202.479 37.2917 201.926 38.0717 200.819 38.6584C199.713 39.2317 198.166 39.5184 196.179 39.5184C194.193 39.5184 192.646 39.2317 191.539 38.6584C190.433 38.0717 189.879 37.2917 189.879 36.3184ZM225.818 50.6784H223.598V41.9384H222.118V49.8584H219.938V33.1784H222.118V40.0584H223.598V32.8584H225.818V50.6784ZM217.738 40.6584C218.458 41.3251 218.818 42.2184 218.818 43.3384C218.818 44.4584 218.458 45.3584 217.738 46.0384C217.018 46.7051 216.078 47.0384 214.918 47.0384C213.771 47.0384 212.831 46.6917 212.098 45.9984C211.378 45.2917 211.018 44.4051 211.018 43.3384C211.018 42.2184 211.378 41.3251 212.098 40.6584C212.831 39.9784 213.771 39.6384 214.918 39.6384C216.078 39.6384 217.018 39.9784 217.738 40.6584ZM210.638 38.9784V37.1184H219.138V38.9784H210.638ZM216.718 43.3384C216.718 42.7917 216.545 42.3451 216.198 41.9984C215.865 41.6517 215.438 41.4784 214.918 41.4784C214.398 41.4784 213.971 41.6517 213.638 41.9984C213.305 42.3451 213.138 42.7917 213.138 43.3384C213.138 43.8984 213.305 44.3517 213.638 44.6984C213.971 45.0317 214.398 45.1984 214.918 45.1984C215.438 45.1984 215.865 45.0251 216.198 44.6784C216.545 44.3184 216.718 43.8717 216.718 43.3384ZM212.578 36.0984V34.2384H217.378V36.0984H212.578ZM243.243 50.5584H230.983V45.7584H240.363V44.5184H230.883V42.6584H242.683V47.4584H233.343V48.6784H243.243V50.5584ZM242.683 41.7784H240.363V40.2584H237.023V38.4984H240.363V36.9984H237.343V35.2384H240.363V32.8584H242.683V41.7784ZM237.123 33.6184C237.123 34.8317 236.889 35.9451 236.423 36.9584C235.969 37.9717 235.356 38.8251 234.583 39.5184C233.809 40.1984 232.963 40.7651 232.043 41.2184C231.123 41.6717 230.143 42.0051 229.103 42.2184L227.963 40.3184C229.603 40.0917 231.029 39.5517 232.243 38.6984C233.456 37.8451 234.216 36.7984 234.523 35.5584H228.823V33.6184H237.123ZM261.707 41.6784H258.867V50.4984H257.347V33.0184H258.867V40.3984H261.707V41.6784ZM253.087 35.5184H247.947V34.2184H253.087V35.5184ZM255.667 38.4784H245.347V37.2184H255.667V38.4784ZM254.627 43.2184C254.627 44.2451 254.247 45.1051 253.487 45.7984C252.727 46.4784 251.747 46.8184 250.547 46.8184C249.347 46.8184 248.367 46.4784 247.607 45.7984C246.847 45.1184 246.467 44.2584 246.467 43.2184C246.467 42.1784 246.847 41.3184 247.607 40.6384C248.367 39.9451 249.347 39.5984 250.547 39.5984C251.747 39.5984 252.727 39.9451 253.487 40.6384C254.247 41.3184 254.627 42.1784 254.627 43.2184ZM253.107 43.2184C253.107 42.5251 252.867 41.9651 252.387 41.5384C251.907 41.0984 251.294 40.8784 250.547 40.8784C249.814 40.8784 249.201 41.0984 248.707 41.5384C248.227 41.9784 247.987 42.5384 247.987 43.2184C247.987 43.8984 248.227 44.4584 248.707 44.8984C249.201 45.3384 249.814 45.5584 250.547 45.5584C251.294 45.5584 251.907 45.3384 252.387 44.8984C252.867 44.4584 253.107 43.8984 253.107 43.2184ZM277.532 50.4984H276.032V33.0184H277.532V50.4984ZM274.072 49.6184H272.592V40.5984H269.492V39.3184H272.592V33.4384H274.072V49.6184ZM271.532 44.9784L270.592 46.0984C269.845 45.5651 269.099 44.8251 268.352 43.8784C267.619 42.9317 267.119 41.9984 266.852 41.0784C266.665 42.0784 266.239 43.0984 265.572 44.1384C264.919 45.1651 264.159 45.9917 263.292 46.6184L262.352 45.4784C263.392 44.8117 264.272 43.7784 264.992 42.3784C265.725 40.9784 266.092 39.4584 266.092 37.8184V34.6384H267.592V37.7784C267.592 39.3517 267.979 40.7651 268.752 42.0184C269.525 43.2717 270.452 44.2584 271.532 44.9784ZM294.217 38.7184C294.217 40.0651 293.637 41.1517 292.477 41.9784C291.317 42.8051 289.79 43.2184 287.897 43.2184C286.017 43.2184 284.497 42.8051 283.337 41.9784C282.19 41.1517 281.617 40.0651 281.617 38.7184C281.617 37.3717 282.19 36.2784 283.337 35.4384C284.497 34.5984 286.017 34.1784 287.897 34.1784C289.803 34.1784 291.33 34.5984 292.477 35.4384C293.637 36.2651 294.217 37.3584 294.217 38.7184ZM291.417 41.0984C292.31 40.4984 292.757 39.7051 292.757 38.7184C292.757 37.7317 292.31 36.9384 291.417 36.3384C290.537 35.7384 289.363 35.4384 287.897 35.4384C286.443 35.4384 285.277 35.7384 284.397 36.3384C283.517 36.9384 283.077 37.7317 283.077 38.7184C283.077 39.7051 283.517 40.4984 284.397 41.0984C285.277 41.6984 286.443 41.9984 287.897 41.9984C289.35 41.9984 290.523 41.6984 291.417 41.0984ZM295.817 48.2784H280.037V46.9984H283.937V43.7384L285.457 43.6984V46.9984H290.337V43.6984L291.857 43.7384V46.9984H295.817V48.2784ZM298.601 45.2384L298.361 34.1184H300.181L299.941 45.2384H298.601ZM298.421 48.6384V46.8584H300.141V48.6384H298.421Z" fill="#111111"/>
</svg>
