<svg width="250" height="50" viewBox="0 0 250 50" fill="none" xmlns="http://www.w3.org/2000/svg">
<path d="M37.1914 5.53839H31.7914V7.13839H38.9514V8.37839H23.1714V7.13839H30.2714V5.53839H25.1714V0.418388H26.6914V4.29839H37.1914V5.53839ZM31.0714 13.3784C34.4847 13.3784 36.1914 14.0717 36.1914 15.4584C36.1914 16.8451 34.4847 17.5384 31.0714 17.5384C27.658 17.5384 25.9514 16.8451 25.9514 15.4584C25.9514 14.0717 27.658 13.3784 31.0714 13.3784ZM37.6114 12.6584H24.5514V11.4584H37.6114V12.6584ZM34.5914 15.4584C34.5914 14.8184 33.418 14.4984 31.0714 14.4984C28.7247 14.4984 27.5514 14.8184 27.5514 15.4584C27.5514 16.1117 28.7247 16.4384 31.0714 16.4384C33.418 16.4384 34.5914 16.1117 34.5914 15.4584ZM34.0914 10.5384H28.0714V9.29839H34.0914V10.5384ZM51.5961 12.8184L50.7961 14.0384C49.8227 13.5851 48.8561 12.8851 47.8961 11.9384C46.9494 10.9784 46.3227 10.0517 46.0161 9.15839C45.7761 10.0784 45.1961 11.0584 44.2761 12.0984C43.3694 13.1251 42.4294 13.8917 41.4561 14.3984L40.5561 13.2784C41.8094 12.6784 42.8961 11.7384 43.8161 10.4584C44.7361 9.16506 45.1961 7.75172 45.1961 6.21839V5.67839H41.0961V4.41839H50.8361V5.67839H46.7561V6.19839C46.7561 7.71839 47.2494 9.09839 48.2361 10.3384C49.2361 11.5651 50.3561 12.3917 51.5961 12.8184ZM54.8761 17.4984H53.3361V0.0183883H54.8761V17.4984ZM48.6361 2.43839H43.3361V1.05839H48.6361V2.43839ZM73.5608 10.3184H57.7808V9.03839H73.5608V10.3184ZM71.8808 17.1184H59.8408V11.9584H61.3608V15.8584H71.8808V17.1184ZM71.8008 6.85839H59.9008V0.758388H61.4208V5.59839H71.8008V6.85839ZM94.7393 17.4984H93.1993V0.0183883H94.7393V17.4984ZM90.9793 12.1384L90.0193 13.2984C89.1393 12.6984 88.2793 11.9051 87.4393 10.9184C86.5993 9.91839 86.0193 8.93172 85.6993 7.95839C85.3927 9.01172 84.8327 10.0517 84.0193 11.0784C83.2193 12.0917 82.2927 12.9717 81.2393 13.7184L80.2393 12.5784C81.5593 11.7517 82.666 10.6117 83.5593 9.15839C84.4527 7.69172 84.8993 6.20505 84.8993 4.69839V1.53839H86.4393V4.63839C86.4393 6.17172 86.8727 7.61839 87.7393 8.97839C88.6193 10.3251 89.6993 11.3784 90.9793 12.1384ZM111.504 17.2384H99.524V9.95839H101.044V12.2784H109.984V9.93839H111.504V17.2384ZM111.384 0.898388C111.384 3.40505 111.184 5.53839 110.784 7.29839H113.404V8.55839H97.624V7.29839H109.264C109.637 5.84505 109.824 4.13172 109.824 2.15839H99.504V0.898388H111.384ZM109.984 15.9784V13.5384H101.044V15.9784H109.984ZM134.483 9.41839H132.963V5.43839H130.023V4.17839H132.963V0.0183883H134.483V9.41839ZM136.203 16.3584L135.303 17.4784C134.649 17.0917 134.043 16.5984 133.483 15.9984C132.923 15.3851 132.549 14.7917 132.363 14.2184C132.203 14.8051 131.849 15.4184 131.303 16.0584C130.769 16.6984 130.163 17.1984 129.483 17.5584L128.643 16.4384C129.603 15.9984 130.343 15.3517 130.863 14.4984C131.383 13.6451 131.643 12.7317 131.643 11.7584V10.2784H133.123V11.7584C133.123 12.7051 133.403 13.5984 133.963 14.4384C134.523 15.2651 135.269 15.9051 136.203 16.3584ZM128.223 17.2584H122.263V10.4784H123.703V12.6584H126.783V10.4784H128.223V17.2584ZM126.783 16.0584V13.8184H123.703V16.0584H126.783ZM124.843 0.878388C126.109 0.878388 127.169 1.25839 128.023 2.01839C128.889 2.76505 129.323 3.74506 129.323 4.95839C129.323 6.17172 128.889 7.15172 128.023 7.89839C127.169 8.64506 126.109 9.01839 124.843 9.01839C123.589 9.01839 122.523 8.65172 121.643 7.91839C120.776 7.17172 120.343 6.19172 120.343 4.97839C120.343 3.77839 120.776 2.79839 121.643 2.03839C122.523 1.26505 123.589 0.878388 124.843 0.878388ZM124.843 2.19839C123.976 2.19839 123.263 2.45839 122.703 2.97839C122.143 3.48505 121.863 4.14505 121.863 4.95839C121.863 5.78505 122.143 6.45839 122.703 6.97839C123.263 7.49839 123.976 7.75839 124.843 7.75839C125.736 7.75839 126.449 7.50505 126.983 6.99839C127.529 6.47839 127.803 5.80505 127.803 4.97839C127.803 4.15172 127.529 3.48505 126.983 2.97839C126.449 2.45839 125.736 2.19839 124.843 2.19839ZM151.887 17.4984H150.367V0.0183883H151.887V17.4984ZM138.087 7.49839C138.087 5.63172 138.481 4.13839 139.267 3.01839C140.067 1.89839 141.174 1.33839 142.587 1.33839C144.014 1.33839 145.121 1.89839 145.907 3.01839C146.707 4.13839 147.107 5.63839 147.107 7.51839C147.107 9.39839 146.707 10.8984 145.907 12.0184C145.121 13.1384 144.014 13.6984 142.587 13.6984C141.174 13.6984 140.067 13.1384 139.267 12.0184C138.481 10.8984 138.087 9.39172 138.087 7.49839ZM144.807 11.0384C145.381 10.1317 145.667 8.95839 145.667 7.51839C145.667 6.07839 145.381 4.91172 144.807 4.01839C144.247 3.11172 143.507 2.65839 142.587 2.65839C141.667 2.65839 140.927 3.11172 140.367 4.01839C139.807 4.91172 139.527 6.07839 139.527 7.51839C139.527 8.95839 139.807 10.1317 140.367 11.0384C140.927 11.9317 141.667 12.3784 142.587 12.3784C143.507 12.3784 144.247 11.9317 144.807 11.0384ZM168.206 3.81839L167.606 9.19839C168.499 9.14506 169.286 9.07172 169.966 8.97839L170.106 10.1784C168.879 10.3517 167.386 10.4851 165.626 10.5784C163.226 10.6584 161.459 10.6984 160.326 10.6984L160.066 9.33839H162.366L161.866 3.85839L163.386 3.67839L163.746 9.33839C164.359 9.33839 164.973 9.31839 165.586 9.27839C165.666 9.27839 165.779 9.27839 165.926 9.27839C166.073 9.26506 166.186 9.25839 166.266 9.25839L166.686 3.63839L168.206 3.81839ZM169.706 4.71839V3.47839H172.826V0.0183883H174.346V12.7784H172.826V8.13839H169.706V6.87839H172.826V4.71839H169.706ZM174.706 16.9984H162.966V11.7584H164.486V15.7184H174.706V16.9984ZM169.806 2.73839H160.526V1.47839H169.806V2.73839ZM190.211 0.0183883H191.731V17.4984H190.211V0.0183883ZM188.611 11.4784L188.751 12.7384C186.231 13.1251 183.344 13.3184 180.091 13.3184H178.311V6.57839H184.931V2.89839H178.231V1.63839H186.471V7.83839H179.831V12.0184H180.251C183.811 12.0184 186.597 11.8384 188.611 11.4784ZM210.955 8.67839H208.115V17.4984H206.595V0.0183883H208.115V7.39839H210.955V8.67839ZM202.335 2.51839H197.195V1.21839H202.335V2.51839ZM204.915 5.47839H194.595V4.21839H204.915V5.47839ZM203.875 10.2184C203.875 11.2451 203.495 12.1051 202.735 12.7984C201.975 13.4784 200.995 13.8184 199.795 13.8184C198.595 13.8184 197.615 13.4784 196.855 12.7984C196.095 12.1184 195.715 11.2584 195.715 10.2184C195.715 9.17839 196.095 8.31839 196.855 7.63839C197.615 6.94505 198.595 6.59839 199.795 6.59839C200.995 6.59839 201.975 6.94505 202.735 7.63839C203.495 8.31839 203.875 9.17839 203.875 10.2184ZM202.355 10.2184C202.355 9.52506 202.115 8.96505 201.635 8.53839C201.155 8.09839 200.542 7.87839 199.795 7.87839C199.062 7.87839 198.449 8.09839 197.955 8.53839C197.475 8.97839 197.235 9.53839 197.235 10.2184C197.235 10.8984 197.475 11.4584 197.955 11.8984C198.449 12.3384 199.062 12.5584 199.795 12.5584C200.542 12.5584 201.155 12.3384 201.635 11.8984C202.115 11.4584 202.355 10.8984 202.355 10.2184ZM226.72 17.4984H225.22V0.0183883H226.72V17.4984ZM223.32 16.6184H221.86V8.09839H218.92V6.81839H221.86V0.438388H223.32V16.6184ZM219.36 2.05839C219.24 7.12505 217.067 11.0251 212.84 13.7584L211.8 12.6384C213.587 11.6251 215.007 10.2784 216.06 8.59839C217.127 6.91839 217.707 5.16505 217.8 3.33839H212.48V2.05839H219.36ZM14.5416 32.7784C14.5416 35.7517 14.3816 38.0984 14.0616 39.8184H16.6016V41.6584H0.501611V39.8184H11.7416C12.0749 38.5384 12.2283 36.8051 12.2016 34.6184H2.66161V32.7784H14.5416ZM15.0016 49.1584H2.66161V43.3584H5.00161V47.2784H15.0016V49.1584ZM31.8663 32.5584V39.7584H19.8663V32.5584H31.8663ZM26.9863 49.6984H24.6463V43.7784H17.8063V41.9184H33.9063V43.7784H26.9863V49.6984ZM29.5463 37.8984V34.4184H22.2063V37.8984H29.5463ZM56.4649 47.3584H40.3649V45.4984H56.4649V47.3584ZM56.1249 40.0584L54.9449 41.8784C53.6249 41.5717 52.3249 40.9784 51.0449 40.0984C49.7649 39.2184 48.8849 38.2251 48.4049 37.1184C47.9649 38.2517 47.0916 39.2717 45.7849 40.1784C44.4916 41.0717 43.1782 41.6651 41.8449 41.9584L40.7449 40.0584C41.7582 39.9117 42.7449 39.5784 43.7049 39.0584C44.6782 38.5384 45.5049 37.8384 46.1849 36.9584C46.8649 36.0651 47.2049 35.1184 47.2049 34.1184V32.9384H49.6449V34.1184C49.6449 34.7184 49.7782 35.3117 50.0449 35.8984C50.3249 36.4717 50.6916 36.9851 51.1449 37.4384C51.5982 37.8917 52.1049 38.3051 52.6649 38.6784C53.2382 39.0384 53.8182 39.3384 54.4049 39.5784C54.9916 39.8051 55.5649 39.9651 56.1249 40.0584ZM65.3696 33.9584C65.3696 39.2784 63.2029 43.4451 58.8696 46.4584L57.5096 44.8384C59.5896 43.4651 61.0896 41.8384 62.0096 39.9584L58.0896 40.4384L57.7496 38.4984L62.6896 38.0784C62.8629 37.3851 62.9829 36.6384 63.0496 35.8384H58.5096V33.9584H65.3696ZM69.2696 48.8584H67.0696V40.7384H64.9096V38.8584H67.0696V32.1984H69.2696V48.8584ZM72.8296 49.6784H70.6096V31.8584H72.8296V49.6784ZM89.5943 49.5984H76.9343V45.0984H86.6143V44.1584H76.9143V42.2984H81.8143V41.1584H74.9743V39.2784H91.0743V41.1584H84.1543V42.2984H88.9543V46.7584H79.2543V47.6984H89.5943V49.5984ZM90.2943 36.8984L89.2743 38.6984C87.9676 38.5651 86.7209 38.2317 85.5343 37.6984C84.3609 37.1517 83.5276 36.4717 83.0343 35.6584C82.5943 36.5117 81.8076 37.2051 80.6743 37.7384C79.5409 38.2717 78.2476 38.5984 76.7943 38.7184L75.8143 36.9384C77.2409 36.8717 78.4743 36.6051 79.5143 36.1384C80.5543 35.6717 81.2409 35.0317 81.5743 34.2184H76.6343V32.3984H89.4743V34.2184H84.5543C84.9143 35.0184 85.6476 35.6584 86.7543 36.1384C87.8609 36.6051 89.0409 36.8584 90.2943 36.8984ZM108.379 41.2384H92.279V39.3784H108.379V41.2384ZM106.899 49.5984H94.199V45.0584H103.939V44.0384H94.219V42.2184H106.259V46.6984H96.539V47.6784H106.899V49.5984ZM96.479 35.3184C96.479 35.7317 96.8256 36.0784 97.519 36.3584C98.2123 36.6251 99.159 36.7584 100.359 36.7584C101.559 36.7584 102.506 36.6251 103.199 36.3584C103.906 36.0784 104.259 35.7317 104.259 35.3184C104.259 34.8917 103.912 34.5517 103.219 34.2984C102.526 34.0317 101.572 33.8984 100.359 33.8984C99.1456 33.8984 98.1923 34.0317 97.499 34.2984C96.819 34.5517 96.479 34.8917 96.479 35.3184ZM94.059 35.3184C94.059 34.3317 94.6056 33.5517 95.699 32.9784C96.8056 32.4051 98.359 32.1184 100.359 32.1184C102.346 32.1184 103.892 32.4051 104.999 32.9784C106.106 33.5517 106.659 34.3317 106.659 35.3184C106.659 36.2917 106.106 37.0717 104.999 37.6584C103.892 38.2317 102.346 38.5184 100.359 38.5184C98.3723 38.5184 96.8256 38.2317 95.719 37.6584C94.6123 37.0717 94.059 36.2917 94.059 35.3184ZM131.218 39.1384H128.958V45.0984H126.638V31.8584H128.958V37.1984H131.218V39.1384ZM129.418 49.1984H117.238V43.9584H119.598V47.3384H129.418V49.1984ZM125.818 42.1984C123.551 42.4517 121.704 42.5984 120.278 42.6384C117.184 42.7584 115.338 42.8184 114.738 42.8184L114.438 40.9184C115.171 40.9184 116.311 40.9051 117.858 40.8784V37.2984H120.178V40.8184C122.444 40.7651 124.264 40.6317 125.638 40.4184L125.818 42.1984ZM124.638 33.1184C124.638 36.1184 124.471 38.2317 124.138 39.4584L121.918 39.1384C122.158 38.2317 122.278 36.8451 122.278 34.9784H115.538V33.1184H124.638ZM144.542 31.8584H146.862V49.6784H144.542V31.8584ZM142.982 43.1584L143.242 45.0184C141.336 45.4051 138.596 45.5984 135.022 45.5984H133.142V38.1984H138.922V35.2384H133.062V33.3784H141.282V40.0584H135.462V43.6784C138.596 43.6784 141.102 43.5051 142.982 43.1584ZM165.707 37.9184H163.047V41.9584H161.527V32.0184H163.047V36.6384H165.707V37.9184ZM163.707 49.3984H152.047V45.4984H161.527V44.0184H151.967V42.8584H163.047V46.6184H153.567V48.2184H163.707V49.3984ZM157.167 33.5984H152.127V32.3184H157.167V33.5984ZM159.787 35.9584H149.527V34.7184H159.787V35.9584ZM158.767 39.2784C158.767 40.1184 158.387 40.7717 157.627 41.2384C156.867 41.7051 155.874 41.9384 154.647 41.9384C153.46 41.9384 152.48 41.7051 151.707 41.2384C150.934 40.7584 150.547 40.1051 150.547 39.2784C150.547 38.4517 150.927 37.8051 151.687 37.3384C152.46 36.8717 153.447 36.6384 154.647 36.6384C155.86 36.6384 156.847 36.8717 157.607 37.3384C158.38 37.8051 158.767 38.4517 158.767 39.2784ZM156.527 40.3784C157.047 40.1117 157.307 39.7451 157.307 39.2784C157.307 38.8117 157.047 38.4517 156.527 38.1984C156.02 37.9451 155.394 37.8184 154.647 37.8184C153.914 37.8184 153.287 37.9451 152.767 38.1984C152.26 38.4517 152.007 38.8117 152.007 39.2784C152.007 39.7451 152.26 40.1117 152.767 40.3784C153.287 40.6317 153.914 40.7584 154.647 40.7584C155.38 40.7584 156.007 40.6317 156.527 40.3784ZM180.786 49.5184H179.266V43.1784H172.166V41.8984H187.946V43.1784H180.786V49.5184ZM187.306 38.7384L186.586 40.0384C185.212 39.7584 183.906 39.2317 182.666 38.4584C181.426 37.6851 180.552 36.8051 180.046 35.8184C179.779 36.4717 179.292 37.0984 178.586 37.6984C177.892 38.2984 177.106 38.8051 176.226 39.2184C175.359 39.6184 174.472 39.9051 173.566 40.0784L172.826 38.7784C174.546 38.5517 176.046 37.9517 177.326 36.9784C178.619 35.9917 179.266 34.9117 179.266 33.7384V32.6184H180.866V33.7384C180.866 34.8851 181.539 35.9584 182.886 36.9584C184.232 37.9451 185.706 38.5384 187.306 38.7384ZM209.004 42.1784H207.484V32.0184H209.004V42.1784ZM209.764 49.5384H209.744C209.117 49.2317 208.477 48.7451 207.824 48.0784C207.171 47.4117 206.744 46.7784 206.544 46.1784C206.331 46.8317 205.897 47.5051 205.244 48.1984C204.604 48.9051 203.931 49.4317 203.224 49.7784L202.264 48.7584C203.251 48.2784 204.077 47.5917 204.744 46.6984C205.424 45.7917 205.764 44.8317 205.764 43.8184V42.7584H207.284V43.7584C207.284 44.7851 207.624 45.7451 208.304 46.6384C208.997 47.5184 209.791 48.1251 210.684 48.4584L209.764 49.5384ZM203.264 47.1384L202.224 48.1784C201.771 47.9384 201.331 47.6117 200.904 47.1984C200.491 46.7717 200.191 46.3251 200.004 45.8584C199.791 46.5251 199.344 47.2251 198.664 47.9584C197.997 48.6784 197.291 49.2184 196.544 49.5784L195.624 48.4984C196.584 48.0851 197.411 47.4317 198.104 46.5384C198.811 45.6451 199.164 44.6917 199.164 43.6784V42.8184H200.684V43.5384C200.684 44.4051 200.931 45.1517 201.424 45.7784C201.917 46.4051 202.531 46.8584 203.264 47.1384ZM196.464 34.1784C197.344 33.3917 198.417 32.9984 199.684 32.9984C200.951 32.9984 202.017 33.3917 202.884 34.1784C203.764 34.9517 204.204 35.9584 204.204 37.1984C204.204 38.4517 203.771 39.4584 202.904 40.2184C202.037 40.9784 200.964 41.3584 199.684 41.3584C198.404 41.3584 197.324 40.9784 196.444 40.2184C195.577 39.4584 195.144 38.4584 195.144 37.2184C195.144 35.9784 195.584 34.9651 196.464 34.1784ZM199.684 34.2384C198.804 34.2384 198.071 34.5184 197.484 35.0784C196.911 35.6384 196.624 36.3451 196.624 37.1984C196.624 38.0651 196.911 38.7717 197.484 39.3184C198.057 39.8517 198.791 40.1184 199.684 40.1184C200.591 40.1184 201.324 39.8517 201.884 39.3184C202.457 38.7851 202.744 38.0851 202.744 37.2184C202.744 36.3384 202.464 35.6251 201.904 35.0784C201.344 34.5184 200.604 34.2384 199.684 34.2384ZM212.249 39.4184C212.249 37.5384 212.635 36.0384 213.409 34.9184C214.195 33.7984 215.282 33.2384 216.669 33.2384C217.962 33.2384 218.989 33.7317 219.749 34.7184C220.509 35.7051 220.942 37.0451 221.049 38.7384H224.789V32.0184H226.309V49.4984H224.789V40.0384H221.049C220.969 41.7451 220.542 43.0984 219.769 44.0984C219.009 45.0984 217.975 45.5984 216.669 45.5984C215.282 45.5984 214.195 45.0451 213.409 43.9384C212.635 42.8184 212.249 41.3117 212.249 39.4184ZM219.569 39.4384C219.569 37.9984 219.295 36.8251 218.749 35.9184C218.215 35.0117 217.522 34.5584 216.669 34.5584C215.802 34.5584 215.102 35.0117 214.569 35.9184C214.035 36.8251 213.769 37.9984 213.769 39.4384C213.769 40.8651 214.035 42.0317 214.569 42.9384C215.102 43.8317 215.802 44.2784 216.669 44.2784C217.522 44.2784 218.215 43.8317 218.749 42.9384C219.295 42.0317 219.569 40.8651 219.569 39.4384ZM243.513 37.7184C243.513 39.0651 242.933 40.1517 241.773 40.9784C240.613 41.8051 239.087 42.2184 237.193 42.2184C235.313 42.2184 233.793 41.8051 232.633 40.9784C231.487 40.1517 230.913 39.0651 230.913 37.7184C230.913 36.3717 231.487 35.2784 232.633 34.4384C233.793 33.5984 235.313 33.1784 237.193 33.1784C239.1 33.1784 240.627 33.5984 241.773 34.4384C242.933 35.2651 243.513 36.3584 243.513 37.7184ZM240.713 40.0984C241.607 39.4984 242.053 38.7051 242.053 37.7184C242.053 36.7317 241.607 35.9384 240.713 35.3384C239.833 34.7384 238.66 34.4384 237.193 34.4384C235.74 34.4384 234.573 34.7384 233.693 35.3384C232.813 35.9384 232.373 36.7317 232.373 37.7184C232.373 38.7051 232.813 39.4984 233.693 40.0984C234.573 40.6984 235.74 40.9984 237.193 40.9984C238.647 40.9984 239.82 40.6984 240.713 40.0984ZM245.113 47.2784H229.333V45.9984H233.233V42.7384L234.753 42.6984V45.9984H239.633V42.6984L241.153 42.7384V45.9984H245.113V47.2784ZM247.898 44.2384L247.658 33.1184H249.478L249.238 44.2384H247.898ZM247.718 47.6384V45.8584H249.438V47.6384H247.718Z" fill="#111111"/>
</svg>
