<svg width="269" height="51" viewBox="0 0 269 51" fill="none" xmlns="http://www.w3.org/2000/svg">
<path d="M16.7326 10.3984H0.952627V9.11839H12.6726C12.9926 7.78506 13.1526 5.92505 13.1526 3.53839H2.93263V2.27839H14.6926C14.6926 5.11839 14.5126 7.39839 14.1526 9.11839H16.7326V10.3984ZM15.1926 17.8584H2.95263V12.3584H4.47263V16.5984H15.1926V17.8584ZM32.0573 9.05839H20.1973V1.99839H32.0573V9.05839ZM30.5373 7.79839V3.25839H21.7373V7.79839H30.5373ZM26.8773 18.5184H25.3573V12.5584H18.2573V11.2784H34.0373V12.5584H26.8773V18.5184ZM54.7359 8.65839H49.4559V10.3184H56.5959V11.5784H40.8159V10.3184H47.9359V8.65839H42.7159V1.73839H54.6159V2.95839H44.2359V4.57839H54.3159V5.73839H44.2359V7.45839H54.7359V8.65839ZM54.8359 15.5984C54.8359 16.5451 54.3092 17.2717 53.2559 17.7784C52.2026 18.2851 50.6826 18.5384 48.6959 18.5384C46.7226 18.5384 45.2092 18.2784 44.1559 17.7584C43.1159 17.2517 42.5959 16.5317 42.5959 15.5984C42.5959 14.6784 43.1226 13.9584 44.1759 13.4384C45.2292 12.9051 46.7359 12.6384 48.6959 12.6384C50.6959 12.6384 52.2159 12.8917 53.2559 13.3984C54.3092 13.9051 54.8359 14.6384 54.8359 15.5984ZM48.6959 13.8584C47.2826 13.8584 46.1692 14.0184 45.3559 14.3384C44.5426 14.6451 44.1359 15.0651 44.1359 15.5984C44.1359 16.1317 44.5426 16.5517 45.3559 16.8584C46.1692 17.1517 47.2826 17.2984 48.6959 17.2984C50.1226 17.2984 51.2426 17.1517 52.0559 16.8584C52.8826 16.5517 53.2959 16.1317 53.2959 15.5984C53.2959 15.0651 52.8826 14.6451 52.0559 14.3384C51.2426 14.0184 50.1226 13.8584 48.6959 13.8584ZM69.5406 17.6184H68.0606V11.5584H65.0806V10.2984H68.0606V7.09839H65.4806V5.81839H68.0606V1.43839H69.5406V17.6184ZM72.8606 18.4984H71.3606V1.01839H72.8606V18.4984ZM65.2806 3.19839C65.2273 5.83839 64.6806 8.09839 63.6406 9.97839C62.6006 11.8584 61.0539 13.4517 59.0006 14.7584L58.0006 13.6184C59.7606 12.6584 61.1273 11.3717 62.1006 9.75839C63.0873 8.13172 63.6406 6.37172 63.7606 4.47839H58.6606V3.19839H65.2806ZM91.2053 10.3384H75.4253V9.15839H91.2053V10.3384ZM89.8853 18.1784H77.2453V14.2984H87.8253V12.8384H77.2653V11.7184H89.3453V15.3784H78.7653V16.9784H89.8853V18.1784ZM89.5853 7.77839H77.4253V4.15839H87.7253V2.79839H77.4053V1.59839H89.2453V5.25839H78.9453V6.63839H89.5853V7.77839ZM111.904 8.65839H106.624V10.3184H113.764V11.5784H97.9839V10.3184H105.104V8.65839H99.8839V1.73839H111.784V2.95839H101.404V4.57839H111.484V5.73839H101.404V7.45839H111.904V8.65839ZM112.004 15.5984C112.004 16.5451 111.477 17.2717 110.424 17.7784C109.371 18.2851 107.851 18.5384 105.864 18.5384C103.891 18.5384 102.377 18.2784 101.324 17.7584C100.284 17.2517 99.7639 16.5317 99.7639 15.5984C99.7639 14.6784 100.291 13.9584 101.344 13.4384C102.397 12.9051 103.904 12.6384 105.864 12.6384C107.864 12.6384 109.384 12.8917 110.424 13.3984C111.477 13.9051 112.004 14.6384 112.004 15.5984ZM105.864 13.8584C104.451 13.8584 103.337 14.0184 102.524 14.3384C101.711 14.6451 101.304 15.0651 101.304 15.5984C101.304 16.1317 101.711 16.5517 102.524 16.8584C103.337 17.1517 104.451 17.2984 105.864 17.2984C107.291 17.2984 108.411 17.1517 109.224 16.8584C110.051 16.5517 110.464 16.1317 110.464 15.5984C110.464 15.0651 110.051 14.6451 109.224 14.3384C108.411 14.0184 107.291 13.8584 105.864 13.8584ZM130.029 18.4984H128.529V9.43839H126.429V17.6184H124.949V1.43839H126.429V8.15839H128.529V1.01839H130.029V18.4984ZM122.569 8.51839C123.275 9.15839 123.629 9.99839 123.629 11.0384C123.629 12.0784 123.275 12.9184 122.569 13.5584C121.862 14.1984 120.942 14.5184 119.809 14.5184C118.689 14.5184 117.769 14.1917 117.049 13.5384C116.342 12.8717 115.989 12.0384 115.989 11.0384C115.989 9.98505 116.342 9.13839 117.049 8.49839C117.755 7.85839 118.675 7.53839 119.809 7.53839C120.942 7.53839 121.862 7.86506 122.569 8.51839ZM122.169 11.0384C122.169 10.3717 121.949 9.83839 121.509 9.43839C121.069 9.02505 120.502 8.81839 119.809 8.81839C119.115 8.81839 118.549 9.02505 118.109 9.43839C117.682 9.83839 117.469 10.3717 117.469 11.0384C117.469 11.7184 117.682 12.2584 118.109 12.6584C118.549 13.0584 119.115 13.2584 119.809 13.2584C120.502 13.2584 121.069 13.0517 121.509 12.6384C121.949 12.2251 122.169 11.6917 122.169 11.0384ZM123.949 6.53839H115.249V5.27839H123.949V6.53839ZM122.069 3.67839H117.289V2.35839H122.069V3.67839ZM153.307 18.7384H140.547V14.7184H150.367V13.9184H140.527V12.2384H152.707V16.2384H142.887V17.0584H153.307V18.7384ZM138.927 4.05839C138.927 3.19172 139.354 2.48506 140.207 1.93839C141.06 1.39172 142.114 1.11839 143.367 1.11839C144.607 1.11839 145.64 1.39839 146.467 1.95839C147.307 2.50505 147.727 3.21839 147.727 4.09839C147.727 4.95172 147.307 5.65172 146.467 6.19839C145.627 6.74506 144.594 7.01839 143.367 7.01839C142.114 7.01839 141.06 6.74506 140.207 6.19839C139.354 5.65172 138.927 4.93839 138.927 4.05839ZM146.827 11.1184V9.57839H150.407V0.858388H152.727V11.5784H150.407V11.1184H146.827ZM144.247 11.5984H141.907V9.43839C139.854 9.51839 138.52 9.55839 137.907 9.55839L137.587 7.69839C139.787 7.69839 141.714 7.66505 143.367 7.59839C145.687 7.49172 147.614 7.33839 149.147 7.13839L149.327 8.87839C147.98 9.06506 146.287 9.21839 144.247 9.33839V11.5984ZM141.847 3.15839C141.474 3.38506 141.287 3.69172 141.287 4.07839C141.287 4.46505 141.474 4.77172 141.847 4.99839C142.234 5.22506 142.74 5.33839 143.367 5.33839C143.98 5.33839 144.48 5.22506 144.867 4.99839C145.254 4.75839 145.447 4.45172 145.447 4.07839C145.447 3.70505 145.254 3.39839 144.867 3.15839C144.48 2.91839 143.98 2.79839 143.367 2.79839C142.74 2.79839 142.234 2.91839 141.847 3.15839ZM169.712 9.85839H167.392V8.13839H164.812V6.37839H167.392V4.79839H164.812V3.03839H167.392V0.858388H169.712V9.85839ZM170.272 18.5384H157.992V13.7584H167.392V12.5384H157.912V10.6784H169.712V15.4584H160.352V16.6584H170.272V18.5384ZM163.952 9.33839H155.552V1.61839H157.912V3.77839H161.612V1.59839H163.952V9.33839ZM161.612 7.47839V5.61839H157.912V7.47839H161.612ZM192.83 18.5384H180.57V13.7584H189.95V12.5184H180.47V10.6784H192.27V15.4384H182.91V16.6584H192.83V18.5384ZM192.27 9.77839H189.95V0.858388H192.27V9.77839ZM178.07 5.59839C178.07 4.41172 178.517 3.42505 179.41 2.63839C180.304 1.85172 181.437 1.45839 182.81 1.45839C184.17 1.45839 185.29 1.84505 186.17 2.61839C187.064 3.39172 187.51 4.38505 187.51 5.59839C187.51 6.78505 187.07 7.74505 186.19 8.47839C185.31 9.21172 184.184 9.57839 182.81 9.57839C181.464 9.57839 180.337 9.21839 179.43 8.49839C178.524 7.76506 178.07 6.79839 178.07 5.59839ZM181.11 4.03839C180.63 4.46505 180.39 4.97839 180.39 5.57839C180.39 6.17839 180.617 6.67172 181.07 7.05839C181.537 7.44505 182.117 7.63839 182.81 7.63839C183.517 7.63839 184.09 7.43839 184.53 7.03839C184.97 6.63839 185.19 6.15172 185.19 5.57839C185.19 4.95172 184.977 4.43172 184.55 4.01839C184.124 3.59172 183.544 3.37839 182.81 3.37839C182.157 3.37839 181.59 3.59839 181.11 4.03839ZM205.055 5.87839H194.715V4.05839H205.055V5.87839ZM204.195 9.65839C204.195 10.6051 203.795 11.3851 202.995 11.9984C202.208 12.5984 201.208 12.8984 199.995 12.8984C198.768 12.8984 197.755 12.5984 196.955 11.9984C196.155 11.3851 195.755 10.6051 195.755 9.65839C195.755 8.71172 196.155 7.93172 196.955 7.31839C197.755 6.69172 198.768 6.37839 199.995 6.37839C201.195 6.37839 202.195 6.69172 202.995 7.31839C203.795 7.94505 204.195 8.72505 204.195 9.65839ZM197.355 3.21839V1.43839H202.655V3.21839H197.355ZM208.795 0.858388V6.61839H211.275V8.55839H208.795V14.0984H206.455V0.858388H208.795ZM209.215 18.2584H197.035V13.5584H199.395V16.3984H209.215V18.2584ZM198.075 9.65839C198.075 10.0451 198.262 10.3717 198.635 10.6384C199.008 10.8917 199.462 11.0184 199.995 11.0184C200.515 11.0184 200.962 10.8917 201.335 10.6384C201.722 10.3717 201.915 10.0451 201.915 9.65839C201.915 9.24505 201.722 8.90505 201.335 8.63839C200.962 8.37172 200.515 8.23839 199.995 8.23839C199.462 8.23839 199.008 8.37172 198.635 8.63839C198.262 8.90505 198.075 9.24505 198.075 9.65839ZM232.154 18.6784H229.814V0.858388H232.154V18.6784ZM228.474 12.8784L227.114 14.6384C226.354 14.1717 225.58 13.4584 224.794 12.4984C224.02 11.5384 223.487 10.6117 223.194 9.71839C222.9 10.7317 222.347 11.7451 221.534 12.7584C220.72 13.7584 219.854 14.5117 218.934 15.0184L217.514 13.2984C220.46 11.3917 221.934 8.65172 221.934 5.07839V2.35839H224.354V4.95839C224.354 8.46505 225.727 11.1051 228.474 12.8784ZM251.198 7.85839H248.658V13.7584H246.298V0.858388H248.658V5.93839H251.198V7.85839ZM243.678 2.21839C243.665 4.67172 242.898 6.73172 241.378 8.39839C239.872 10.0517 237.958 11.1717 235.638 11.7584L234.478 9.89839C236.078 9.61839 237.518 8.96505 238.798 7.93839C240.092 6.89839 240.878 5.63839 241.158 4.15839H235.378V2.21839H243.678ZM249.098 18.1584H237.198V12.4184H239.558V16.2984H249.098V18.1584ZM268.563 9.61839H265.723V18.4984H264.203V1.01839H265.723V8.31839H268.563V9.61839ZM263.203 14.0784C261.816 14.2651 259.83 14.4317 257.243 14.5784C255.19 14.6717 253.47 14.7184 252.083 14.7184L251.863 13.3784C253.97 13.3784 255.243 13.3717 255.683 13.3584V7.83839H257.223V13.3184C259.743 13.1984 261.696 13.0317 263.083 12.8184L263.203 14.0784ZM261.883 2.85839C261.91 4.20506 261.856 5.66506 261.723 7.23839C261.603 8.81172 261.45 10.0251 261.263 10.8784L259.803 10.6784C259.99 9.82506 260.136 8.76505 260.243 7.49839C260.35 6.23172 260.383 5.11172 260.343 4.13839H252.743V2.85839H261.883ZM16.7661 38.3784V36.5384H26.4861V38.3784H22.9661C23.1528 39.1117 23.6461 39.7717 24.4461 40.3584C25.2595 40.9317 26.1128 41.2784 27.0061 41.3984L25.9261 43.2584C25.1661 43.0984 24.3728 42.7317 23.5461 42.1584C22.7195 41.5851 22.1261 40.9851 21.7661 40.3584C21.4328 41.1051 20.8395 41.7984 19.9861 42.4384C19.1461 43.0784 18.2661 43.5117 17.3461 43.7384L16.1861 41.9384C17.2795 41.6984 18.2261 41.2517 19.0261 40.5984C19.8395 39.9451 20.3261 39.2051 20.4861 38.3784H16.7661ZM30.5261 32.8584V50.6784H28.1661V32.8584H30.5261ZM27.2461 45.0984L27.4261 46.8784C24.3861 47.2917 20.5861 47.4984 16.0261 47.4984L15.6861 45.5984C17.8728 45.5984 19.4861 45.5851 20.5261 45.5584V42.6384H22.8861V45.4584C24.2995 45.4051 25.7528 45.2851 27.2461 45.0984ZM19.0461 35.5584V33.7184H24.3661V35.5584H19.0461ZM46.9908 33.7784C46.9908 36.7517 46.8308 39.0984 46.5108 40.8184H49.0508V42.6584H32.9508V40.8184H44.1908C44.5242 39.5384 44.6775 37.8051 44.6508 35.6184H35.1108V33.7784H46.9908ZM47.4508 50.1584H35.1108V44.3584H37.4508V48.2784H47.4508V50.1584ZM59.4294 48.4784C57.8561 48.4784 56.5561 48.1651 55.5294 47.5384L55.9694 45.6584C56.8894 46.2051 57.8361 46.4784 58.8094 46.4784C59.7694 46.4784 60.5161 46.2584 61.0494 45.8184C61.5961 45.3651 61.8694 44.7251 61.8694 43.8984C61.8694 42.2584 60.8828 41.4384 58.9094 41.4384C58.0428 41.4384 57.1161 41.6851 56.1294 42.1784L56.6294 34.6384H63.7894V36.5584H58.5094L58.2494 39.8984C58.8628 39.7384 59.4361 39.6584 59.9694 39.6584C61.3694 39.6584 62.4561 40.0184 63.2294 40.7384C64.0161 41.4584 64.4094 42.5317 64.4094 43.9584C64.4094 45.2651 63.9561 46.3451 63.0494 47.1984C62.1561 48.0517 60.9494 48.4784 59.4294 48.4784ZM80.9433 50.6784H78.7233V41.6984H77.1433V49.8584H74.9633V33.1784H77.1433V39.8384H78.7233V32.8584H80.9433V50.6784ZM73.3433 34.9584C73.37 40.2784 71.2167 44.3584 66.8833 47.1984L65.3633 45.5784C67.0833 44.5517 68.43 43.2851 69.4033 41.7784C70.3767 40.2717 70.9367 38.6251 71.0833 36.8384H66.4433V34.9584H73.3433ZM98.688 50.7384H85.928V46.7184H95.748V45.9184H85.908V44.2384H98.088V48.2384H88.268V49.0584H98.688V50.7384ZM84.308 36.0584C84.308 35.1917 84.7347 34.4851 85.588 33.9384C86.4414 33.3917 87.4947 33.1184 88.748 33.1184C89.988 33.1184 91.0214 33.3984 91.848 33.9584C92.688 34.5051 93.108 35.2184 93.108 36.0984C93.108 36.9517 92.688 37.6517 91.848 38.1984C91.008 38.7451 89.9747 39.0184 88.748 39.0184C87.4947 39.0184 86.4414 38.7451 85.588 38.1984C84.7347 37.6517 84.308 36.9384 84.308 36.0584ZM92.208 43.1184V41.5784H95.788V32.8584H98.108V43.5784H95.788V43.1184H92.208ZM89.628 43.5984H87.288V41.4384C85.2347 41.5184 83.9014 41.5584 83.288 41.5584L82.968 39.6984C85.168 39.6984 87.0947 39.6651 88.748 39.5984C91.068 39.4917 92.9947 39.3384 94.528 39.1384L94.708 40.8784C93.3614 41.0651 91.668 41.2184 89.628 41.3384V43.5984ZM87.228 35.1584C86.8547 35.3851 86.668 35.6917 86.668 36.0784C86.668 36.4651 86.8547 36.7717 87.228 36.9984C87.6147 37.2251 88.1214 37.3384 88.748 37.3384C89.3614 37.3384 89.8614 37.2251 90.248 36.9984C90.6347 36.7584 90.828 36.4517 90.828 36.0784C90.828 35.7051 90.6347 35.3984 90.248 35.1584C89.8614 34.9184 89.3614 34.7984 88.748 34.7984C88.1214 34.7984 87.6147 34.9184 87.228 35.1584ZM121.267 40.7584L120.167 42.5984C118.86 42.2917 117.567 41.6984 116.287 40.8184C115.02 39.9384 114.147 38.9451 113.667 37.8384C113.373 38.5984 112.86 39.3184 112.127 39.9984C111.393 40.6784 110.593 41.2384 109.727 41.6784C108.873 42.1051 108.027 42.4117 107.187 42.5984L106.127 40.6984C107.127 40.5517 108.1 40.2317 109.047 39.7384C109.993 39.2317 110.8 38.5451 111.467 37.6784C112.133 36.7984 112.467 35.8584 112.467 34.8584V33.7784H114.907V34.8584C114.907 35.6051 115.107 36.3317 115.507 37.0384C115.92 37.7317 116.44 38.3317 117.067 38.8384C117.707 39.3317 118.393 39.7517 119.127 40.0984C119.86 40.4317 120.573 40.6517 121.267 40.7584ZM121.727 48.4584H105.627V46.6184H112.447V42.3784H114.807V46.6184H121.727V48.4584ZM139.031 43.0384H122.931V41.1784H139.031V43.0384ZM124.831 44.5984H136.951V50.6984H134.631V46.4584H124.831V44.5984ZM137.151 39.6584H125.071V33.4584H137.011V35.3384H127.431V37.8184H137.151V39.6584ZM156.176 41.8584H140.396V40.5784H156.176V41.8584ZM152.776 34.0584C153.869 34.5917 154.416 35.3384 154.416 36.2984C154.416 37.2584 153.869 38.0051 152.776 38.5384C151.696 39.0584 150.203 39.3184 148.296 39.3184C146.403 39.3184 144.916 39.0584 143.836 38.5384C142.756 38.0051 142.216 37.2584 142.216 36.2984C142.216 35.3384 142.756 34.5917 143.836 34.0584C144.916 33.5251 146.403 33.2584 148.296 33.2584C150.203 33.2584 151.696 33.5251 152.776 34.0584ZM148.296 34.4984C146.923 34.4984 145.823 34.6651 144.996 34.9984C144.183 35.3184 143.776 35.7517 143.776 36.2984C143.776 36.8317 144.183 37.2584 144.996 37.5784C145.823 37.8984 146.923 38.0584 148.296 38.0584C149.696 38.0584 150.809 37.8984 151.636 37.5784C152.463 37.2584 152.876 36.8317 152.876 36.2984C152.876 35.7517 152.456 35.3184 151.616 34.9984C150.789 34.6651 149.683 34.4984 148.296 34.4984ZM154.776 50.3384H142.236V46.1784H152.676V44.6384H142.196V43.4184H154.196V47.3384H143.756V49.0984H154.776V50.3384ZM173.915 43.8184C171.821 44.0451 170.015 44.1984 168.495 44.2784C166.081 44.4251 164.215 44.4984 162.895 44.4984L162.655 43.2384C164.095 43.2384 165.701 43.1984 167.475 43.1184V41.9384C166.488 41.8451 165.701 41.6117 165.115 41.2384C164.528 40.8517 164.235 40.3184 164.235 39.6384C164.235 38.8651 164.608 38.2784 165.355 37.8784C166.115 37.4784 167.088 37.2784 168.275 37.2784C169.461 37.2784 170.435 37.4784 171.195 37.8784C171.968 38.2651 172.355 38.8451 172.355 39.6184C172.355 40.2984 172.048 40.8384 171.435 41.2384C170.821 41.6251 170.015 41.8584 169.015 41.9384V43.0384C171.055 42.9451 172.641 42.8117 173.775 42.6384L173.915 43.8184ZM179.075 40.0984H176.435V44.6384H174.895V33.0184H176.435V38.8184H179.075V40.0984ZM164.975 45.5584H176.435V50.6184H174.895V46.8184H164.975V45.5584ZM173.315 36.6984H163.275V35.4584H173.315V36.6984ZM170.895 39.6184C170.895 39.2317 170.648 38.9384 170.155 38.7384C169.661 38.5251 169.035 38.4184 168.275 38.4184C167.501 38.4184 166.875 38.5251 166.395 38.7384C165.915 38.9384 165.675 39.2317 165.675 39.6184C165.675 40.0184 165.915 40.3251 166.395 40.5384C166.875 40.7384 167.501 40.8384 168.275 40.8384C169.048 40.8384 169.675 40.7384 170.155 40.5384C170.648 40.3251 170.895 40.0184 170.895 39.6184ZM170.695 34.4984H165.895V33.2384H170.695V34.4984ZM194.539 45.7784H193.019V33.0184H194.539V45.7784ZM194.979 49.9184H183.139V44.5184H184.659V48.6584H194.979V49.9184ZM185.339 34.1784C186.686 34.1784 187.806 34.5851 188.699 35.3984C189.606 36.2117 190.059 37.2584 190.059 38.5384C190.059 39.8184 189.613 40.8651 188.719 41.6784C187.826 42.4784 186.706 42.8784 185.359 42.8784C184.013 42.8784 182.886 42.4784 181.979 41.6784C181.086 40.8784 180.639 39.8384 180.639 38.5584C180.639 37.2784 181.086 36.2317 181.979 35.4184C182.886 34.5917 184.006 34.1784 185.339 34.1784ZM185.339 35.4984C184.406 35.4984 183.633 35.7851 183.019 36.3584C182.406 36.9317 182.099 37.6584 182.099 38.5384C182.099 39.4051 182.406 40.1251 183.019 40.6984C183.646 41.2584 184.426 41.5384 185.359 41.5384C186.319 41.5384 187.099 41.2584 187.699 40.6984C188.313 40.1384 188.619 39.4251 188.619 38.5584C188.619 37.6517 188.313 36.9184 187.699 36.3584C187.099 35.7851 186.313 35.4984 185.339 35.4984ZM213.844 41.6784H211.004V50.4984H209.484V33.0184H211.004V40.3984H213.844V41.6784ZM205.224 35.5184H200.084V34.2184H205.224V35.5184ZM207.804 38.4784H197.484V37.2184H207.804V38.4784ZM206.764 43.2184C206.764 44.2451 206.384 45.1051 205.624 45.7984C204.864 46.4784 203.884 46.8184 202.684 46.8184C201.484 46.8184 200.504 46.4784 199.744 45.7984C198.984 45.1184 198.604 44.2584 198.604 43.2184C198.604 42.1784 198.984 41.3184 199.744 40.6384C200.504 39.9451 201.484 39.5984 202.684 39.5984C203.884 39.5984 204.864 39.9451 205.624 40.6384C206.384 41.3184 206.764 42.1784 206.764 43.2184ZM205.244 43.2184C205.244 42.5251 205.004 41.9651 204.524 41.5384C204.044 41.0984 203.431 40.8784 202.684 40.8784C201.951 40.8784 201.337 41.0984 200.844 41.5384C200.364 41.9784 200.124 42.5384 200.124 43.2184C200.124 43.8984 200.364 44.4584 200.844 44.8984C201.337 45.3384 201.951 45.5584 202.684 45.5584C203.431 45.5584 204.044 45.3384 204.524 44.8984C205.004 44.4584 205.244 43.8984 205.244 43.2184ZM229.669 50.4984H228.169V33.0184H229.669V50.4984ZM226.209 49.6184H224.729V40.5984H221.629V39.3184H224.729V33.4384H226.209V49.6184ZM223.669 44.9784L222.729 46.0984C221.982 45.5651 221.235 44.8251 220.489 43.8784C219.755 42.9317 219.255 41.9984 218.989 41.0784C218.802 42.0784 218.375 43.0984 217.709 44.1384C217.055 45.1651 216.295 45.9917 215.429 46.6184L214.489 45.4784C215.529 44.8117 216.409 43.7784 217.129 42.3784C217.862 40.9784 218.229 39.4584 218.229 37.8184V34.6384H219.729V37.7784C219.729 39.3517 220.115 40.7651 220.889 42.0184C221.662 43.2717 222.589 44.2584 223.669 44.9784ZM246.353 38.7184C246.353 40.0651 245.773 41.1517 244.613 41.9784C243.453 42.8051 241.927 43.2184 240.033 43.2184C238.153 43.2184 236.633 42.8051 235.473 41.9784C234.327 41.1517 233.753 40.0651 233.753 38.7184C233.753 37.3717 234.327 36.2784 235.473 35.4384C236.633 34.5984 238.153 34.1784 240.033 34.1784C241.94 34.1784 243.467 34.5984 244.613 35.4384C245.773 36.2651 246.353 37.3584 246.353 38.7184ZM243.553 41.0984C244.447 40.4984 244.893 39.7051 244.893 38.7184C244.893 37.7317 244.447 36.9384 243.553 36.3384C242.673 35.7384 241.5 35.4384 240.033 35.4384C238.58 35.4384 237.413 35.7384 236.533 36.3384C235.653 36.9384 235.213 37.7317 235.213 38.7184C235.213 39.7051 235.653 40.4984 236.533 41.0984C237.413 41.6984 238.58 41.9984 240.033 41.9984C241.487 41.9984 242.66 41.6984 243.553 41.0984ZM247.953 48.2784H232.173V46.9984H236.073V43.7384L237.593 43.6984V46.9984H242.473V43.6984L243.993 43.7384V46.9984H247.953V48.2784ZM250.738 45.2384L250.498 34.1184H252.318L252.078 45.2384H250.738ZM250.558 48.6384V46.8584H252.278V48.6384H250.558Z" fill="#111111"/>
</svg>
